ComingSoon.sfdir

StartChar: exclam
Encoding: 33 33 22
Width: 275
Flags: W
LayerCount: 2
Fore
SplineSet
164 72 m 256,0,1
 181 72 181 72 192.5 60.5 c 128,-1,2
 204 49 204 49 204 32 c 0,3,4
 204 16 204 16 192.5 4.5 c 128,-1,5
 181 -7 181 -7 164 -7 c 256,6,7
 147 -7 147 -7 136 4.5 c 128,-1,8
 125 16 125 16 125 32 c 0,9,10
 125 49 125 49 136 60.5 c 128,-1,11
 147 72 147 72 164 72 c 256,0,1
150 99 m 1,12,13
 139 98 139 98 131 105.5 c 128,-1,14
 123 113 123 113 122 124 c 0,15,16
 120 139 120 139 118.5 154.5 c 128,-1,17
 117 170 117 170 115 186 c 0,18,19
 109 243 109 243 104.5 293.5 c 128,-1,20
 100 344 100 344 100 374 c 0,21,22
 100 405 100 405 97.5 452 c 128,-1,23
 95 499 95 499 91 548.5 c 128,-1,24
 87 598 87 598 82 643 c 128,-1,25
 77 688 77 688 72 715 c 1,26,27
 72 725 72 725 79 733 c 128,-1,28
 86 741 86 741 100 743 c 1,29,30
 122 743 122 743 127 720 c 0,31,32
 133 693 133 693 138 646 c 128,-1,33
 143 599 143 599 147 548.5 c 128,-1,34
 151 498 151 498 153.5 450.5 c 128,-1,35
 156 403 156 403 156 374 c 0,36,37
 156 346 156 346 160.5 296 c 128,-1,38
 165 246 165 246 171 192 c 0,39,40
 173 176 173 176 174.5 160 c 128,-1,41
 176 144 176 144 178 127 c 1,42,43
 178 116 178 116 170.5 107.5 c 128,-1,44
 163 99 163 99 150 99 c 1,12,13
EndSplineSet
EndChar

StartChar: quotedbl
Encoding: 34 34 23
Width: 265
Flags: W
LayerCount: 2
Fore
SplineSet
197 660 m 0,0,1
 198 652 198 652 199 644 c 128,-1,2
 200 636 200 636 202 628 c 0,3,4
 204 617 204 617 205.5 604.5 c 128,-1,5
 207 592 207 592 208 578 c 0,6,7
 208 567 208 567 200.5 559 c 128,-1,8
 193 551 193 551 180 550 c 0,9,10
 169 549 169 549 161 557 c 128,-1,11
 153 565 153 565 152 576 c 0,12,13
 150 598 150 598 146 619 c 0,14,15
 144 627 144 627 143 636 c 128,-1,16
 142 645 142 645 141 653 c 0,17,18
 139 676 139 676 136 696 c 128,-1,19
 133 716 133 716 130 735 c 1,20,21
 130 757 130 757 158 763 c 1,22,23
 168 763 168 763 175.5 756.5 c 128,-1,24
 183 750 183 750 185 740 c 0,25,26
 188 724 188 724 191 703.5 c 128,-1,27
 194 683 194 683 197 660 c 0,0,1
84 660 m 0,28,29
 86 647 86 647 86.5 634 c 128,-1,30
 87 621 87 621 89 607 c 1,31,-1
 91 578 l 2,32,33
 91 567 91 567 83.5 558.5 c 128,-1,34
 76 550 76 550 63 550 c 1,35,36
 52 549 52 549 44 556.5 c 128,-1,37
 36 564 36 564 35 575 c 2,38,-1
 33 603 l 1,39,40
 31 616 31 616 30.5 628.5 c 128,-1,41
 30 641 30 641 28 654 c 0,42,43
 27 662 27 662 27 670 c 128,-1,44
 27 678 27 678 27 686 c 2,45,-1
 27 702 l 1,46,-1
 27 714 l 2,47,48
 27 719 27 719 27 724 c 128,-1,49
 27 729 27 729 26 736 c 1,50,51
 26 746 26 746 33 754 c 128,-1,52
 40 762 40 762 54 764 c 1,53,54
 76 764 76 764 81 742 c 0,55,56
 83 735 83 735 83 728.5 c 128,-1,57
 83 722 83 722 83 714 c 2,58,-1
 83 701 l 1,59,-1
 83 686 l 2,60,61
 83 679 83 679 83 673 c 128,-1,62
 83 667 83 667 84 660 c 0,28,29
EndSplineSet
EndChar

StartChar: numbersign
Encoding: 35 35 24
Width: 544
Flags: W
LayerCount: 2
Fore
SplineSet
343 287 m 0,0,1
 351 310 351 310 361.5 344 c 128,-1,2
 372 378 372 378 383 414 c 1,3,4
 372 415 372 415 359 415 c 128,-1,5
 346 415 346 415 332 415 c 0,6,7
 285 415 285 415 239 412 c 1,8,9
 227 370 227 370 215 331 c 128,-1,10
 203 292 203 292 194 268 c 0,11,12
 192 261 192 261 188.5 250 c 128,-1,13
 185 239 185 239 180 225 c 1,14,15
 200 226 200 226 220 226.5 c 128,-1,16
 240 227 240 227 260 227 c 0,17,18
 277 227 277 227 293.5 227 c 128,-1,19
 310 227 310 227 324 226 c 1,20,21
 330 247 330 247 334.5 262 c 128,-1,22
 339 277 339 277 343 287 c 0,0,1
500 460 m 0,23,24
 511 458 511 458 517.5 449.5 c 128,-1,25
 524 441 524 441 523 427 c 1,26,27
 521 417 521 417 513 410.5 c 128,-1,28
 505 404 505 404 491 405 c 0,29,30
 490 405 490 405 477 406.5 c 128,-1,31
 464 408 464 408 440 410 c 1,32,33
 429 368 429 368 416.5 330 c 128,-1,34
 404 292 404 292 396 268 c 1,35,36
 389 252 389 252 381 222 c 1,37,38
 403 220 403 220 414.5 218 c 128,-1,39
 426 216 426 216 428 216 c 0,40,41
 438 214 438 214 444.5 206 c 128,-1,42
 451 198 451 198 450 184 c 0,43,44
 447 161 447 161 418 161 c 1,45,46
 412 162 412 162 404 163 c 0,47,48
 397 164 397 164 387.5 164.5 c 128,-1,49
 378 165 378 165 365 167 c 1,50,51
 359 144 359 144 351.5 117.5 c 128,-1,52
 344 91 344 91 336 60 c 1,53,54
 329 39 329 39 301 40 c 1,55,56
 292 42 292 42 286.5 51 c 128,-1,57
 281 60 281 60 282 74 c 1,58,59
 289 102 289 102 295.5 126 c 128,-1,60
 302 150 302 150 308 171 c 1,61,-1
 260 171 l 2,62,63
 210 171 210 171 164 168 c 1,64,65
 157 145 157 145 149.5 117.5 c 128,-1,66
 142 90 142 90 134 58 c 0,67,68
 131 49 131 49 122.5 43 c 128,-1,69
 114 37 114 37 99 38 c 1,70,71
 90 41 90 41 84 49.5 c 128,-1,72
 78 58 78 58 79 73 c 1,73,74
 85 94 85 94 91.5 117 c 128,-1,75
 98 140 98 140 104 163 c 1,76,77
 77 161 77 161 59 159 c 128,-1,78
 41 157 41 157 38 157 c 0,79,80
 27 157 27 157 19.5 164 c 128,-1,81
 12 171 12 171 10 185 c 1,82,83
 10 196 10 196 17 203.5 c 128,-1,84
 24 211 24 211 35 213 c 0,85,86
 37 213 37 213 61 215.5 c 128,-1,87
 85 218 85 218 121 221 c 1,88,89
 127 242 127 242 132 259 c 128,-1,90
 137 276 137 276 141 287 c 0,91,92
 149 309 149 309 159 340.5 c 128,-1,93
 169 372 169 372 180 407 c 1,94,95
 151 405 151 405 132.5 403 c 128,-1,96
 114 401 114 401 111 401 c 0,97,98
 100 401 100 401 92.5 408 c 128,-1,99
 85 415 85 415 83 429 c 1,100,101
 83 440 83 440 90 447.5 c 128,-1,102
 97 455 97 455 108 456 c 0,103,104
 110 457 110 457 134.5 459.5 c 128,-1,105
 159 462 159 462 196 465 c 1,106,107
 204 495 204 495 210.5 520 c 128,-1,108
 217 545 217 545 220 561 c 0,109,110
 223 584 223 584 252 584 c 1,111,112
 275 579 275 579 275 551 c 1,113,114
 272 536 272 536 267 515 c 128,-1,115
 262 494 262 494 255 469 c 1,116,117
 275 470 275 470 294 470.5 c 128,-1,118
 313 471 313 471 332 471 c 256,119,120
 351 471 351 471 367.5 470.5 c 128,-1,121
 384 470 384 470 399 469 c 1,122,123
 407 498 407 498 413 522 c 128,-1,124
 419 546 419 546 421 561 c 1,125,126
 426 584 426 584 454 584 c 1,127,128
 464 582 464 582 470.5 573.5 c 128,-1,129
 477 565 477 565 476 551 c 0,130,131
 474 536 474 536 468.5 513.5 c 128,-1,132
 463 491 463 491 456 465 c 1,133,134
 476 463 476 463 487.5 461.5 c 128,-1,135
 499 460 499 460 500 460 c 0,23,24
EndSplineSet
EndChar

StartChar: dollar
Encoding: 36 36 25
Width: 446
Flags: W
LayerCount: 2
Fore
SplineSet
359 285 m 2,0,1
 359 300 359 300 353.5 321 c 128,-1,2
 348 342 348 342 336.5 362 c 128,-1,3
 325 382 325 382 307.5 398.5 c 128,-1,4
 290 415 290 415 266 422 c 0,5,6
 255 426 255 426 246 422 c 1,7,8
 246 398 246 398 247.5 364.5 c 128,-1,9
 249 331 249 331 251 294.5 c 128,-1,10
 253 258 253 258 255.5 219.5 c 128,-1,11
 258 181 258 181 261 147 c 1,12,13
 264 148 264 148 272 150 c 0,14,15
 301 159 301 159 317.5 171 c 128,-1,16
 334 183 334 183 342 198 c 128,-1,17
 350 213 350 213 353 230 c 128,-1,18
 356 247 356 247 358 266 c 2,19,-1
 359 277 l 1,20,-1
 359 285 l 2,0,1
106 518 m 0,21,22
 106 505 106 505 125.5 500 c 128,-1,23
 145 495 145 495 189 490 c 1,24,25
 188 519 188 519 187 548 c 128,-1,26
 186 577 186 577 184 603 c 1,27,28
 152 591 152 591 129 572 c 128,-1,29
 106 553 106 553 106 518 c 0,21,22
282 476 m 0,30,31
 315 467 315 467 339.5 445 c 128,-1,32
 364 423 364 423 381 396 c 128,-1,33
 398 369 398 369 406.5 339.5 c 128,-1,34
 415 310 415 310 415 285 c 2,35,-1
 415 271 l 1,36,-1
 414 260 l 2,37,38
 412 241 412 241 408 218 c 128,-1,39
 404 195 404 195 391.5 172 c 128,-1,40
 379 149 379 149 354.5 129 c 128,-1,41
 330 109 330 109 288 96 c 0,42,43
 282 94 282 94 276.5 93 c 128,-1,44
 271 92 271 92 265 90 c 1,45,46
 268 57 268 57 270 36 c 128,-1,47
 272 15 272 15 272 13 c 0,48,49
 272 2 272 2 264.5 -6 c 128,-1,50
 257 -14 257 -14 244 -15 c 0,51,52
 233 -16 233 -16 225 -8.5 c 128,-1,53
 217 -1 217 -1 216 10 c 0,54,55
 216 13 216 13 214 33 c 128,-1,56
 212 53 212 53 210 84 c 1,57,58
 189 85 189 85 168 90.5 c 128,-1,59
 147 96 147 96 118 104 c 0,60,61
 89 113 89 113 69 130.5 c 128,-1,62
 49 148 49 148 36 166.5 c 128,-1,63
 23 185 23 185 17 200.5 c 128,-1,64
 11 216 11 216 10 221 c 1,65,66
 10 230 10 230 16.5 237.5 c 128,-1,67
 23 245 23 245 38 249 c 1,68,69
 58 249 58 249 65 229 c 0,70,71
 71 213 71 213 81 199 c 0,72,73
 89 187 89 187 102.5 174.5 c 128,-1,74
 116 162 116 162 136 157 c 1,75,76
 159 150 159 150 175 146 c 128,-1,77
 191 142 191 142 205 141 c 1,78,79
 202 176 202 176 199.5 214.5 c 128,-1,80
 197 253 197 253 195 290.5 c 128,-1,81
 193 328 193 328 191.5 362 c 128,-1,82
 190 396 190 396 190 422 c 1,83,-1
 187 434 l 1,84,85
 164 436 164 436 140 439.5 c 128,-1,86
 116 443 116 443 96 451.5 c 128,-1,87
 76 460 76 460 63 475.5 c 128,-1,88
 50 491 50 491 50 518 c 0,89,90
 50 551 50 551 62.5 574 c 128,-1,91
 75 597 75 597 92 612.5 c 128,-1,92
 109 628 109 628 128 638 c 128,-1,93
 147 648 147 648 161 654 c 0,94,95
 166 656 166 656 171.5 658 c 128,-1,96
 177 660 177 660 183 662 c 1,97,98
 182 682 182 682 181.5 693.5 c 128,-1,99
 181 705 181 705 181 707 c 0,100,101
 181 718 181 718 188.5 726 c 128,-1,102
 196 734 196 734 209 735 c 0,103,104
 220 735 220 735 228 727.5 c 128,-1,105
 236 720 236 720 237 709 c 0,106,107
 237 708 237 708 237.5 697.5 c 128,-1,108
 238 687 238 687 239 669 c 1,109,110
 242 670 242 670 245.5 670 c 128,-1,111
 249 670 249 670 252 670 c 0,112,113
 278 670 278 670 302.5 666.5 c 128,-1,114
 327 663 327 663 348 658 c 1,115,116
 369 651 369 651 368 624 c 1,117,118
 363 602 363 602 334 604 c 1,119,120
 314 609 314 609 293 611.5 c 128,-1,121
 272 614 272 614 252 614 c 2,122,-1
 241 614 l 1,123,124
 243 585 243 585 243.5 551 c 128,-1,125
 244 517 244 517 245 483 c 1,126,127
 255 481 255 481 264 479.5 c 128,-1,128
 273 478 273 478 282 476 c 0,30,31
EndSplineSet
EndChar

StartChar: percent
Encoding: 37 37 26
Width: 676
Flags: W
LayerCount: 2
Fore
SplineSet
604 74 m 0,0,1
 612 82 612 82 621.5 99.5 c 128,-1,2
 631 117 631 117 630 146 c 1,3,4
 628 167 628 167 620 184 c 128,-1,5
 612 201 612 201 602.5 213 c 128,-1,6
 593 225 593 225 583 232.5 c 128,-1,7
 573 240 573 240 567 243 c 1,8,9
 560 239 560 239 552 239 c 0,10,11
 546 239 546 239 533 242 c 1,12,13
 527 242 527 242 519 246 c 1,14,15
 514 244 514 244 507.5 239.5 c 128,-1,16
 501 235 501 235 495 228 c 0,17,18
 476 207 476 207 464 175 c 128,-1,19
 452 143 452 143 452 111 c 1,20,21
 454 93 454 93 464 80 c 128,-1,22
 474 67 474 67 488 58.5 c 128,-1,23
 502 50 502 50 518 46 c 128,-1,24
 534 42 534 42 548 42 c 0,25,26
 559 42 559 42 574.5 50 c 128,-1,27
 590 58 590 58 604 74 c 0,0,1
563 301 m 2,28,29
 577 301 577 301 596.5 290.5 c 128,-1,30
 616 280 616 280 634.5 260.5 c 128,-1,31
 653 241 653 241 667.5 213.5 c 128,-1,32
 682 186 682 186 686 152 c 0,33,34
 686 148 686 148 686.5 144.5 c 128,-1,35
 687 141 687 141 687 137 c 0,36,37
 687 110 687 110 676.5 84 c 128,-1,38
 666 58 666 58 646 36 c 0,39,40
 625 13 625 13 598.5 -0.5 c 128,-1,41
 572 -14 572 -14 548 -14 c 0,42,43
 523 -14 523 -14 497.5 -6.5 c 128,-1,44
 472 1 472 1 450.5 16 c 128,-1,45
 429 31 429 31 414 53.5 c 128,-1,46
 399 76 399 76 396 105 c 1,47,-1
 396 119 l 2,48,49
 396 155 396 155 412 195.5 c 128,-1,50
 428 236 428 236 454 265 c 0,51,52
 489 305 489 305 529 305 c 0,53,54
 536 305 536 305 541.5 304 c 128,-1,55
 547 303 547 303 552 301 c 1,56,-1
 563 301 l 2,28,29
56 564 m 1,57,58
 58 546 58 546 68 533 c 128,-1,59
 78 520 78 520 92 511.5 c 128,-1,60
 106 503 106 503 122 499 c 128,-1,61
 138 495 138 495 152 495 c 0,62,63
 163 495 163 495 179 503 c 128,-1,64
 195 511 195 511 209 527 c 0,65,66
 217 535 217 535 226 552.5 c 128,-1,67
 235 570 235 570 234 599 c 1,68,69
 232 620 232 620 224 637 c 128,-1,70
 216 654 216 654 206.5 666 c 128,-1,71
 197 678 197 678 187 685.5 c 128,-1,72
 177 693 177 693 171 696 c 1,73,74
 164 692 164 692 157 692 c 256,75,76
 150 692 150 692 137 695 c 1,77,78
 131 695 131 695 123 699 c 1,79,80
 112 694 112 694 100 681 c 0,81,82
 80 660 80 660 68 628 c 128,-1,83
 56 596 56 596 56 564 c 1,57,58
250 489 m 0,84,85
 230 466 230 466 203 452.5 c 128,-1,86
 176 439 176 439 152 439 c 0,87,88
 127 439 127 439 101.5 446.5 c 128,-1,89
 76 454 76 454 54.5 469 c 128,-1,90
 33 484 33 484 18.5 506.5 c 128,-1,91
 4 529 4 529 1 558 c 0,92,93
 0 563 0 563 0 572 c 0,94,95
 0 608 0 608 16 648.5 c 128,-1,96
 32 689 32 689 58 718 c 0,97,98
 93 758 93 758 133 758 c 0,99,100
 140 758 140 758 145.5 757 c 128,-1,101
 151 756 151 756 156 754 c 1,102,-1
 168 754 l 2,103,104
 181 754 181 754 200.5 743.5 c 128,-1,105
 220 733 220 733 239 713.5 c 128,-1,106
 258 694 258 694 272.5 666.5 c 128,-1,107
 287 639 287 639 290 605 c 0,108,109
 291 600 291 600 291 590 c 0,110,111
 291 563 291 563 280.5 537 c 128,-1,112
 270 511 270 511 250 489 c 0,84,85
522 735 m 1,113,114
 539 726 539 726 539 709 c 0,115,116
 539 704 539 704 536 698 c 0,117,118
 524 671 524 671 500.5 625.5 c 128,-1,119
 477 580 477 580 450 531.5 c 128,-1,120
 423 483 423 483 396.5 438.5 c 128,-1,121
 370 394 370 394 353 367 c 0,122,123
 341 349 341 349 322 315.5 c 128,-1,124
 303 282 303 282 281.5 242 c 128,-1,125
 260 202 260 202 237.5 160 c 128,-1,126
 215 118 215 118 196.5 84 c 128,-1,127
 178 50 178 50 166.5 28 c 128,-1,128
 155 6 155 6 155 5 c 0,129,130
 147 -10 147 -10 130 -10 c 0,131,132
 123 -10 123 -10 117 -7 c 0,133,134
 109 -3 109 -3 105.5 3.5 c 128,-1,135
 102 10 102 10 102 18 c 0,136,137
 102 25 102 25 105 31 c 0,138,139
 106 34 106 34 118.5 57 c 128,-1,140
 131 80 131 80 149 114.5 c 128,-1,141
 167 149 167 149 189.5 190.5 c 128,-1,142
 212 232 212 232 234 272 c 128,-1,143
 256 312 256 312 275 345 c 128,-1,144
 294 378 294 378 306 397 c 256,145,146
 318 416 318 416 334 442.5 c 128,-1,147
 350 469 350 469 367.5 499.5 c 128,-1,148
 385 530 385 530 403 562 c 128,-1,149
 421 594 421 594 436.5 623.5 c 128,-1,150
 452 653 452 653 465 678 c 128,-1,151
 478 703 478 703 485 720 c 0,152,153
 493 737 493 737 511 737 c 0,154,155
 514 737 514 737 522 735 c 1,113,114
EndSplineSet
EndChar

StartChar: ampersand
Encoding: 38 38 27
Width: 635
Flags: W
LayerCount: 2
Fore
SplineSet
403 69 m 0,0,1
 429 85 429 85 451 103 c 128,-1,2
 473 121 473 121 491 138 c 1,3,4
 474 165 474 165 449 203.5 c 128,-1,5
 424 242 424 242 397 281 c 128,-1,6
 370 320 370 320 344.5 354.5 c 128,-1,7
 319 389 319 389 303 407 c 2,8,-1
 281 432 l 2,9,10
 278 435 278 435 275.5 438.5 c 128,-1,11
 273 442 273 442 270 445 c 1,12,13
 226 404 226 404 186 361.5 c 128,-1,14
 146 319 146 319 125 268 c 0,15,16
 117 248 117 248 112 229 c 128,-1,17
 107 210 107 210 107 184 c 0,18,19
 107 166 107 166 110 144 c 0,20,21
 119 56 119 56 173 29 c 0,22,23
 186 22 186 22 201.5 19.5 c 128,-1,24
 217 17 217 17 234 17 c 0,25,26
 276 17 276 17 320.5 32 c 128,-1,27
 365 47 365 47 403 69 c 0,0,1
207 693 m 0,28,29
 204 687 204 687 204 678 c 0,30,31
 204 663 204 663 210.5 645 c 128,-1,32
 217 627 217 627 227.5 607 c 128,-1,33
 238 587 238 587 251.5 566.5 c 128,-1,34
 265 546 265 546 278 528 c 1,35,36
 317 564 317 564 343.5 598.5 c 128,-1,37
 370 633 370 633 370 673 c 1,38,39
 368 687 368 687 358 696.5 c 128,-1,40
 348 706 348 706 338 711 c 0,41,42
 312 724 312 724 284 724 c 2,43,-1
 273 724 l 1,44,45
 254 722 254 722 233.5 715 c 128,-1,46
 213 708 213 708 207 693 c 0,28,29
561 131 m 1,47,48
 570 117 570 117 582 99.5 c 128,-1,49
 594 82 594 82 610 59 c 0,50,51
 615 51 615 51 615 43 c 0,52,53
 615 29 615 29 603 20 c 0,54,55
 595 15 595 15 587 15 c 0,56,57
 571 15 571 15 564 27 c 0,58,59
 551 46 551 46 540.5 61 c 128,-1,60
 530 76 530 76 521 89 c 1,61,62
 502 72 502 72 480 54.5 c 128,-1,63
 458 37 458 37 432 21 c 0,64,65
 391 -3 391 -3 338.5 -21 c 128,-1,66
 286 -39 286 -39 233 -39 c 0,67,68
 210 -39 210 -39 189 -35 c 128,-1,69
 168 -31 168 -31 148 -21 c 0,70,71
 66 20 66 20 54 138 c 0,72,73
 51 163 51 163 51 184 c 0,74,75
 51 216 51 216 56.5 240 c 128,-1,76
 62 264 62 264 73 290 c 0,77,78
 98 350 98 350 143.5 398.5 c 128,-1,79
 189 447 189 447 236 490 c 1,80,81
 195 546 195 546 171.5 593 c 128,-1,82
 148 640 148 640 148 678 c 0,83,84
 148 700 148 700 155 715 c 0,85,86
 178 770 178 770 268 779 c 0,87,88
 273 780 273 780 284 780 c 0,89,90
 326 780 326 780 364 761 c 1,91,92
 420 731 420 731 425 679 c 0,93,94
 426 675 426 675 426 671.5 c 128,-1,95
 426 668 426 668 426 665 c 0,96,97
 426 639 426 639 417 615.5 c 128,-1,98
 408 592 408 592 392.5 569.5 c 128,-1,99
 377 547 377 547 356 525.5 c 128,-1,100
 335 504 335 504 312 483 c 1,101,102
 315 478 315 478 318 474.5 c 128,-1,103
 321 471 321 471 324 467 c 2,104,-1
 345 444 l 2,105,106
 362 424 362 424 386.5 391.5 c 128,-1,107
 411 359 411 359 437.5 321.5 c 128,-1,108
 464 284 464 284 488.5 246.5 c 128,-1,109
 513 209 513 209 530 181 c 1,110,111
 544 197 544 197 550.5 207 c 128,-1,112
 557 217 557 217 558 218 c 0,113,114
 566 231 566 231 581 231 c 0,115,116
 589 231 589 231 596 226 c 1,117,118
 609 219 609 219 609 203 c 0,119,120
 609 193 609 193 605 188 c 0,121,122
 604 186 604 186 592.5 170 c 128,-1,123
 581 154 581 154 561 131 c 1,47,48
EndSplineSet
EndChar

StartChar: quotesingle
Encoding: 39 39 28
Width: 147
Flags: W
LayerCount: 2
Fore
SplineSet
84 660 m 0,0,1
 86 647 86 647 86.5 634 c 128,-1,2
 87 621 87 621 89 607 c 1,3,-1
 91 578 l 2,4,5
 91 567 91 567 83.5 558.5 c 128,-1,6
 76 550 76 550 63 550 c 1,7,8
 52 549 52 549 44 556.5 c 128,-1,9
 36 564 36 564 35 575 c 2,10,-1
 33 603 l 1,11,12
 31 616 31 616 30.5 628.5 c 128,-1,13
 30 641 30 641 28 654 c 0,14,15
 27 662 27 662 27 670 c 128,-1,16
 27 678 27 678 27 686 c 2,17,-1
 27 702 l 1,18,-1
 27 714 l 2,19,20
 27 719 27 719 27 724 c 128,-1,21
 27 729 27 729 26 736 c 1,22,23
 26 746 26 746 33 754 c 128,-1,24
 40 762 40 762 54 764 c 1,25,26
 76 764 76 764 81 742 c 0,27,28
 83 735 83 735 83 728.5 c 128,-1,29
 83 722 83 722 83 714 c 2,30,-1
 83 701 l 1,31,-1
 83 686 l 2,32,33
 83 679 83 679 83 673 c 128,-1,34
 83 667 83 667 84 660 c 0,0,1
EndSplineSet
EndChar

StartChar: parenleft
Encoding: 40 40 29
Width: 338
Flags: W
LayerCount: 2
Fore
SplineSet
301 19 m 0,0,1
 323 14 323 14 321 -15 c 1,2,3
 316 -36 316 -36 287 -35 c 1,4,5
 246 -24 246 -24 201.5 4.5 c 128,-1,6
 157 33 157 33 120 80 c 128,-1,7
 83 127 83 127 59.5 192.5 c 128,-1,8
 36 258 36 258 36 343 c 0,9,10
 36 369 36 369 38.5 395.5 c 128,-1,11
 41 422 41 422 46 451 c 0,12,13
 52 485 52 485 58.5 510.5 c 128,-1,14
 65 536 65 536 72.5 555 c 128,-1,15
 80 574 80 574 88.5 589 c 128,-1,16
 97 604 97 604 108 618 c 0,17,18
 109 619 109 619 117 629.5 c 128,-1,19
 125 640 125 640 138 655 c 128,-1,20
 151 670 151 670 167.5 687.5 c 128,-1,21
 184 705 184 705 203 721 c 128,-1,22
 222 737 222 737 241.5 749 c 128,-1,23
 261 761 261 761 280 766 c 1,24,25
 289 766 289 766 297 759.5 c 128,-1,26
 305 753 305 753 308 738 c 1,27,28
 308 729 308 729 302.5 721.5 c 128,-1,29
 297 714 297 714 287 711 c 0,30,31
 274 708 274 708 256.5 694 c 128,-1,32
 239 680 239 680 220 661.5 c 128,-1,33
 201 643 201 643 183.5 622.5 c 128,-1,34
 166 602 166 602 153 585 c 0,35,36
 144 573 144 573 137 561 c 128,-1,37
 130 549 130 549 123.5 532.5 c 128,-1,38
 117 516 117 516 111.5 494 c 128,-1,39
 106 472 106 472 101 441 c 0,40,41
 92 388 92 388 92 343 c 0,42,43
 92 262 92 262 115.5 203.5 c 128,-1,44
 139 145 139 145 172.5 106 c 128,-1,45
 206 67 206 67 241.5 46 c 128,-1,46
 277 25 277 25 301 19 c 0,0,1
EndSplineSet
EndChar

StartChar: parenright
Encoding: 41 41 30
Width: 341
Flags: W
LayerCount: 2
Fore
SplineSet
178 646 m 0,0,1
 190 634 190 634 201 620 c 128,-1,2
 212 606 212 606 222 588 c 128,-1,3
 232 570 232 570 242.5 546 c 128,-1,4
 253 522 253 522 264 489 c 0,5,6
 281 439 281 439 288 394 c 128,-1,7
 295 349 295 349 295 307 c 0,8,9
 295 239 295 239 277.5 182.5 c 128,-1,10
 260 126 260 126 232 83 c 128,-1,11
 204 40 204 40 169.5 10 c 128,-1,12
 135 -20 135 -20 101 -35 c 0,13,14
 95 -38 95 -38 89 -38 c 0,15,16
 72 -38 72 -38 64 -22 c 0,17,18
 61 -16 61 -16 61 -10 c 0,19,20
 61 9 61 9 78 15 c 1,21,22
 98 24 98 24 125.5 46.5 c 128,-1,23
 153 69 153 69 178.5 105 c 128,-1,24
 204 141 204 141 222 191.5 c 128,-1,25
 240 242 240 242 240 307 c 0,26,27
 240 344 240 344 233 384.5 c 128,-1,28
 226 425 226 425 211 472 c 0,29,30
 201 502 201 502 192 522.5 c 128,-1,31
 183 543 183 543 174.5 558.5 c 128,-1,32
 166 574 166 574 157 585 c 128,-1,33
 148 596 148 596 138 606 c 0,34,35
 123 621 123 621 103 638.5 c 128,-1,36
 83 656 83 656 62 672 c 128,-1,37
 41 688 41 688 21.5 698.5 c 128,-1,38
 2 709 2 709 -11 711 c 0,39,40
 -22 712 -22 712 -29 720 c 128,-1,41
 -36 728 -36 728 -36 741 c 1,42,43
 -33 766 -33 766 -5 766 c 1,44,45
 21 763 21 763 52 745 c 128,-1,46
 83 727 83 727 110.5 705.5 c 128,-1,47
 138 684 138 684 157 666 c 128,-1,48
 176 648 176 648 178 646 c 0,0,1
EndSplineSet
EndChar

StartChar: asterisk
Encoding: 42 42 31
Width: 462
Flags: W
LayerCount: 2
Fore
SplineSet
274 525 m 1,0,1
 341 480 341 480 376 448 c 128,-1,2
 411 416 411 416 413 414 c 0,3,4
 421 406 421 406 421 394 c 0,5,6
 421 384 421 384 413 374 c 1,7,8
 403 366 403 366 393 366 c 0,9,10
 382 366 382 366 373 375 c 0,11,12
 361 387 361 387 344 401 c 0,13,14
 330 413 330 413 309 429.5 c 128,-1,15
 288 446 288 446 262 465 c 1,16,17
 261 390 261 390 254.5 346.5 c 128,-1,18
 248 303 248 303 247 301 c 0,19,20
 245 291 245 291 236.5 285 c 128,-1,21
 228 279 228 279 214 280 c 1,22,23
 204 282 204 282 198 290.5 c 128,-1,24
 192 299 192 299 193 313 c 1,25,26
 196 333 196 333 199 359 c 0,27,28
 201 381 201 381 202.5 411.5 c 128,-1,29
 204 442 204 442 202 480 c 1,30,31
 137 438 137 438 103 406.5 c 128,-1,32
 69 375 69 375 68 375 c 0,33,34
 60 366 60 366 48 366 c 0,35,36
 37 366 37 366 29 374 c 0,37,38
 20 383 20 383 20 394 c 0,39,40
 20 404 20 404 28 414 c 0,41,42
 30 416 30 416 65.5 448 c 128,-1,43
 101 480 101 480 168 525 c 1,44,45
 142 540 142 540 118.5 552.5 c 128,-1,46
 95 565 95 565 77 574.5 c 128,-1,47
 59 584 59 584 48 590 c 1,48,-1
 36 595 l 1,49,50
 20 603 20 603 20 621 c 0,51,52
 20 627 20 627 23 633 c 0,53,54
 31 649 31 649 48 649 c 0,55,56
 55 649 55 649 61 646 c 0,57,58
 62 645 62 645 74.5 639 c 128,-1,59
 87 633 87 633 106.5 622.5 c 128,-1,60
 126 612 126 612 151 598.5 c 128,-1,61
 176 585 176 585 203 570 c 1,62,63
 201 599 201 599 198 625 c 128,-1,64
 195 651 195 651 193 671.5 c 128,-1,65
 191 692 191 692 189 704.5 c 128,-1,66
 187 717 187 717 187 719 c 0,67,68
 187 730 187 730 194 737.5 c 128,-1,69
 201 745 201 745 215 747 c 1,70,71
 226 747 226 747 233.5 740.5 c 128,-1,72
 241 734 241 734 243 723 c 0,73,74
 243 722 243 722 245 710 c 128,-1,75
 247 698 247 698 249 679 c 128,-1,76
 251 660 251 660 253.5 634.5 c 128,-1,77
 256 609 256 609 258 581 c 1,78,79
 282 594 282 594 304 606 c 128,-1,80
 326 618 326 618 342.5 626.5 c 128,-1,81
 359 635 359 635 369.5 640 c 128,-1,82
 380 645 380 645 381 646 c 0,83,84
 387 649 387 649 393 649 c 0,85,86
 412 649 412 649 418 633 c 0,87,88
 421 627 421 627 421 621 c 0,89,90
 421 603 421 603 405 595 c 2,91,-1
 394 590 l 2,92,93
 382 584 382 584 364 574.5 c 128,-1,94
 346 565 346 565 322.5 552.5 c 128,-1,95
 299 540 299 540 274 525 c 1,0,1
EndSplineSet
EndChar

StartChar: plus
Encoding: 43 43 32
Width: 489
Flags: W
LayerCount: 2
Fore
SplineSet
456 352 m 0,0,1
 478 347 478 347 478 319 c 1,2,3
 473 297 473 297 445 297 c 0,4,5
 444 297 444 297 398.5 304.5 c 128,-1,6
 353 312 353 312 275 311 c 1,7,-1
 264 310 l 1,8,9
 265 276 265 276 268 243 c 128,-1,10
 271 210 271 210 274 184 c 128,-1,11
 277 158 277 158 279.5 141.5 c 128,-1,12
 282 125 282 125 282 123 c 0,13,14
 282 112 282 112 275 104.5 c 128,-1,15
 268 97 268 97 254 95 c 1,16,17
 243 95 243 95 235.5 101.5 c 128,-1,18
 228 108 228 108 226 119 c 0,19,20
 226 121 226 121 223.5 137.5 c 128,-1,21
 221 154 221 154 218 180.5 c 128,-1,22
 215 207 215 207 212 240 c 128,-1,23
 209 273 209 273 208 308 c 1,24,25
 176 306 176 306 146 303.5 c 128,-1,26
 116 301 116 301 93 298.5 c 128,-1,27
 70 296 70 296 55 294 c 128,-1,28
 40 292 40 292 38 292 c 0,29,30
 15 292 15 292 10 320 c 1,31,32
 10 331 10 331 16.5 338.5 c 128,-1,33
 23 346 23 346 34 348 c 0,34,35
 36 348 36 348 51 350 c 128,-1,36
 66 352 66 352 90 354.5 c 128,-1,37
 114 357 114 357 144 360 c 128,-1,38
 174 363 174 363 207 365 c 1,39,40
 207 445 207 445 214 492 c 128,-1,41
 221 539 221 539 222 541 c 0,42,43
 225 563 225 563 255 563 c 1,44,45
 265 561 265 561 271 552.5 c 128,-1,46
 277 544 277 544 276 530 c 0,47,48
 276 529 276 529 270 485 c 128,-1,49
 264 441 264 441 263 366 c 1,50,-1
 275 367 l 1,51,52
 357 368 357 368 405.5 360.5 c 128,-1,53
 454 353 454 353 456 352 c 0,0,1
EndSplineSet
EndChar

StartChar: comma
Encoding: 44 44 33
Width: 126
Flags: W
LayerCount: 2
Fore
SplineSet
93 121 m 1,0,1
 115 118 115 118 115 88 c 1,2,3
 110 66 110 66 105.5 26 c 128,-1,4
 101 -14 101 -14 97 -66 c 0,5,6
 96 -77 96 -77 87.5 -84.5 c 128,-1,7
 79 -92 79 -92 67 -91 c 0,8,9
 56 -91 56 -91 48.5 -82.5 c 128,-1,10
 41 -74 41 -74 41 -61 c 0,11,12
 42 -46 42 -46 44 -25 c 128,-1,13
 46 -4 46 -4 48.5 18.5 c 128,-1,14
 51 41 51 41 54 62 c 128,-1,15
 57 83 57 83 60 99 c 0,16,17
 65 122 65 122 93 121 c 1,0,1
EndSplineSet
EndChar

StartChar: hyphen
Encoding: 45 45 34
Width: 402
Flags: W
LayerCount: 2
Fore
SplineSet
355 352 m 0,0,1
 372 347 372 347 371 319 c 1,2,3
 368 297 368 297 346 297 c 1,4,5
 330 300 330 300 311 304 c 1,6,7
 294 306 294 306 271 308.5 c 128,-1,8
 248 311 248 311 219 311 c 256,9,10
 190 311 190 311 159 308 c 128,-1,11
 128 305 128 305 102.5 301.5 c 128,-1,12
 77 298 77 298 59.5 295 c 128,-1,13
 42 292 42 292 41 292 c 0,14,15
 33 292 33 292 27.5 299 c 128,-1,16
 22 306 22 306 20 320 c 1,17,18
 20 331 20 331 25 338.5 c 128,-1,19
 30 346 30 346 38 348 c 0,20,21
 40 348 40 348 57 351 c 128,-1,22
 74 354 74 354 100 357.5 c 128,-1,23
 126 361 126 361 157.5 364 c 128,-1,24
 189 367 189 367 219 367 c 0,25,26
 281 367 281 367 317 360 c 128,-1,27
 353 353 353 353 355 352 c 0,0,1
EndSplineSet
EndChar

StartChar: period
Encoding: 46 46 35
Width: 130
Flags: W
LayerCount: 2
Fore
SplineSet
80 55 m 0,0,1
 97 55 97 55 108.5 43.5 c 128,-1,2
 120 32 120 32 120 15 c 256,3,4
 120 -2 120 -2 108.5 -13 c 128,-1,5
 97 -24 97 -24 80 -24 c 0,6,7
 64 -24 64 -24 52.5 -13 c 128,-1,8
 41 -2 41 -2 41 15 c 256,9,10
 41 32 41 32 52.5 43.5 c 128,-1,11
 64 55 64 55 80 55 c 0,0,1
EndSplineSet
EndChar

StartChar: slash
Encoding: 47 47 36
Width: 309
Flags: W
LayerCount: 2
Fore
SplineSet
186 397 m 0,0,1
 180 378 180 378 170 343 c 128,-1,2
 160 308 160 308 149.5 266.5 c 128,-1,3
 139 225 139 225 128 182 c 128,-1,4
 117 139 117 139 108.5 103.5 c 128,-1,5
 100 68 100 68 94.5 45.5 c 128,-1,6
 89 23 89 23 89 22 c 0,7,8
 87 11 87 11 76 2 c 128,-1,9
 65 -7 65 -7 51 -9 c 1,10,11
 40 -9 40 -9 34.5 -2 c 128,-1,12
 29 5 29 5 31 16 c 0,13,14
 32 19 32 19 37.5 43 c 128,-1,15
 43 67 43 67 52 102.5 c 128,-1,16
 61 138 61 138 71.5 181 c 128,-1,17
 82 224 82 224 93 265.5 c 128,-1,18
 104 307 104 307 113.5 342 c 128,-1,19
 123 377 123 377 130 397 c 0,20,21
 141 428 141 428 155 475 c 128,-1,22
 169 522 169 522 182 570.5 c 128,-1,23
 195 619 195 619 205 663 c 128,-1,24
 215 707 215 707 219 732 c 0,25,26
 221 743 221 743 230.5 753 c 128,-1,27
 240 763 240 763 252 765 c 0,28,29
 265 767 265 767 272.5 760.5 c 128,-1,30
 280 754 280 754 278 743 c 0,31,32
 274 716 274 716 263 669 c 128,-1,33
 252 622 252 622 238 571.5 c 128,-1,34
 224 521 224 521 210 473.5 c 128,-1,35
 196 426 196 426 186 397 c 0,0,1
EndSplineSet
EndChar

StartChar: zero
Encoding: 48 48 37
Width: 584
Flags: W
LayerCount: 2
Fore
SplineSet
420 124 m 0,0,1
 453 171 453 171 470 228 c 128,-1,2
 487 285 487 285 487 346 c 0,3,4
 487 366 487 366 485.5 385 c 128,-1,5
 484 404 484 404 480 423 c 0,6,7
 466 493 466 493 440.5 545.5 c 128,-1,8
 415 598 415 598 387 633.5 c 128,-1,9
 359 669 359 669 334 687.5 c 128,-1,10
 309 706 309 706 297 708 c 1,11,12
 293 697 293 697 284 692 c 0,13,14
 277 688 277 688 270 688 c 0,15,16
 264 688 264 688 258 690 c 128,-1,17
 252 692 252 692 244 695 c 1,18,19
 240 693 240 693 232 693 c 0,20,21
 218 693 218 693 211 703 c 1,22,23
 194 692 194 692 179 670 c 0,24,25
 160 644 160 644 145 606.5 c 128,-1,26
 130 569 130 569 119.5 525.5 c 128,-1,27
 109 482 109 482 103 436 c 128,-1,28
 97 390 97 390 97 346 c 0,29,30
 97 321 97 321 98.5 298 c 128,-1,31
 100 275 100 275 105 254 c 1,32,33
 115 198 115 198 139 160 c 128,-1,34
 163 122 163 122 192.5 98.5 c 128,-1,35
 222 75 222 75 254.5 65 c 128,-1,36
 287 55 287 55 315 55 c 0,37,38
 321 55 321 55 326.5 55 c 128,-1,39
 332 55 332 55 338 57 c 1,40,41
 352 59 352 59 374 74.5 c 128,-1,42
 396 90 396 90 420 124 c 0,0,1
292 765 m 1,43,44
 317 765 317 765 352 743 c 128,-1,45
 387 721 387 721 422.5 678.5 c 128,-1,46
 458 636 458 636 489 574.5 c 128,-1,47
 520 513 520 513 535 434 c 0,48,49
 543 388 543 388 543 346 c 0,50,51
 543 277 543 277 523.5 211.5 c 128,-1,52
 504 146 504 146 466 92 c 0,53,54
 439 54 439 54 407.5 30 c 128,-1,55
 376 6 376 6 346 1 c 0,56,57
 338 -1 338 -1 329.5 -1 c 128,-1,58
 321 -1 321 -1 312 -1 c 0,59,60
 271 -1 271 -1 229 14 c 128,-1,61
 187 29 187 29 151 59.5 c 128,-1,62
 115 90 115 90 88.5 135.5 c 128,-1,63
 62 181 62 181 50 243 c 0,64,65
 41 289 41 289 41 345 c 0,66,67
 41 393 41 393 47.5 444 c 128,-1,68
 54 495 54 495 66 542.5 c 128,-1,69
 78 590 78 590 95 631 c 128,-1,70
 112 672 112 672 133 702 c 0,71,72
 170 756 170 756 218 764 c 0,73,74
 221 765 221 765 224.5 765 c 128,-1,75
 228 765 228 765 231 765 c 0,76,77
 248 765 248 765 260 759 c 1,78,79
 266 761 266 761 272 762 c 128,-1,80
 278 763 278 763 285 764 c 2,81,-1
 292 765 l 1,43,44
EndSplineSet
EndChar

StartChar: one
Encoding: 49 49 38
Width: 329
Flags: W
LayerCount: 2
Fore
SplineSet
215 389 m 0,0,1
 215 370 215 370 217.5 335 c 128,-1,2
 220 300 220 300 223.5 258.5 c 128,-1,3
 227 217 227 217 231 173.5 c 128,-1,4
 235 130 235 130 239 94.5 c 128,-1,5
 243 59 243 59 245.5 35.5 c 128,-1,6
 248 12 248 12 248 11 c 0,7,8
 248 0 248 0 240.5 -7.5 c 128,-1,9
 233 -15 233 -15 220 -17 c 1,10,11
 209 -17 209 -17 201 -10 c 128,-1,12
 193 -3 193 -3 192 8 c 0,13,14
 191 11 191 11 188.5 35 c 128,-1,15
 186 59 186 59 182.5 95 c 128,-1,16
 179 131 179 131 175 174 c 128,-1,17
 171 217 171 217 167.5 258 c 128,-1,18
 164 299 164 299 161.5 334 c 128,-1,19
 159 369 159 369 159 389 c 0,20,21
 159 416 159 416 157 456 c 128,-1,22
 155 496 155 496 152 539 c 128,-1,23
 149 582 149 582 144.5 624 c 128,-1,24
 140 666 140 666 136 696 c 1,25,26
 116 682 116 682 97.5 669 c 128,-1,27
 79 656 79 656 65.5 646 c 128,-1,28
 52 636 52 636 44 630 c 2,29,-1
 35 623 l 1,30,31
 28 616 28 616 18 616 c 0,32,33
 5 616 5 616 -3 626 c 1,34,35
 -10 633 -10 633 -10 644 c 0,36,37
 -10 656 -10 656 -2 664 c 0,38,39
 -1 665 -1 665 11 674.5 c 128,-1,40
 23 684 23 684 41.5 697.5 c 128,-1,41
 60 711 60 711 83 727.5 c 128,-1,42
 106 744 106 744 130 759 c 0,43,44
 137 763 137 763 145 763 c 256,45,46
 153 763 153 763 161 758 c 1,47,48
 170 757 170 757 177 751 c 128,-1,49
 184 745 184 745 186 736 c 0,50,51
 192 708 192 708 197 661.5 c 128,-1,52
 202 615 202 615 206 564 c 128,-1,53
 210 513 210 513 212.5 465.5 c 128,-1,54
 215 418 215 418 215 389 c 0,0,1
EndSplineSet
EndChar

StartChar: two
Encoding: 50 50 39
Width: 571
Flags: W
LayerCount: 2
Fore
SplineSet
528 34 m 0,0,1
 550 29 550 29 550 0 c 1,2,3
 548 -10 548 -10 539 -16 c 128,-1,4
 530 -22 530 -22 516 -21 c 1,5,6
 496 -18 496 -18 470 -14 c 0,7,8
 448 -11 448 -11 416.5 -8.5 c 128,-1,9
 385 -6 385 -6 347 -5 c 1,10,-1
 333 -5 l 2,11,12
 295 -5 295 -5 256 -7.5 c 128,-1,13
 217 -10 217 -10 185.5 -13 c 128,-1,14
 154 -16 154 -16 133 -18.5 c 128,-1,15
 112 -21 112 -21 110 -21 c 0,16,17
 107 -21 107 -21 103.5 -20.5 c 128,-1,18
 100 -20 100 -20 90 -20 c 0,19,20
 78 -20 78 -20 70 -11.5 c 128,-1,21
 62 -3 62 -3 62 8 c 0,22,23
 63 92 63 92 85.5 150 c 128,-1,24
 108 208 108 208 156 256 c 0,25,26
 185 285 185 285 220 308.5 c 128,-1,27
 255 332 255 332 290 355 c 1,28,29
 321 374 321 374 350 393.5 c 128,-1,30
 379 413 379 413 401 434 c 128,-1,31
 423 455 423 455 436.5 478.5 c 128,-1,32
 450 502 450 502 450 529 c 0,33,34
 450 559 450 559 447 585.5 c 128,-1,35
 444 612 444 612 433 635 c 128,-1,36
 422 658 422 658 400 676 c 128,-1,37
 378 694 378 694 339 708 c 0,38,39
 317 716 317 716 300.5 719.5 c 128,-1,40
 284 723 284 723 269 723 c 0,41,42
 248 723 248 723 225 717 c 128,-1,43
 202 711 202 711 167 700 c 0,44,45
 142 692 142 692 125 675.5 c 128,-1,46
 108 659 108 659 97 642 c 0,47,48
 84 622 84 622 75 599 c 0,49,50
 68 579 68 579 40 580 c 1,51,52
 31 583 31 583 25.5 591.5 c 128,-1,53
 20 600 20 600 22 615 c 0,54,55
 22 617 22 617 29 635 c 128,-1,56
 36 653 36 653 51.5 675.5 c 128,-1,57
 67 698 67 698 92 720.5 c 128,-1,58
 117 743 117 743 153 754 c 0,59,60
 188 765 188 765 215 771.5 c 128,-1,61
 242 778 242 778 269 778 c 0,62,63
 288 778 288 778 309.5 774 c 128,-1,64
 331 770 331 770 358 761 c 0,65,66
 413 742 413 742 443.5 712.5 c 128,-1,67
 474 683 474 683 487.5 651 c 128,-1,68
 501 619 501 619 503.5 586.5 c 128,-1,69
 506 554 506 554 506 529 c 0,70,71
 506 490 506 490 490 459 c 128,-1,72
 474 428 474 428 447.5 401.5 c 128,-1,73
 421 375 421 375 387.5 352.5 c 128,-1,74
 354 330 354 330 320 308 c 0,75,76
 287 286 287 286 254 264 c 128,-1,77
 221 242 221 242 195 216 c 0,78,79
 159 181 159 181 141 139 c 128,-1,80
 123 97 123 97 119 37 c 1,81,82
 132 38 132 38 155 40.5 c 128,-1,83
 178 43 178 43 207 45.5 c 128,-1,84
 236 48 236 48 268.5 49.5 c 128,-1,85
 301 51 301 51 334 51 c 2,86,-1
 348 51 l 1,87,88
 430 49 430 49 478 41.5 c 128,-1,89
 526 34 526 34 528 34 c 0,0,1
EndSplineSet
EndChar

StartChar: three
Encoding: 51 51 40
Width: 577
Flags: W
LayerCount: 2
Fore
SplineSet
304 495 m 1,0,1
 336 490 336 490 362.5 479.5 c 128,-1,2
 389 469 389 469 411 455.5 c 128,-1,3
 433 442 433 442 450.5 427 c 128,-1,4
 468 412 468 412 481 397 c 0,5,6
 521 353 521 353 538.5 306 c 128,-1,7
 556 259 556 259 556 227 c 2,8,-1
 556 215 l 1,9,-1
 554 200 l 2,10,11
 551 174 551 174 546 144.5 c 128,-1,12
 541 115 541 115 524 87 c 128,-1,13
 507 59 507 59 474.5 34.5 c 128,-1,14
 442 10 442 10 385 -6 c 0,15,16
 356 -14 356 -14 332.5 -17.5 c 128,-1,17
 309 -21 309 -21 289 -21 c 0,18,19
 258 -21 258 -21 227.5 -14 c 128,-1,20
 197 -7 197 -7 155 4 c 0,21,22
 116 14 116 14 88.5 36 c 128,-1,23
 61 58 61 58 44 81 c 128,-1,24
 27 104 27 104 19 123.5 c 128,-1,25
 11 143 11 143 10 148 c 1,26,27
 10 157 10 157 16 164 c 128,-1,28
 22 171 22 171 38 176 c 1,29,30
 47 176 47 176 54.5 171 c 128,-1,31
 62 166 62 166 65 157 c 0,32,33
 74 134 74 134 89 115 c 0,34,35
 102 98 102 98 122.5 81.5 c 128,-1,36
 143 65 143 65 172 57 c 0,37,38
 211 46 211 46 237 40.5 c 128,-1,39
 263 35 263 35 289 35 c 0,40,41
 322 35 322 35 370 48 c 0,42,43
 413 60 413 60 437.5 77 c 128,-1,44
 462 94 462 94 474.5 114.5 c 128,-1,45
 487 135 487 135 491 158.5 c 128,-1,46
 495 182 495 182 498 206 c 2,47,-1
 500 227 l 1,48,49
 500 249 500 249 486 286 c 128,-1,50
 472 323 472 323 439 359 c 0,51,52
 426 374 426 374 408.5 389 c 128,-1,53
 391 404 391 404 367.5 416 c 128,-1,54
 344 428 344 428 315 435.5 c 128,-1,55
 286 443 286 443 250 443 c 0,56,57
 248 443 248 443 245 444 c 128,-1,58
 242 445 242 445 234 449 c 1,59,-1
 226 456 l 2,60,61
 226 457 226 457 225.5 458.5 c 128,-1,62
 225 460 225 460 223 466 c 0,63,64
 222 467 222 467 222 468.5 c 128,-1,65
 222 470 222 470 223 477 c 0,66,67
 223 478 223 478 223.5 479.5 c 128,-1,68
 224 481 224 481 228 488 c 0,69,70
 242 507 242 507 260.5 531 c 128,-1,71
 279 555 279 555 300 581 c 0,72,73
 324 610 324 610 348 640.5 c 128,-1,74
 372 671 372 671 390 696 c 1,75,76
 369 698 369 698 341.5 699.5 c 128,-1,77
 314 701 314 701 281 701 c 0,78,79
 242 701 242 701 201 698 c 128,-1,80
 160 695 160 695 125.5 692 c 128,-1,81
 91 689 91 689 68.5 686 c 128,-1,82
 46 683 46 683 44 683 c 0,83,84
 33 683 33 683 25.5 690 c 128,-1,85
 18 697 18 697 16 711 c 1,86,87
 16 722 16 722 22.5 729 c 128,-1,88
 29 736 29 736 40 738 c 0,89,90
 42 738 42 738 64.5 741 c 128,-1,91
 87 744 87 744 121.5 747.5 c 128,-1,92
 156 751 156 751 198 754 c 128,-1,93
 240 757 240 757 281 757 c 0,94,95
 330 757 330 757 367.5 754 c 128,-1,96
 405 751 405 751 428 748 c 1,97,98
 434 753 434 753 444 753 c 0,99,100
 450 753 450 753 458 750 c 1,101,102
 460 748 460 748 462.5 746 c 128,-1,103
 465 744 465 744 467 741 c 1,104,105
 484 734 484 734 484 710 c 1,106,107
 479 688 479 688 453 688 c 1,108,109
 435 661 435 661 405.5 623 c 128,-1,110
 376 585 376 585 344 546 c 0,111,112
 333 532 333 532 323 519.5 c 128,-1,113
 313 507 313 507 304 495 c 1,0,1
EndSplineSet
EndChar

StartChar: four
Encoding: 52 52 41
Width: 550
Flags: W
LayerCount: 2
Fore
SplineSet
502 333 m 0,0,1
 524 328 524 328 524 300 c 1,2,3
 519 278 519 278 491 278 c 0,4,5
 490 278 490 278 481 280 c 128,-1,6
 472 282 472 282 455 284 c 1,7,8
 458 241 458 241 462.5 193.5 c 128,-1,9
 467 146 467 146 471 106.5 c 128,-1,10
 475 67 475 67 478 40 c 128,-1,11
 481 13 481 13 481 11 c 0,12,13
 481 0 481 0 474 -7.5 c 128,-1,14
 467 -15 467 -15 453 -17 c 1,15,16
 442 -17 442 -17 434.5 -10 c 128,-1,17
 427 -3 427 -3 426 8 c 0,18,19
 426 11 426 11 423 39.5 c 128,-1,20
 420 68 420 68 415.5 109 c 128,-1,21
 411 150 411 150 406.5 198 c 128,-1,22
 402 246 402 246 398 289 c 1,23,24
 381 290 381 290 362 291 c 128,-1,25
 343 292 343 292 321 292 c 0,26,27
 282 292 282 292 241 289 c 128,-1,28
 200 286 200 286 165.5 282.5 c 128,-1,29
 131 279 131 279 108 276 c 128,-1,30
 85 273 85 273 82 273 c 0,31,32
 70 273 70 273 62 281 c 128,-1,33
 54 289 54 289 54 301 c 0,34,35
 54 332 54 332 51.5 379 c 128,-1,36
 49 426 49 426 45 475.5 c 128,-1,37
 41 525 41 525 36 570 c 128,-1,38
 31 615 31 615 26 642 c 1,39,40
 26 664 26 664 54 670 c 1,41,42
 64 670 64 670 71.5 663.5 c 128,-1,43
 79 657 79 657 81 647 c 0,44,45
 86 623 86 623 90.5 583 c 128,-1,46
 95 543 95 543 98.5 498.5 c 128,-1,47
 102 454 102 454 105 410 c 128,-1,48
 108 366 108 366 109 332 c 1,49,50
 126 334 126 334 150 337 c 128,-1,51
 174 340 174 340 202.5 342.5 c 128,-1,52
 231 345 231 345 261.5 346.5 c 128,-1,53
 292 348 292 348 321 348 c 0,54,55
 362 348 362 348 394 345 c 1,56,57
 393 359 393 359 393 370 c 128,-1,58
 393 381 393 381 393 389 c 0,59,60
 393 420 393 420 390.5 467 c 128,-1,61
 388 514 388 514 384 563.5 c 128,-1,62
 380 613 380 613 375 658 c 128,-1,63
 370 703 370 703 365 730 c 1,64,65
 365 740 365 740 372 748 c 128,-1,66
 379 756 379 756 393 758 c 1,67,68
 403 758 403 758 410.5 752 c 128,-1,69
 418 746 418 746 420 736 c 0,70,71
 426 708 426 708 431 661.5 c 128,-1,72
 436 615 436 615 440 564 c 128,-1,73
 444 513 444 513 446.5 465.5 c 128,-1,74
 449 418 449 418 449 389 c 0,75,76
 449 381 449 381 449.5 368.5 c 128,-1,77
 450 356 450 356 451 341 c 1,78,79
 474 338 474 338 487 335.5 c 128,-1,80
 500 333 500 333 502 333 c 0,0,1
EndSplineSet
EndChar

StartChar: five
Encoding: 53 53 42
Width: 604
Flags: W
LayerCount: 2
Fore
SplineSet
398 482 m 0,0,1
 441 470 441 470 473.5 443.5 c 128,-1,2
 506 417 506 417 528 383 c 128,-1,3
 550 349 550 349 561.5 312 c 128,-1,4
 573 275 573 275 573 243 c 0,5,6
 573 238 573 238 573 234 c 128,-1,7
 573 230 573 230 572 226 c 2,8,-1
 571 211 l 1,9,10
 568 185 568 185 563 155.5 c 128,-1,11
 558 126 558 126 541.5 98 c 128,-1,12
 525 70 525 70 493 45.5 c 128,-1,13
 461 21 461 21 406 5 c 0,14,15
 378 -3 378 -3 355.5 -6.5 c 128,-1,16
 333 -10 333 -10 313 -10 c 0,17,18
 283 -10 283 -10 254 -3 c 128,-1,19
 225 4 225 4 183 15 c 0,20,21
 145 25 145 25 118.5 47 c 128,-1,22
 92 69 92 69 75.5 92.5 c 128,-1,23
 59 116 59 116 51 135 c 128,-1,24
 43 154 43 154 42 159 c 1,25,26
 42 168 42 168 48.5 175.5 c 128,-1,27
 55 183 55 183 70 187 c 1,28,29
 79 187 79 187 86.5 182 c 128,-1,30
 94 177 94 177 97 168 c 1,31,-1
 103 155 l 2,32,33
 108 142 108 142 120.5 125.5 c 128,-1,34
 133 109 133 109 152.5 92.5 c 128,-1,35
 172 76 172 76 200 68 c 0,36,37
 238 57 238 57 263.5 51.5 c 128,-1,38
 289 46 289 46 313 46 c 0,39,40
 345 46 345 46 391 59 c 0,41,42
 433 71 433 71 456.5 88 c 128,-1,43
 480 105 480 105 492 125.5 c 128,-1,44
 504 146 504 146 508 169.5 c 128,-1,45
 512 193 512 193 515 217 c 2,46,-1
 517 232 l 1,47,-1
 517 242 l 2,48,49
 517 263 517 263 509 291.5 c 128,-1,50
 501 320 501 320 484.5 347 c 128,-1,51
 468 374 468 374 442.5 396.5 c 128,-1,52
 417 419 417 419 383 428 c 0,53,54
 359 435 359 435 333.5 438 c 128,-1,55
 308 441 308 441 282 441 c 0,56,57
 229 441 229 441 182.5 431.5 c 128,-1,58
 136 422 136 422 109 411 c 0,59,60
 106 409 106 409 99 409 c 0,61,62
 97 409 97 409 94 409 c 128,-1,63
 91 409 91 409 83 408 c 1,64,65
 72 408 72 408 64 416 c 128,-1,66
 56 424 56 424 55 435 c 0,67,68
 53 465 53 465 50.5 499 c 128,-1,69
 48 533 48 533 45 566 c 128,-1,70
 42 599 42 599 38.5 628.5 c 128,-1,71
 35 658 35 658 31 679 c 1,72,73
 31 686 31 686 33.5 692.5 c 128,-1,74
 36 699 36 699 41 707 c 1,75,76
 41 717 41 717 47.5 724.5 c 128,-1,77
 54 732 54 732 65 734 c 0,78,79
 67 734 67 734 88.5 737 c 128,-1,80
 110 740 110 740 143 743.5 c 128,-1,81
 176 747 176 747 216.5 750 c 128,-1,82
 257 753 257 753 296 753 c 0,83,84
 374 753 374 753 420.5 746 c 128,-1,85
 467 739 467 739 469 739 c 0,86,87
 479 737 479 737 485 728 c 128,-1,88
 491 719 491 719 490 705 c 1,89,90
 485 683 485 683 457 684 c 0,91,92
 456 684 456 684 412.5 690.5 c 128,-1,93
 369 697 369 697 296 697 c 0,94,95
 266 697 266 697 234.5 695 c 128,-1,96
 203 693 203 693 174.5 690.5 c 128,-1,97
 146 688 146 688 123 685.5 c 128,-1,98
 100 683 100 683 87 681 c 1,99,100
 90 663 90 663 93.5 639 c 128,-1,101
 97 615 97 615 99.5 587 c 128,-1,102
 102 559 102 559 104.5 529 c 128,-1,103
 107 499 107 499 109 470 c 1,104,105
 141 481 141 481 186 489 c 128,-1,106
 231 497 231 497 282 497 c 0,107,108
 311 497 311 497 340 493.5 c 128,-1,109
 369 490 369 490 398 482 c 0,0,1
EndSplineSet
EndChar

StartChar: six
Encoding: 54 54 43
Width: 652
Flags: W
LayerCount: 2
Fore
SplineSet
454 70 m 0,0,1
 507 98 507 98 537 142.5 c 128,-1,2
 567 187 567 187 567 244 c 0,3,4
 567 256 567 256 565.5 268 c 128,-1,5
 564 280 564 280 562 292 c 0,6,7
 549 346 549 346 515 385 c 128,-1,8
 481 424 481 424 426 438 c 0,9,10
 392 446 392 446 356 446 c 0,11,12
 317 446 317 446 276.5 436.5 c 128,-1,13
 236 427 236 427 203 406.5 c 128,-1,14
 170 386 170 386 148 355.5 c 128,-1,15
 126 325 126 325 123 283 c 0,16,17
 122 272 122 272 115 265.5 c 128,-1,18
 108 259 108 259 100 257 c 1,19,20
 109 214 109 214 127 176 c 128,-1,21
 145 138 145 138 175 111 c 0,22,23
 210 79 210 79 255 61 c 128,-1,24
 300 43 300 43 348 43 c 0,25,26
 375 43 375 43 401.5 49.5 c 128,-1,27
 428 56 428 56 454 70 c 0,0,1
474 480 m 0,28,29
 511 465 511 465 539 441 c 128,-1,30
 567 417 567 417 585 387.5 c 128,-1,31
 603 358 603 358 612 324 c 128,-1,32
 621 290 621 290 621 256 c 0,33,34
 621 218 621 218 611 181.5 c 128,-1,35
 601 145 601 145 580.5 112.5 c 128,-1,36
 560 80 560 80 530.5 54 c 128,-1,37
 501 28 501 28 462 12 c 0,38,39
 433 0 433 0 402.5 -5.5 c 128,-1,40
 372 -11 372 -11 342 -11 c 0,41,42
 279 -11 279 -11 221.5 12.5 c 128,-1,43
 164 36 164 36 122 85 c 0,44,45
 98 113 98 113 80.5 147 c 128,-1,46
 63 181 63 181 52 218.5 c 128,-1,47
 41 256 41 256 36 295.5 c 128,-1,48
 31 335 31 335 31 374 c 0,49,50
 31 428 31 428 40 476 c 0,51,52
 48 523 48 523 64 564 c 128,-1,53
 80 605 80 605 105.5 637.5 c 128,-1,54
 131 670 131 670 167 693 c 128,-1,55
 203 716 203 716 251 728 c 0,56,57
 273 733 273 733 295 735.5 c 128,-1,58
 317 738 317 738 339 738 c 0,59,60
 399 738 399 738 452.5 714.5 c 128,-1,61
 506 691 506 691 541 636 c 0,62,63
 546 630 546 630 546 621 c 0,64,65
 546 610 546 610 536.5 602.5 c 128,-1,66
 527 595 527 595 516 595 c 0,67,68
 502 595 502 595 493 608 c 0,69,70
 467 649 467 649 425.5 666.5 c 128,-1,71
 384 684 384 684 338 684 c 0,72,73
 285 684 285 684 237 664 c 0,74,75
 199 649 199 649 172.5 625.5 c 128,-1,76
 146 602 146 602 128.5 571.5 c 128,-1,77
 111 541 111 541 102 505 c 128,-1,78
 93 469 93 469 90 430 c 0,79,80
 89 418 89 418 88.5 405 c 128,-1,81
 88 392 88 392 88 378 c 2,82,-1
 88 362 l 1,83,84
 106 396 106 396 134.5 422.5 c 128,-1,85
 163 449 163 449 198.5 466.5 c 128,-1,86
 234 484 234 484 274 493 c 128,-1,87
 314 502 314 502 354 502 c 0,88,89
 386 502 386 502 416 496.5 c 128,-1,90
 446 491 446 491 474 480 c 0,28,29
EndSplineSet
EndChar

StartChar: seven
Encoding: 55 55 44
Width: 499
Flags: W
LayerCount: 2
Fore
SplineSet
420 739 m 0,0,1
 442 734 442 734 442 702 c 1,2,3
 437 673 437 673 425 627.5 c 128,-1,4
 413 582 413 582 398 533.5 c 128,-1,5
 383 485 383 485 368 440.5 c 128,-1,6
 353 396 353 396 343 369 c 0,7,8
 336 351 336 351 325.5 317.5 c 128,-1,9
 315 284 315 284 303 244 c 128,-1,10
 291 204 291 204 279.5 162.5 c 128,-1,11
 268 121 268 121 258 87 c 128,-1,12
 248 53 248 53 242 31 c 128,-1,13
 236 9 236 9 236 8 c 0,14,15
 234 -1 234 -1 225.5 -7 c 128,-1,16
 217 -13 217 -13 202 -12 c 1,17,18
 193 -9 193 -9 187 -0.5 c 128,-1,19
 181 8 181 8 182 23 c 0,20,21
 183 26 183 26 189.5 49 c 128,-1,22
 196 72 196 72 205.5 106.5 c 128,-1,23
 215 141 215 141 227 182.5 c 128,-1,24
 239 224 239 224 250.5 263.5 c 128,-1,25
 262 303 262 303 272.5 336.5 c 128,-1,26
 283 370 283 370 291 389 c 0,27,28
 301 415 301 415 314 454 c 128,-1,29
 327 493 327 493 339.5 535 c 128,-1,30
 352 577 352 577 363.5 618 c 128,-1,31
 375 659 375 659 382 688 c 1,32,33
 361 691 361 691 324.5 694 c 128,-1,34
 288 697 288 697 240 697 c 0,35,36
 201 697 201 697 160 694 c 128,-1,37
 119 691 119 691 84.5 688 c 128,-1,38
 50 685 50 685 27 682 c 128,-1,39
 4 679 4 679 2 679 c 0,40,41
 -8 679 -8 679 -16 686 c 128,-1,42
 -24 693 -24 693 -26 707 c 1,43,44
 -26 717 -26 717 -19.5 724.5 c 128,-1,45
 -13 732 -13 732 -2 734 c 0,46,47
 0 734 0 734 23 737 c 128,-1,48
 46 740 46 740 80.5 743.5 c 128,-1,49
 115 747 115 747 157 750 c 128,-1,50
 199 753 199 753 240 753 c 0,51,52
 321 753 321 753 369.5 746 c 128,-1,53
 418 739 418 739 420 739 c 0,0,1
EndSplineSet
EndChar

StartChar: eight
Encoding: 56 56 45
Width: 642
Flags: W
LayerCount: 2
Fore
SplineSet
550 220 m 2,0,1
 550 236 550 236 540.5 260 c 128,-1,2
 531 284 531 284 512 306.5 c 128,-1,3
 493 329 493 329 465 347 c 128,-1,4
 437 365 437 365 400 371 c 0,5,6
 385 373 385 373 369.5 374 c 128,-1,7
 354 375 354 375 339 375 c 0,8,9
 273 375 273 375 217.5 353 c 128,-1,10
 162 331 162 331 130 292 c 0,11,12
 102 258 102 258 102 225 c 0,13,14
 102 217 102 217 103 213 c 0,15,16
 108 188 108 188 118.5 163 c 128,-1,17
 129 138 129 138 146.5 116.5 c 128,-1,18
 164 95 164 95 187.5 79.5 c 128,-1,19
 211 64 211 64 243 59 c 0,20,21
 276 54 276 54 299 50.5 c 128,-1,22
 322 47 322 47 343 47 c 0,23,24
 365 47 365 47 387 51.5 c 128,-1,25
 409 56 409 56 439 65 c 0,26,27
 480 78 480 78 502 94 c 128,-1,28
 524 110 524 110 534.5 127.5 c 128,-1,29
 545 145 545 145 547.5 164.5 c 128,-1,30
 550 184 550 184 550 205 c 2,31,-1
 550 220 l 2,0,1
122 566 m 1,32,33
 126 546 126 546 134.5 525.5 c 128,-1,34
 143 505 143 505 156.5 487.5 c 128,-1,35
 170 470 170 470 189 457.5 c 128,-1,36
 208 445 208 445 234 441 c 0,37,38
 261 436 261 436 280 434 c 128,-1,39
 299 432 299 432 316 432 c 0,40,41
 334 432 334 432 352 435 c 128,-1,42
 370 438 370 438 394 446 c 0,43,44
 427 457 427 457 445 469.5 c 128,-1,45
 463 482 463 482 471.5 496 c 128,-1,46
 480 510 480 510 481.5 525.5 c 128,-1,47
 483 541 483 541 484 558 c 1,48,-1
 484 570 l 2,49,50
 484 583 484 583 476.5 602 c 128,-1,51
 469 621 469 621 453.5 639 c 128,-1,52
 438 657 438 657 415.5 671.5 c 128,-1,53
 393 686 393 686 363 691 c 0,54,55
 350 693 350 693 337.5 694 c 128,-1,56
 325 695 325 695 313 695 c 0,57,58
 259 695 259 695 214 677 c 128,-1,59
 169 659 169 659 143 627 c 1,60,61
 121 602 121 602 122 566 c 1,32,33
458 413 m 1,62,63
 493 399 493 399 520.5 376 c 128,-1,64
 548 353 548 353 567 326 c 128,-1,65
 586 299 586 299 596 270 c 128,-1,66
 606 241 606 241 606 216 c 2,67,-1
 606 204 l 1,68,69
 605 181 605 181 602.5 155 c 128,-1,70
 600 129 600 129 585.5 103 c 128,-1,71
 571 77 571 77 541 53.5 c 128,-1,72
 511 30 511 30 456 12 c 0,73,74
 422 1 422 1 395.5 -4 c 128,-1,75
 369 -9 369 -9 343 -9 c 0,76,77
 319 -9 319 -9 293 -5 c 128,-1,78
 267 -1 267 -1 232 4 c 0,79,80
 190 11 190 11 158.5 31 c 128,-1,81
 127 51 127 51 104.5 78.5 c 128,-1,82
 82 106 82 106 68 138.5 c 128,-1,83
 54 171 54 171 48 203 c 0,84,85
 47 208 47 208 46.5 214 c 128,-1,86
 46 220 46 220 46 226 c 0,87,88
 46 278 46 278 87 327 c 1,89,90
 123 372 123 372 181 398 c 1,91,92
 156 409 156 409 136.5 426.5 c 128,-1,93
 117 444 117 444 103 465 c 128,-1,94
 89 486 89 486 80 509 c 128,-1,95
 71 532 71 532 67 555 c 1,96,97
 65 560 65 560 65 565 c 128,-1,98
 65 570 65 570 65 575 c 0,99,100
 65 620 65 620 99 662 c 0,101,102
 134 704 134 704 191 727.5 c 128,-1,103
 248 751 248 751 315 751 c 0,104,105
 329 751 329 751 343 749.5 c 128,-1,106
 357 748 357 748 372 746 c 0,107,108
 412 740 412 740 443 720.5 c 128,-1,109
 474 701 474 701 495.5 675 c 128,-1,110
 517 649 517 649 528.5 620.5 c 128,-1,111
 540 592 540 592 540 567 c 2,112,-1
 540 557 l 2,113,114
 540 541 540 541 538 522.5 c 128,-1,115
 536 504 536 504 528 485 c 128,-1,116
 520 466 520 466 504 447.5 c 128,-1,117
 488 429 488 429 458 413 c 1,62,63
EndSplineSet
EndChar

StartChar: nine
Encoding: 57 57 46
Width: 659
Flags: W
LayerCount: 2
Fore
SplineSet
525 442 m 0,0,1
 526 453 526 453 533 459.5 c 128,-1,2
 540 466 540 466 548 468 c 1,3,4
 539 510 539 510 521 547 c 128,-1,5
 503 584 503 584 473 611 c 0,6,7
 436 643 436 643 391 661 c 128,-1,8
 346 679 346 679 298 679 c 0,9,10
 251 679 251 679 204 660 c 0,11,12
 145 635 145 635 109.5 588 c 128,-1,13
 74 541 74 541 74 481 c 0,14,15
 74 470 74 470 75.5 458.5 c 128,-1,16
 77 447 77 447 79 435 c 0,17,18
 92 381 92 381 127 343 c 128,-1,19
 162 305 162 305 217 291 c 0,20,21
 234 286 234 286 252 284.5 c 128,-1,22
 270 283 270 283 290 283 c 0,23,24
 329 283 329 283 369.5 292 c 128,-1,25
 410 301 410 301 443.5 320.5 c 128,-1,26
 477 340 477 340 499.5 370 c 128,-1,27
 522 400 522 400 525 442 c 0,0,1
189 714 m 0,28,29
 216 724 216 724 244.5 728.5 c 128,-1,30
 273 733 273 733 302 733 c 0,31,32
 365 733 365 733 423.5 709.5 c 128,-1,33
 482 686 482 686 526 637 c 0,34,35
 550 610 550 610 567.5 576.5 c 128,-1,36
 585 543 585 543 596.5 506 c 128,-1,37
 608 469 608 469 613 430 c 128,-1,38
 618 391 618 391 618 352 c 0,39,40
 618 320 618 320 615 290 c 128,-1,41
 612 260 612 260 605 232 c 0,42,43
 585 141 585 141 532 81 c 128,-1,44
 479 21 479 21 385 2 c 0,45,46
 365 -2 365 -2 346 -4 c 128,-1,47
 327 -6 327 -6 307 -6 c 0,48,49
 245 -6 245 -6 191 17 c 128,-1,50
 137 40 137 40 100 95 c 0,51,52
 95 103 95 103 95 110 c 0,53,54
 95 121 95 121 104.5 128.5 c 128,-1,55
 114 136 114 136 125 136 c 0,56,57
 140 136 140 136 148 124 c 0,58,59
 175 83 175 83 217.5 65.5 c 128,-1,60
 260 48 260 48 307 48 c 0,61,62
 334 48 334 48 361.5 53.5 c 128,-1,63
 389 59 389 59 414 69 c 0,64,65
 451 83 451 83 477 106 c 128,-1,66
 503 129 503 129 520.5 159 c 128,-1,67
 538 189 538 189 547 224 c 128,-1,68
 556 259 556 259 559 297 c 0,69,70
 560 309 560 309 560 321.5 c 128,-1,71
 560 334 560 334 560 348 c 2,72,-1
 560 365 l 1,73,74
 543 330 543 330 514 304 c 128,-1,75
 485 278 485 278 449 260.5 c 128,-1,76
 413 243 413 243 372.5 234 c 128,-1,77
 332 225 332 225 291 225 c 0,78,79
 222 225 222 225 162 251 c 1,80,81
 90 284 90 284 55 344.5 c 128,-1,82
 20 405 20 405 20 472 c 0,83,84
 20 510 20 510 31 547 c 128,-1,85
 42 584 42 584 63.5 616 c 128,-1,86
 85 648 85 648 116.5 673.5 c 128,-1,87
 148 699 148 699 189 714 c 0,28,29
EndSplineSet
EndChar

StartChar: colon
Encoding: 58 58 47
Width: 166
Flags: W
LayerCount: 2
Fore
SplineSet
91 367 m 0,0,1
 107 367 107 367 118.5 355.5 c 128,-1,2
 130 344 130 344 130 328 c 0,3,4
 130 311 130 311 118.5 299.5 c 128,-1,5
 107 288 107 288 91 288 c 0,6,7
 74 288 74 288 62.5 299.5 c 128,-1,8
 51 311 51 311 51 328 c 0,9,10
 51 344 51 344 62.5 355.5 c 128,-1,11
 74 367 74 367 91 367 c 0,0,1
91 55 m 0,12,13
 107 55 107 55 118.5 43.5 c 128,-1,14
 130 32 130 32 130 15 c 256,15,16
 130 -2 130 -2 118.5 -13 c 128,-1,17
 107 -24 107 -24 91 -24 c 0,18,19
 74 -24 74 -24 62.5 -13 c 128,-1,20
 51 -2 51 -2 51 15 c 256,21,22
 51 32 51 32 62.5 43.5 c 128,-1,23
 74 55 74 55 91 55 c 0,12,13
EndSplineSet
EndChar

StartChar: semicolon
Encoding: 59 59 48
Width: 173
Flags: W
LayerCount: 2
Fore
SplineSet
103 121 m 1,0,1
 114 119 114 119 120 110.5 c 128,-1,2
 126 102 126 102 125 88 c 1,3,4
 120 66 120 66 116 26 c 128,-1,5
 112 -14 112 -14 107 -66 c 0,6,7
 106 -77 106 -77 98 -84.5 c 128,-1,8
 90 -92 90 -92 77 -91 c 0,9,10
 66 -91 66 -91 58.5 -82.5 c 128,-1,11
 51 -74 51 -74 51 -61 c 0,12,13
 52 -46 52 -46 54.5 -25 c 128,-1,14
 57 -4 57 -4 59 18.5 c 128,-1,15
 61 41 61 41 64 62 c 128,-1,16
 67 83 67 83 70 99 c 0,17,18
 72 110 72 110 80.5 116 c 128,-1,19
 89 122 89 122 103 121 c 1,0,1
98 367 m 256,20,21
 115 367 115 367 126 355.5 c 128,-1,22
 137 344 137 344 137 328 c 0,23,24
 137 311 137 311 126 299.5 c 128,-1,25
 115 288 115 288 98 288 c 256,26,27
 81 288 81 288 69.5 299.5 c 128,-1,28
 58 311 58 311 58 328 c 0,29,30
 58 344 58 344 69.5 355.5 c 128,-1,31
 81 367 81 367 98 367 c 256,20,21
EndSplineSet
EndChar

StartChar: less
Encoding: 60 60 49
Width: 469
Flags: W
LayerCount: 2
Fore
SplineSet
421 536 m 2,0,1
 431 536 431 536 438.5 529 c 128,-1,2
 446 522 446 522 448 508 c 1,3,4
 448 498 448 498 442 490.5 c 128,-1,5
 436 483 436 483 425 481 c 2,6,-1
 413 479 l 2,7,8
 401 476 401 476 379.5 470 c 128,-1,9
 358 464 358 464 328 454.5 c 128,-1,10
 298 445 298 445 262 431 c 0,11,12
 220 415 220 415 178 395 c 128,-1,13
 136 375 136 375 104 358 c 1,14,15
 138 344 138 344 182 323.5 c 128,-1,16
 226 303 226 303 268 280 c 0,17,18
 340 241 340 241 379 211.5 c 128,-1,19
 418 182 418 182 420 180 c 0,20,21
 429 172 429 172 429 159 c 0,22,23
 429 148 429 148 423 141 c 0,24,25
 413 131 413 131 401 131 c 0,26,27
 391 131 391 131 383 138 c 0,28,29
 367 151 367 151 346 166 c 0,30,31
 328 179 328 179 301.5 195.5 c 128,-1,32
 275 212 275 212 241 231 c 256,33,34
 207 250 207 250 169.5 267.5 c 128,-1,35
 132 285 132 285 100.5 298.5 c 128,-1,36
 69 312 69 312 47.5 320.5 c 128,-1,37
 26 329 26 329 24 330 c 256,38,39
 22 331 22 331 20.5 332.5 c 128,-1,40
 19 334 19 334 14 339 c 1,41,-1
 11 349 l 2,42,43
 10 350 10 350 10 351.5 c 128,-1,44
 10 353 10 353 11 360 c 1,45,-1
 15 370 l 2,46,47
 16 371 16 371 17 372 c 128,-1,48
 18 373 18 373 24 378 c 0,49,50
 26 379 26 379 46 390 c 128,-1,51
 66 401 66 401 97 417 c 128,-1,52
 128 433 128 433 166 451 c 128,-1,53
 204 469 204 469 242 484 c 0,54,55
 318 513 318 513 366 524 c 128,-1,56
 414 535 414 535 416 536 c 1,57,-1
 421 536 l 2,0,1
EndSplineSet
EndChar

StartChar: equal
Encoding: 61 61 50
Width: 540
Flags: W
LayerCount: 2
Fore
SplineSet
482 254 m 0,0,1
 504 249 504 249 503 221 c 1,2,3
 500 199 500 199 470 199 c 1,4,5
 450 202 450 202 424 206 c 1,6,7
 402 208 402 208 370.5 210.5 c 128,-1,8
 339 213 339 213 301 213 c 0,9,10
 262 213 262 213 221 210 c 128,-1,11
 180 207 180 207 145.5 203.5 c 128,-1,12
 111 200 111 200 88.5 197 c 128,-1,13
 66 194 66 194 64 194 c 0,14,15
 53 194 53 194 45.5 201 c 128,-1,16
 38 208 38 208 36 222 c 1,17,18
 36 233 36 233 42.5 240.5 c 128,-1,19
 49 248 49 248 60 250 c 0,20,21
 62 250 62 250 84.5 253 c 128,-1,22
 107 256 107 256 141.5 259.5 c 128,-1,23
 176 263 176 263 218 266 c 128,-1,24
 260 269 260 269 301 269 c 0,25,26
 383 269 383 269 431.5 262 c 128,-1,27
 480 255 480 255 482 254 c 0,0,1
482 442 m 0,28,29
 504 437 504 437 503 409 c 1,30,31
 500 387 500 387 470 387 c 1,32,33
 450 390 450 390 424 394 c 1,34,35
 402 396 402 396 370.5 398.5 c 128,-1,36
 339 401 339 401 301 401 c 0,37,38
 262 401 262 401 221 398 c 128,-1,39
 180 395 180 395 145.5 391.5 c 128,-1,40
 111 388 111 388 88.5 385 c 128,-1,41
 66 382 66 382 64 382 c 0,42,43
 53 382 53 382 45.5 389 c 128,-1,44
 38 396 38 396 36 410 c 1,45,46
 36 421 36 421 42.5 428.5 c 128,-1,47
 49 436 49 436 60 438 c 0,48,49
 62 438 62 438 84.5 441 c 128,-1,50
 107 444 107 444 141.5 447.5 c 128,-1,51
 176 451 176 451 218 454 c 128,-1,52
 260 457 260 457 301 457 c 0,53,54
 383 457 383 457 431.5 450 c 128,-1,55
 480 443 480 443 482 442 c 0,28,29
EndSplineSet
EndChar

StartChar: greater
Encoding: 62 62 51
Width: 469
Flags: W
LayerCount: 2
Fore
SplineSet
43 536 m 2,0,1
 44 536 44 536 57 533 c 128,-1,2
 70 530 70 530 93 524 c 128,-1,3
 116 518 116 518 147.5 508.5 c 128,-1,4
 179 499 179 499 217 484 c 0,5,6
 254 469 254 469 292.5 451 c 128,-1,7
 331 433 331 433 361.5 417 c 128,-1,8
 392 401 392 401 412 390 c 128,-1,9
 432 379 432 379 434 378 c 2,10,-1
 442 372 l 1,11,-1
 447 363 l 1,12,-1
 448 352 l 1,13,-1
 445 341 l 1,14,15
 440 334 440 334 438.5 332.5 c 128,-1,16
 437 331 437 331 435 330 c 256,17,18
 433 329 433 329 411.5 320.5 c 128,-1,19
 390 312 390 312 358 298.5 c 128,-1,20
 326 285 326 285 288.5 267.5 c 128,-1,21
 251 250 251 250 217 231 c 0,22,23
 149 194 149 194 112.5 166 c 128,-1,24
 76 138 76 138 75 138 c 0,25,26
 68 131 68 131 57 131 c 256,27,28
 46 131 46 131 36 141 c 0,29,30
 29 148 29 148 29 159 c 0,31,32
 29 172 29 172 39 180 c 0,33,34
 41 182 41 182 79.5 211.5 c 128,-1,35
 118 241 118 241 190 280 c 0,36,37
 232 303 232 303 276.5 323.5 c 128,-1,38
 321 344 321 344 355 358 c 1,39,40
 323 375 323 375 280.5 395 c 128,-1,41
 238 415 238 415 196 431 c 0,42,43
 160 445 160 445 130.5 454.5 c 128,-1,44
 101 464 101 464 79.5 470 c 128,-1,45
 58 476 58 476 46 479 c 2,46,-1
 34 481 l 2,47,48
 23 483 23 483 16.5 490.5 c 128,-1,49
 10 498 10 498 10 508 c 1,50,51
 12 522 12 522 20 529 c 128,-1,52
 28 536 28 536 38 536 c 2,53,-1
 43 536 l 2,0,1
EndSplineSet
EndChar

StartChar: question
Encoding: 63 63 52
Width: 506
Flags: W
LayerCount: 2
Fore
SplineSet
263 73 m 2,0,1
 279 73 279 73 290 62 c 128,-1,2
 301 51 301 51 303 33 c 1,3,4
 303 18 303 18 292 6.5 c 128,-1,5
 281 -5 281 -5 263 -6 c 0,6,7
 248 -6 248 -6 236.5 5 c 128,-1,8
 225 16 225 16 224 33 c 0,9,10
 224 49 224 49 234.5 60 c 128,-1,11
 245 71 245 71 260 73 c 1,12,-1
 263 73 l 2,0,1
302 743 m 0,13,14
 358 728 358 728 390 701 c 128,-1,15
 422 674 422 674 438 642.5 c 128,-1,16
 454 611 454 611 458.5 579.5 c 128,-1,17
 463 548 463 548 465 524 c 1,18,-1
 465 512 l 2,19,20
 465 486 465 486 457.5 464.5 c 128,-1,21
 450 443 450 443 438 424.5 c 128,-1,22
 426 406 426 406 411 390 c 128,-1,23
 396 374 396 374 381 358 c 0,24,25
 363 340 363 340 345.5 320.5 c 128,-1,26
 328 301 328 301 314 278 c 128,-1,27
 300 255 300 255 291.5 226.5 c 128,-1,28
 283 198 283 198 283 161 c 0,29,30
 283 156 283 156 283.5 150 c 128,-1,31
 284 144 284 144 284 136 c 0,32,33
 284 125 284 125 276.5 117 c 128,-1,34
 269 109 269 109 256 108 c 0,35,36
 245 108 245 108 237 115.5 c 128,-1,37
 229 123 229 123 228 134 c 0,38,39
 228 141 228 141 227.5 147.5 c 128,-1,40
 227 154 227 154 227 161 c 0,41,42
 227 207 227 207 237.5 242.5 c 128,-1,43
 248 278 248 278 264.5 306 c 128,-1,44
 281 334 281 334 301.5 356 c 128,-1,45
 322 378 322 378 341 397 c 0,46,47
 355 411 355 411 367.5 424.5 c 128,-1,48
 380 438 380 438 389 452.5 c 128,-1,49
 398 467 398 467 403.5 483.5 c 128,-1,50
 409 500 409 500 409 520 c 1,51,52
 407 548 407 548 402 574.5 c 128,-1,53
 397 601 397 601 384.5 623 c 128,-1,54
 372 645 372 645 349.5 662 c 128,-1,55
 327 679 327 679 288 689 c 0,56,57
 253 698 253 698 231 698 c 0,58,59
 208 698 208 698 185 690.5 c 128,-1,60
 162 683 162 683 125 667 c 0,61,62
 102 658 102 658 86.5 640 c 128,-1,63
 71 622 71 622 62 604 c 128,-1,64
 53 586 53 586 49 573 c 2,65,-1
 45 559 l 1,66,67
 40 537 40 537 12 537 c 1,68,69
 -10 542 -10 542 -10 571 c 0,70,71
 -10 572 -10 572 -4.5 590.5 c 128,-1,72
 1 609 1 609 14 633 c 128,-1,73
 27 657 27 657 49 681.5 c 128,-1,74
 71 706 71 706 105 720 c 0,75,76
 143 736 143 736 171 745 c 128,-1,77
 199 754 199 754 230 754 c 0,78,79
 246 754 246 754 263.5 751.5 c 128,-1,80
 281 749 281 749 302 743 c 0,13,14
EndSplineSet
EndChar

StartChar: at
Encoding: 64 64 53
Width: 661
Flags: W
LayerCount: 2
Fore
SplineSet
419 377 m 1,0,1
 421 394 421 394 421.5 417 c 128,-1,2
 422 440 422 440 422 462 c 0,3,4
 422 473 422 473 422 482.5 c 128,-1,5
 422 492 422 492 420 500 c 1,6,7
 409 500 409 500 383.5 492 c 128,-1,8
 358 484 358 484 330.5 466 c 128,-1,9
 303 448 303 448 279.5 418 c 128,-1,10
 256 388 256 388 249 345 c 0,11,12
 243 309 243 309 243 286 c 256,13,14
 243 263 243 263 247 250 c 128,-1,15
 251 237 251 237 256 231 c 0,16,17
 260 226 260 226 268.5 222 c 128,-1,18
 277 218 277 218 297 218 c 0,19,20
 308 218 308 218 325 230.5 c 128,-1,21
 342 243 342 243 359.5 264.5 c 128,-1,22
 377 286 377 286 393.5 315 c 128,-1,23
 410 344 410 344 419 377 c 1,0,1
399 706 m 2,24,25
 506 706 506 706 572 642 c 1,26,27
 606 607 606 607 623.5 558.5 c 128,-1,28
 641 510 641 510 641 445 c 0,29,30
 640 379 640 379 628.5 329 c 128,-1,31
 617 279 617 279 598.5 245 c 128,-1,32
 580 211 580 211 556 193.5 c 128,-1,33
 532 176 532 176 507 173 c 1,34,35
 484 173 484 173 460.5 192 c 128,-1,36
 437 211 437 211 426 261 c 1,37,38
 398 217 398 217 363.5 189.5 c 128,-1,39
 329 162 329 162 297 162 c 0,40,41
 241 162 241 162 214 195 c 1,42,43
 187 226 187 226 187 287 c 0,44,45
 187 319 187 319 194 354 c 1,46,47
 203 408 203 408 232 446.5 c 128,-1,48
 261 485 261 485 295.5 509 c 128,-1,49
 330 533 330 533 364.5 544.5 c 128,-1,50
 399 556 399 556 420 556 c 0,51,52
 425 556 425 556 429.5 555.5 c 128,-1,53
 434 555 434 555 439 554 c 1,54,55
 441 555 441 555 443.5 555 c 128,-1,56
 446 555 446 555 450 556 c 1,57,58
 461 556 461 556 468 549 c 128,-1,59
 475 542 475 542 477 531 c 1,60,61
 491 514 491 514 497 490 c 1,62,63
 497 478 497 478 489 470 c 1,64,65
 489 456 489 456 487.5 438 c 128,-1,66
 486 420 486 420 481 395 c 0,67,68
 479 387 479 387 477.5 379.5 c 128,-1,69
 476 372 476 372 473 360 c 0,70,71
 473 356 473 356 472.5 351.5 c 128,-1,72
 472 347 472 347 472 342 c 0,73,74
 472 327 472 327 475 308 c 128,-1,75
 478 289 478 289 483 265 c 0,76,77
 486 252 486 252 492 240.5 c 128,-1,78
 498 229 498 229 508 229 c 0,79,80
 518 230 518 230 531 243.5 c 128,-1,81
 544 257 544 257 556 283.5 c 128,-1,82
 568 310 568 310 576.5 351 c 128,-1,83
 585 392 585 392 585 448 c 0,84,85
 585 551 585 551 532 602 c 0,86,87
 503 631 503 631 465.5 640.5 c 128,-1,88
 428 650 428 650 395 650 c 0,89,90
 353 649 353 649 301.5 622 c 128,-1,91
 250 595 250 595 203.5 546 c 128,-1,92
 157 497 157 497 122 429 c 128,-1,93
 87 361 87 361 78 278 c 0,94,95
 77 268 77 268 76.5 259 c 128,-1,96
 76 250 76 250 76 241 c 0,97,98
 76 159 76 159 118 116 c 0,99,100
 147 86 147 86 189.5 75.5 c 128,-1,101
 232 65 232 65 272 65 c 0,102,103
 280 65 280 65 286.5 65.5 c 128,-1,104
 293 66 293 66 300 66 c 0,105,106
 322 67 322 67 347 78 c 128,-1,107
 372 89 372 89 395.5 102.5 c 128,-1,108
 419 116 419 116 437.5 130 c 128,-1,109
 456 144 456 144 466 153 c 0,110,111
 473 159 473 159 484 159 c 0,112,113
 497 159 497 159 505 150 c 0,114,115
 512 142 512 142 512 131 c 0,116,117
 512 119 512 119 502 110 c 0,118,119
 500 108 500 108 481.5 93.5 c 128,-1,120
 463 79 463 79 434.5 61 c 128,-1,121
 406 43 406 43 371.5 27.5 c 128,-1,122
 337 12 337 12 303 10 c 0,123,124
 295 10 295 10 287.5 9.5 c 128,-1,125
 280 9 280 9 272 9 c 0,126,127
 144 9 144 9 78 78 c 0,128,129
 20 138 20 138 20 241 c 0,130,131
 20 261 20 261 23 284 c 0,132,133
 33 379 33 379 73 456.5 c 128,-1,134
 113 534 113 534 168 589.5 c 128,-1,135
 223 645 223 645 283.5 675 c 128,-1,136
 344 705 344 705 394 706 c 1,137,-1
 399 706 l 2,24,25
EndSplineSet
EndChar

StartChar: A
Encoding: 65 65 54
Width: 660
Flags: W
LayerCount: 2
Fore
SplineSet
306 341 m 0,0,1
 360 341 360 341 399 337.5 c 128,-1,2
 438 334 438 334 461 331 c 1,3,4
 456 345 456 345 452.5 356 c 128,-1,5
 449 367 449 367 446 375 c 0,6,7
 440 399 440 399 429 433.5 c 128,-1,8
 418 468 418 468 404.5 506.5 c 128,-1,9
 391 545 391 545 377 583.5 c 128,-1,10
 363 622 363 622 350 654 c 1,11,12
 335 622 335 622 318.5 583.5 c 128,-1,13
 302 545 302 545 286.5 506.5 c 128,-1,14
 271 468 271 468 257.5 433 c 128,-1,15
 244 398 244 398 236 374 c 0,16,17
 234 366 234 366 230.5 357.5 c 128,-1,18
 227 349 227 349 223 338 c 1,19,20
 263 341 263 341 306 341 c 0,0,1
500 390 m 0,21,22
 505 371 505 371 517.5 336 c 128,-1,23
 530 301 530 301 545 259.5 c 128,-1,24
 560 218 560 218 576.5 175 c 128,-1,25
 593 132 593 132 606 96.5 c 128,-1,26
 619 61 619 61 628 38.5 c 128,-1,27
 637 16 637 16 637 15 c 0,28,29
 639 11 639 11 639 5 c 0,30,31
 639 -14 639 -14 621 -21 c 0,32,33
 618 -23 618 -23 611 -23 c 0,34,35
 603 -23 603 -23 595.5 -18.5 c 128,-1,36
 588 -14 588 -14 585 -5 c 0,37,38
 584 -2 584 -2 573 25.5 c 128,-1,39
 562 53 562 53 546.5 93 c 128,-1,40
 531 133 531 133 512 180.5 c 128,-1,41
 493 228 493 228 475 271 c 1,42,43
 455 274 455 274 429 278 c 1,44,45
 407 280 407 280 375.5 282.5 c 128,-1,46
 344 285 344 285 306 285 c 0,47,48
 280 285 280 285 252.5 283.5 c 128,-1,49
 225 282 225 282 199 280 c 1,50,51
 181 237 181 237 160 188 c 128,-1,52
 139 139 139 139 120 97 c 128,-1,53
 101 55 101 55 88 25.5 c 128,-1,54
 75 -4 75 -4 74 -7 c 0,55,56
 66 -23 66 -23 48 -23 c 0,57,58
 41 -23 41 -23 37 -21 c 0,59,60
 20 -13 20 -13 20 5 c 0,61,62
 20 10 20 10 23 16 c 0,63,64
 23 17 23 17 34 41.5 c 128,-1,65
 45 66 45 66 61.5 103.5 c 128,-1,66
 78 141 78 141 98 186.5 c 128,-1,67
 118 232 118 232 136 274 c 1,68,69
 108 271 108 271 90 268.5 c 128,-1,70
 72 266 72 266 69 266 c 0,71,72
 58 266 58 266 50.5 273 c 128,-1,73
 43 280 43 280 41 294 c 1,74,75
 41 305 41 305 47.5 312.5 c 128,-1,76
 54 320 54 320 65 322 c 0,77,78
 67 322 67 322 93.5 325.5 c 128,-1,79
 120 329 120 329 160 333 c 1,80,81
 168 351 168 351 173.5 366 c 128,-1,82
 179 381 179 381 183 392 c 0,83,84
 192 419 192 419 209.5 463.5 c 128,-1,85
 227 508 227 508 247 556.5 c 128,-1,86
 267 605 267 605 287.5 650.5 c 128,-1,87
 308 696 308 696 323 726 c 1,88,89
 325 742 325 742 339 749 c 0,90,91
 343 751 343 751 352 751 c 0,92,93
 360 751 360 751 366 748 c 0,94,95
 379 741 379 741 381 725 c 1,96,97
 394 695 394 695 411.5 649 c 128,-1,98
 429 603 429 603 446.5 554.5 c 128,-1,99
 464 506 464 506 478 461.5 c 128,-1,100
 492 417 492 417 500 390 c 0,21,22
EndSplineSet
EndChar

StartChar: B
Encoding: 66 66 55
Width: 616
Flags: W
LayerCount: 2
Fore
SplineSet
519 208 m 2,0,1
 519 225 519 225 510.5 247.5 c 128,-1,2
 502 270 502 270 482 292 c 0,3,4
 471 303 471 303 456 314 c 128,-1,5
 441 325 441 325 420.5 334.5 c 128,-1,6
 400 344 400 344 373 350.5 c 128,-1,7
 346 357 346 357 312 358 c 1,8,9
 296 357 296 357 279.5 356.5 c 128,-1,10
 263 356 263 356 246 356 c 0,11,12
 226 356 226 356 206 356.5 c 128,-1,13
 186 357 186 357 166 358 c 1,14,-1
 128 358 l 1,15,16
 130 324 130 324 134 278 c 128,-1,17
 138 232 138 232 142.5 185.5 c 128,-1,18
 147 139 147 139 151 99.5 c 128,-1,19
 155 60 155 60 157 39 c 1,20,21
 190 40 190 40 227.5 41.5 c 128,-1,22
 265 43 265 43 299 45 c 128,-1,23
 333 47 333 47 360 50 c 128,-1,24
 387 53 387 53 399 56 c 0,25,26
 439 68 439 68 462 82 c 128,-1,27
 485 96 485 96 496.5 112.5 c 128,-1,28
 508 129 508 129 511.5 148 c 128,-1,29
 515 167 515 167 518 190 c 2,30,-1
 519 201 l 1,31,-1
 519 208 l 2,0,1
361 682 m 0,32,33
 313 695 313 695 278.5 700 c 128,-1,34
 244 705 244 705 216 705 c 0,35,36
 187 705 187 705 161 700.5 c 128,-1,37
 135 696 135 696 106 689 c 1,38,39
 110 658 110 658 113.5 620.5 c 128,-1,40
 117 583 117 583 119.5 545.5 c 128,-1,41
 122 508 122 508 124 473.5 c 128,-1,42
 126 439 126 439 126 414 c 1,43,-1
 168 414 l 1,44,45
 187 413 187 413 206 412.5 c 128,-1,46
 225 412 225 412 245 412 c 0,47,48
 251 412 251 412 258 412 c 128,-1,49
 265 412 265 412 276 414 c 0,50,51
 281 414 281 414 285.5 414.5 c 128,-1,52
 290 415 290 415 295 415 c 0,53,54
 299 415 299 415 302.5 414.5 c 128,-1,55
 306 414 306 414 311 414 c 0,56,57
 327 416 327 416 341.5 417.5 c 128,-1,58
 356 419 356 419 367 423 c 1,59,60
 397 431 397 431 414 442.5 c 128,-1,61
 431 454 431 454 440 468.5 c 128,-1,62
 449 483 449 483 452 499 c 128,-1,63
 455 515 455 515 457 533 c 2,64,-1
 458 551 l 2,65,66
 458 566 458 566 452.5 586 c 128,-1,67
 447 606 447 606 435 625 c 128,-1,68
 423 644 423 644 404.5 659.5 c 128,-1,69
 386 675 386 675 361 682 c 0,32,33
434 390 m 1,70,71
 465 377 465 377 486.5 361.5 c 128,-1,72
 508 346 508 346 523 330 c 0,73,74
 552 298 552 298 563.5 265.5 c 128,-1,75
 575 233 575 233 575 207 c 2,76,-1
 575 195 l 1,77,-1
 573 184 l 1,78,79
 571 160 571 160 566 134.5 c 128,-1,80
 561 109 561 109 545 84.5 c 128,-1,81
 529 60 529 60 498.5 38.5 c 128,-1,82
 468 17 468 17 414 2 c 0,83,84
 401 -2 401 -2 376.5 -4.5 c 128,-1,85
 352 -7 352 -7 322.5 -9.5 c 128,-1,86
 293 -12 293 -12 261.5 -13.5 c 128,-1,87
 230 -15 230 -15 203 -15.5 c 128,-1,88
 176 -16 176 -16 156.5 -16.5 c 128,-1,89
 137 -17 137 -17 131 -17 c 0,90,91
 120 -17 120 -17 111.5 -8.5 c 128,-1,92
 103 0 103 0 103 16 c 0,93,94
 103 19 103 19 100.5 40.5 c 128,-1,95
 98 62 98 62 95 94.5 c 128,-1,96
 92 127 92 127 88 167 c 128,-1,97
 84 207 84 207 80.5 247.5 c 128,-1,98
 77 288 77 288 74 324.5 c 128,-1,99
 71 361 71 361 70 387 c 1,100,-1
 70 397 l 2,101,102
 70 422 70 422 68 459 c 128,-1,103
 66 496 66 496 63.5 536.5 c 128,-1,104
 61 577 61 577 57.5 616.5 c 128,-1,105
 54 656 54 656 50 688 c 1,106,107
 47 690 47 690 45 694.5 c 128,-1,108
 43 699 43 699 41 708 c 1,109,110
 41 717 41 717 45 722 c 1,111,112
 43 727 43 727 42 737 c 0,113,114
 42 747 42 747 49 755 c 128,-1,115
 56 763 56 763 70 765 c 1,116,117
 92 765 92 765 97 744 c 1,118,119
 127 752 127 752 155 756.5 c 128,-1,120
 183 761 183 761 215 761 c 0,121,122
 246 761 246 761 284.5 755.5 c 128,-1,123
 323 750 323 750 375 736 c 0,124,125
 409 727 409 727 435 706 c 128,-1,126
 461 685 461 685 478.5 659 c 128,-1,127
 496 633 496 633 505 604.5 c 128,-1,128
 514 576 514 576 514 551 c 0,129,130
 514 548 514 548 514 544.5 c 128,-1,131
 514 541 514 541 513 538 c 2,132,-1
 512 528 l 2,133,134
 510 512 510 512 507.5 494 c 128,-1,135
 505 476 505 476 497 457.5 c 128,-1,136
 489 439 489 439 474 421.5 c 128,-1,137
 459 404 459 404 434 390 c 1,70,71
EndSplineSet
EndChar

StartChar: C
Encoding: 67 67 56
Width: 590
Flags: W
LayerCount: 2
Fore
SplineSet
537 118 m 2,0,1
 545 126 545 126 557 126 c 256,2,3
 569 126 569 126 576 119 c 0,4,5
 585 110 585 110 585 98 c 0,6,7
 585 87 585 87 577 79 c 0,8,9
 576 78 576 78 561.5 65 c 128,-1,10
 547 52 547 52 521.5 37 c 128,-1,11
 496 22 496 22 460 9.5 c 128,-1,12
 424 -3 424 -3 379 -3 c 0,13,14
 326 -3 326 -3 265.5 17.5 c 128,-1,15
 205 38 205 38 152.5 84 c 128,-1,16
 100 130 100 130 65.5 203.5 c 128,-1,17
 31 277 31 277 31 384 c 0,18,19
 31 417 31 417 33 441.5 c 128,-1,20
 35 466 35 466 39.5 485.5 c 128,-1,21
 44 505 44 505 50.5 521 c 128,-1,22
 57 537 57 537 66 552 c 0,23,24
 67 554 67 554 80.5 576.5 c 128,-1,25
 94 599 94 599 114 628 c 128,-1,26
 134 657 134 657 159.5 684.5 c 128,-1,27
 185 712 185 712 210 724 c 0,28,29
 239 737 239 737 268 743 c 128,-1,30
 297 749 297 749 323 749 c 0,31,32
 351 749 351 749 372 743 c 0,33,34
 382 741 382 741 398 735.5 c 128,-1,35
 414 730 414 730 430.5 723 c 128,-1,36
 447 716 447 716 461 708 c 128,-1,37
 475 700 475 700 481 693 c 0,38,39
 489 682 489 682 491.5 666.5 c 128,-1,40
 494 651 494 651 494 637 c 0,41,42
 494 626 494 626 486 617.5 c 128,-1,43
 478 609 478 609 466 609 c 0,44,45
 455 609 455 609 446.5 617.5 c 128,-1,46
 438 626 438 626 438 637 c 0,47,48
 438 642 438 642 438 648 c 128,-1,49
 438 654 438 654 437 658 c 1,50,51
 427 663 427 663 403.5 673.5 c 128,-1,52
 380 684 380 684 359 689 c 0,53,54
 351 691 351 691 342.5 692 c 128,-1,55
 334 693 334 693 324 693 c 0,56,57
 303 693 303 693 279.5 688.5 c 128,-1,58
 256 684 256 684 235 673 c 1,59,60
 221 667 221 667 204.5 650 c 128,-1,61
 188 633 188 633 171.5 611.5 c 128,-1,62
 155 590 155 590 140 567 c 128,-1,63
 125 544 125 544 115 525 c 0,64,65
 108 512 108 512 102.5 499 c 128,-1,66
 97 486 97 486 93.5 470 c 128,-1,67
 90 454 90 454 88.5 433 c 128,-1,68
 87 412 87 412 87 384 c 0,69,70
 87 316 87 316 103 265.5 c 128,-1,71
 119 215 119 215 144.5 178 c 128,-1,72
 170 141 170 141 202.5 117 c 128,-1,73
 235 93 235 93 267.5 78.5 c 128,-1,74
 300 64 300 64 329.5 58.5 c 128,-1,75
 359 53 359 53 379 53 c 0,76,77
 415 53 415 53 444 63 c 128,-1,78
 473 73 473 73 493.5 85 c 128,-1,79
 514 97 514 97 526 108 c 2,80,-1
 537 118 l 2,0,1
EndSplineSet
EndChar

StartChar: D
Encoding: 68 68 57
Width: 676
Flags: W
LayerCount: 2
Fore
SplineSet
389 42 m 0,0,1
 445 58 445 58 480 94.5 c 128,-1,2
 515 131 515 131 535 179 c 128,-1,3
 555 227 555 227 562 280.5 c 128,-1,4
 569 334 569 334 569 384 c 0,5,6
 569 450 569 450 546.5 501.5 c 128,-1,7
 524 553 524 553 491 590.5 c 128,-1,8
 458 628 458 628 420 651 c 128,-1,9
 382 674 382 674 351 682 c 0,10,11
 303 695 303 695 268.5 700 c 128,-1,12
 234 705 234 705 205 705 c 256,13,14
 176 705 176 705 150.5 700.5 c 128,-1,15
 125 696 125 696 96 689 c 1,16,17
 100 655 100 655 103.5 613.5 c 128,-1,18
 107 572 107 572 110 531.5 c 128,-1,19
 113 491 113 491 114.5 455.5 c 128,-1,20
 116 420 116 420 116 397 c 0,21,22
 116 380 116 380 118 351.5 c 128,-1,23
 120 323 120 323 122.5 288 c 128,-1,24
 125 253 125 253 128.5 215.5 c 128,-1,25
 132 178 132 178 135.5 143.5 c 128,-1,26
 139 109 139 109 142 81 c 128,-1,27
 145 53 145 53 147 38 c 1,28,29
 176 36 176 36 208.5 35.5 c 128,-1,30
 241 35 241 35 273 35 c 0,31,32
 313 35 313 35 344 36.5 c 128,-1,33
 375 38 375 38 389 42 c 0,0,1
365 736 m 0,34,35
 404 725 404 725 449.5 698 c 128,-1,36
 495 671 495 671 534 627.5 c 128,-1,37
 573 584 573 584 599 523 c 128,-1,38
 625 462 625 462 625 384 c 0,39,40
 625 281 625 281 604.5 210 c 128,-1,41
 584 139 584 139 552 93.5 c 128,-1,42
 520 48 520 48 481 23.5 c 128,-1,43
 442 -1 442 -1 404 -12 c 0,44,45
 386 -17 386 -17 349.5 -19 c 128,-1,46
 313 -21 313 -21 272 -21 c 0,47,48
 246 -21 246 -21 220.5 -20.5 c 128,-1,49
 195 -20 195 -20 174 -19.5 c 128,-1,50
 153 -19 153 -19 138.5 -18 c 128,-1,51
 124 -17 124 -17 119 -17 c 0,52,53
 108 -17 108 -17 100.5 -8 c 128,-1,54
 93 1 93 1 93 16 c 1,55,56
 92 19 92 19 89.5 43 c 128,-1,57
 87 67 87 67 83.5 102.5 c 128,-1,58
 80 138 80 138 76 181 c 128,-1,59
 72 224 72 224 68.5 265.5 c 128,-1,60
 65 307 65 307 62.5 342 c 128,-1,61
 60 377 60 377 60 397 c 0,62,63
 60 422 60 422 58.5 459 c 128,-1,64
 57 496 57 496 54 536.5 c 128,-1,65
 51 577 51 577 47 616.5 c 128,-1,66
 43 656 43 656 39 688 c 1,67,68
 37 690 37 690 35 694.5 c 128,-1,69
 33 699 33 699 31 708 c 1,70,71
 31 716 31 716 34 722 c 0,72,73
 34 724 34 724 33.5 727.5 c 128,-1,74
 33 731 33 731 32 737 c 1,75,76
 32 747 32 747 39 755 c 128,-1,77
 46 763 46 763 60 765 c 1,78,79
 82 765 82 765 87 744 c 1,80,81
 117 752 117 752 144.5 756.5 c 128,-1,82
 172 761 172 761 205 761 c 0,83,84
 236 761 236 761 274.5 755.5 c 128,-1,85
 313 750 313 750 365 736 c 0,34,35
EndSplineSet
EndChar

StartChar: E
Encoding: 69 69 58
Width: 589
Flags: W
LayerCount: 2
Fore
SplineSet
567 51 m 0,0,1
 589 46 589 46 589 18 c 1,2,3
 587 7 587 7 578.5 1 c 128,-1,4
 570 -5 570 -5 556 -4 c 0,5,6
 555 -4 555 -4 509.5 2.5 c 128,-1,7
 464 9 464 9 386 9 c 0,8,9
 347 9 347 9 306 6 c 128,-1,10
 265 3 265 3 230.5 0 c 128,-1,11
 196 -3 196 -3 173.5 -6 c 128,-1,12
 151 -9 151 -9 149 -9 c 2,13,-1
 130 -9 l 2,14,15
 119 -9 119 -9 111 -2 c 128,-1,16
 103 5 103 5 102 16 c 0,17,18
 101 19 101 19 98.5 43 c 128,-1,19
 96 67 96 67 92.5 102.5 c 128,-1,20
 89 138 89 138 85 181 c 128,-1,21
 81 224 81 224 77.5 265.5 c 128,-1,22
 74 307 74 307 71.5 342 c 128,-1,23
 69 377 69 377 69 397 c 0,24,25
 69 427 69 427 66.5 474 c 128,-1,26
 64 521 64 521 60 570.5 c 128,-1,27
 56 620 56 620 51 665 c 128,-1,28
 46 710 46 710 41 737 c 1,29,30
 41 747 41 747 48 755 c 128,-1,31
 55 763 55 763 69 765 c 1,32,33
 91 765 91 765 96 744 c 1,34,35
 103 754 103 754 115 756 c 0,36,37
 117 756 117 756 139.5 759 c 128,-1,38
 162 762 162 762 196.5 765.5 c 128,-1,39
 231 769 231 769 273 772 c 128,-1,40
 315 775 315 775 356 775 c 0,41,42
 438 775 438 775 486.5 768 c 128,-1,43
 535 761 535 761 537 760 c 0,44,45
 559 755 559 755 559 727 c 1,46,47
 554 705 554 705 525 705 c 1,48,49
 505 708 505 708 479 712 c 1,50,51
 457 714 457 714 425.5 716.5 c 128,-1,52
 394 719 394 719 356 719 c 0,53,54
 317 719 317 719 276 716 c 128,-1,55
 235 713 235 713 200.5 709.5 c 128,-1,56
 166 706 166 706 143.5 703 c 128,-1,57
 121 700 121 700 119 700 c 0,58,59
 110 700 110 700 102 705 c 1,60,61
 107 672 107 672 111 629 c 128,-1,62
 115 586 115 586 118 543 c 128,-1,63
 121 500 121 500 123 461.5 c 128,-1,64
 125 423 125 423 125 398 c 1,65,66
 134 399 134 399 154 401.5 c 128,-1,67
 174 404 174 404 201.5 406.5 c 128,-1,68
 229 409 229 409 262 411 c 128,-1,69
 295 413 295 413 330 415 c 0,70,71
 341 415 341 415 349.5 407 c 128,-1,72
 358 399 358 399 358 387 c 0,73,74
 358 376 358 376 350 367.5 c 128,-1,75
 342 359 342 359 331 359 c 0,76,77
 295 357 295 357 259.5 354.5 c 128,-1,78
 224 352 224 352 196 349.5 c 128,-1,79
 168 347 168 347 149 344.5 c 128,-1,80
 130 342 130 342 127 342 c 1,81,82
 129 308 129 308 133 266.5 c 128,-1,83
 137 225 137 225 141 183.5 c 128,-1,84
 145 142 145 142 148.5 106 c 128,-1,85
 152 70 152 70 155 48 c 1,86,87
 167 49 167 49 191.5 52 c 128,-1,88
 216 55 216 55 248 58 c 128,-1,89
 280 61 280 61 315.5 63 c 128,-1,90
 351 65 351 65 386 65 c 0,91,92
 468 65 468 65 516.5 58 c 128,-1,93
 565 51 565 51 567 51 c 0,0,1
EndSplineSet
EndChar

StartChar: F
Encoding: 70 70 59
Width: 482
Flags: W
LayerCount: 2
Fore
SplineSet
325 415 m 2,0,1
 336 415 336 415 344 407 c 128,-1,2
 352 399 352 399 353 387 c 0,3,4
 353 376 353 376 345 367.5 c 128,-1,5
 337 359 337 359 326 359 c 0,6,7
 290 357 290 357 254.5 354.5 c 128,-1,8
 219 352 219 352 191 349.5 c 128,-1,9
 163 347 163 347 144 344.5 c 128,-1,10
 125 342 125 342 122 342 c 1,11,12
 124 314 124 314 127 279.5 c 128,-1,13
 130 245 130 245 133.5 209.5 c 128,-1,14
 137 174 137 174 140.5 140 c 128,-1,15
 144 106 144 106 146.5 79.5 c 128,-1,16
 149 53 149 53 151 36.5 c 128,-1,17
 153 20 153 20 153 19 c 0,18,19
 153 8 153 8 145.5 0 c 128,-1,20
 138 -8 138 -8 124 -9 c 0,21,22
 113 -9 113 -9 105.5 -2 c 128,-1,23
 98 5 98 5 97 16 c 0,24,25
 96 19 96 19 93.5 43 c 128,-1,26
 91 67 91 67 87.5 102.5 c 128,-1,27
 84 138 84 138 80 181 c 128,-1,28
 76 224 76 224 72.5 265.5 c 128,-1,29
 69 307 69 307 66.5 342 c 128,-1,30
 64 377 64 377 64 397 c 0,31,32
 64 427 64 427 61.5 474 c 128,-1,33
 59 521 59 521 55 570.5 c 128,-1,34
 51 620 51 620 46 665 c 128,-1,35
 41 710 41 710 36 737 c 1,36,37
 36 747 36 747 43 755 c 128,-1,38
 50 763 50 763 64 765 c 1,39,40
 86 765 86 765 91 744 c 1,41,42
 98 754 98 754 110 756 c 0,43,44
 112 756 112 756 134.5 759 c 128,-1,45
 157 762 157 762 191.5 765.5 c 128,-1,46
 226 769 226 769 268 772 c 128,-1,47
 310 775 310 775 351 775 c 0,48,49
 433 775 433 775 481.5 768 c 128,-1,50
 530 761 530 761 532 760 c 0,51,52
 554 755 554 755 553 727 c 1,53,54
 550 705 550 705 520 705 c 1,55,56
 500 708 500 708 474 712 c 1,57,58
 452 714 452 714 420.5 716.5 c 128,-1,59
 389 719 389 719 351 719 c 0,60,61
 312 719 312 719 271 716 c 128,-1,62
 230 713 230 713 195.5 709.5 c 128,-1,63
 161 706 161 706 138.5 703 c 128,-1,64
 116 700 116 700 114 700 c 0,65,66
 105 700 105 700 97 705 c 1,67,68
 102 672 102 672 106 629 c 128,-1,69
 110 586 110 586 113 543 c 128,-1,70
 116 500 116 500 118 461.5 c 128,-1,71
 120 423 120 423 120 398 c 1,72,73
 129 399 129 399 149 401.5 c 128,-1,74
 169 404 169 404 196.5 406.5 c 128,-1,75
 224 409 224 409 257 411 c 128,-1,76
 290 413 290 413 324 415 c 1,77,-1
 325 415 l 2,0,1
EndSplineSet
EndChar

StartChar: G
Encoding: 71 71 60
Width: 665
Flags: W
LayerCount: 2
Fore
SplineSet
579 380 m 1,0,1
 601 380 601 380 606 357 c 0,2,3
 612 330 612 330 617 283 c 128,-1,4
 622 236 622 236 626 185.5 c 128,-1,5
 630 135 630 135 632.5 87.5 c 128,-1,6
 635 40 635 40 635 11 c 0,7,8
 635 0 635 0 626.5 -8.5 c 128,-1,9
 618 -17 618 -17 607 -17 c 0,10,11
 595 -17 595 -17 587 -8.5 c 128,-1,12
 579 0 579 0 579 11 c 256,13,14
 579 22 579 22 578.5 35.5 c 128,-1,15
 578 49 578 49 577 64 c 1,16,17
 566 55 566 55 548 43.5 c 128,-1,18
 530 32 530 32 506 21.5 c 128,-1,19
 482 11 482 11 452 4 c 128,-1,20
 422 -3 422 -3 388 -3 c 0,21,22
 352 -3 352 -3 311 6 c 128,-1,23
 270 15 270 15 229.5 34.5 c 128,-1,24
 189 54 189 54 152.5 84 c 128,-1,25
 116 114 116 114 87.5 157 c 128,-1,26
 59 200 59 200 42.5 256.5 c 128,-1,27
 26 313 26 313 26 384 c 0,28,29
 26 417 26 417 28 441.5 c 128,-1,30
 30 466 30 466 34.5 485.5 c 128,-1,31
 39 505 39 505 46 521 c 128,-1,32
 53 537 53 537 62 552 c 0,33,34
 63 554 63 554 77 577 c 128,-1,35
 91 600 91 600 112.5 628.5 c 128,-1,36
 134 657 134 657 160.5 684.5 c 128,-1,37
 187 712 187 712 213 724 c 0,38,39
 242 737 242 737 272.5 742.5 c 128,-1,40
 303 748 303 748 330 748 c 0,41,42
 358 748 358 748 380 743 c 0,43,44
 390 741 390 741 407 735.5 c 128,-1,45
 424 730 424 730 441 723 c 128,-1,46
 458 716 458 716 473 708 c 128,-1,47
 488 700 488 700 494 693 c 0,48,49
 500 685 500 685 500 675 c 0,50,51
 500 661 500 661 490 654 c 1,52,53
 483 647 483 647 472 647 c 256,54,55
 461 647 461 647 452 656 c 0,56,57
 449 658 449 658 439.5 662.5 c 128,-1,58
 430 667 430 667 418 672 c 128,-1,59
 406 677 406 677 392.5 681.5 c 128,-1,60
 379 686 379 686 367 689 c 0,61,62
 359 691 359 691 350 692 c 128,-1,63
 341 693 341 693 330 693 c 0,64,65
 308 693 308 693 283.5 688.5 c 128,-1,66
 259 684 259 684 236 673 c 0,67,68
 222 667 222 667 205 650 c 128,-1,69
 188 633 188 633 170.5 611.5 c 128,-1,70
 153 590 153 590 137.5 566.5 c 128,-1,71
 122 543 122 543 111 524 c 0,72,73
 103 512 103 512 98 499 c 128,-1,74
 93 486 93 486 89 470 c 128,-1,75
 85 454 85 454 83.5 433 c 128,-1,76
 82 412 82 412 82 384 c 0,77,78
 82 316 82 316 99 265.5 c 128,-1,79
 116 215 116 215 142.5 178 c 128,-1,80
 169 141 169 141 203 117 c 128,-1,81
 237 93 237 93 271 78.5 c 128,-1,82
 305 64 305 64 336 58.5 c 128,-1,83
 367 53 367 53 388 53 c 0,84,85
 426 53 426 53 456.5 63 c 128,-1,86
 487 73 487 73 509 85 c 128,-1,87
 531 97 531 97 543 108 c 2,88,-1
 554 118 l 2,89,90
 562 126 562 126 574 126 c 1,91,92
 571 177 571 177 566 229.5 c 128,-1,93
 561 282 561 282 556 318 c 1,94,95
 518 316 518 316 482 313.5 c 128,-1,96
 446 311 446 311 417.5 308 c 128,-1,97
 389 305 389 305 370.5 303 c 128,-1,98
 352 301 352 301 351 301 c 0,99,100
 340 301 340 301 332.5 308 c 128,-1,101
 325 315 325 315 323 329 c 1,102,103
 323 340 323 340 329.5 347.5 c 128,-1,104
 336 355 336 355 347 357 c 0,105,106
 348 357 348 357 366.5 359 c 128,-1,107
 385 361 385 361 415 364 c 128,-1,108
 445 367 445 367 483 369.5 c 128,-1,109
 521 372 521 372 562 374 c 1,110,111
 565 377 565 377 573 379 c 2,112,-1
 579 380 l 1,0,1
EndSplineSet
EndChar

StartChar: H
Encoding: 72 72 61
Width: 636
Flags: W
LayerCount: 2
Fore
SplineSet
552 397 m 0,0,1
 552 378 552 378 554.5 343 c 128,-1,2
 557 308 557 308 560.5 266.5 c 128,-1,3
 564 225 564 225 568 181.5 c 128,-1,4
 572 138 572 138 575.5 102.5 c 128,-1,5
 579 67 579 67 581.5 43.5 c 128,-1,6
 584 20 584 20 584 19 c 0,7,8
 584 8 584 8 577 0 c 128,-1,9
 570 -8 570 -8 556 -9 c 0,10,11
 545 -9 545 -9 537.5 -2 c 128,-1,12
 530 5 530 5 529 16 c 0,13,14
 529 19 529 19 526.5 38.5 c 128,-1,15
 524 58 524 58 521 87.5 c 128,-1,16
 518 117 518 117 514 154 c 128,-1,17
 510 191 510 191 506.5 229 c 128,-1,18
 503 267 503 267 500 302 c 128,-1,19
 497 337 497 337 496 364 c 0,20,21
 495 364 495 364 449.5 371 c 128,-1,22
 404 378 404 378 326 378 c 0,23,24
 297 378 297 378 266.5 376 c 128,-1,25
 236 374 236 374 208 371.5 c 128,-1,26
 180 369 180 369 156 366.5 c 128,-1,27
 132 364 132 364 116 362 c 1,28,29
 117 336 117 336 120 300.5 c 128,-1,30
 123 265 123 265 126.5 227 c 128,-1,31
 130 189 130 189 133.5 152.5 c 128,-1,32
 137 116 137 116 140 86.5 c 128,-1,33
 143 57 143 57 145 38.5 c 128,-1,34
 147 20 147 20 147 19 c 0,35,36
 147 8 147 8 140 0 c 128,-1,37
 133 -8 133 -8 119 -9 c 0,38,39
 108 -9 108 -9 100.5 -2 c 128,-1,40
 93 5 93 5 92 16 c 0,41,42
 91 19 91 19 88.5 43 c 128,-1,43
 86 67 86 67 82.5 102.5 c 128,-1,44
 79 138 79 138 75 181 c 128,-1,45
 71 224 71 224 67.5 265.5 c 128,-1,46
 64 307 64 307 61.5 342 c 128,-1,47
 59 377 59 377 59 397 c 0,48,49
 59 427 59 427 56.5 474 c 128,-1,50
 54 521 54 521 50 570.5 c 128,-1,51
 46 620 46 620 41 665 c 128,-1,52
 36 710 36 710 31 737 c 1,53,54
 31 747 31 747 38 755 c 128,-1,55
 45 763 45 763 59 765 c 1,56,57
 69 765 69 765 76.5 759 c 128,-1,58
 84 753 84 753 86 743 c 0,59,60
 91 717 91 717 96 675.5 c 128,-1,61
 101 634 101 634 104.5 587.5 c 128,-1,62
 108 541 108 541 110.5 496 c 128,-1,63
 113 451 113 451 114 419 c 1,64,65
 131 421 131 421 155 423.5 c 128,-1,66
 179 426 179 426 207.5 428.5 c 128,-1,67
 236 431 236 431 266.5 432.5 c 128,-1,68
 297 434 297 434 326 434 c 0,69,70
 390 434 390 434 433.5 429 c 128,-1,71
 477 424 477 424 495 421 c 1,72,73
 494 455 494 455 491.5 499.5 c 128,-1,74
 489 544 489 544 485 588.5 c 128,-1,75
 481 633 481 633 476.5 673 c 128,-1,76
 472 713 472 713 468 737 c 1,77,78
 468 747 468 747 475 755 c 128,-1,79
 482 763 482 763 496 765 c 1,80,81
 506 765 506 765 513.5 759 c 128,-1,82
 521 753 521 753 523 743 c 0,83,84
 529 715 529 715 534 668.5 c 128,-1,85
 539 622 539 622 543 571 c 128,-1,86
 547 520 547 520 549.5 472.5 c 128,-1,87
 552 425 552 425 552 397 c 0,0,1
EndSplineSet
EndChar

StartChar: I
Encoding: 73 73 62
Width: 240
Flags: W
LayerCount: 2
Fore
SplineSet
135 397 m 0,0,1
 135 378 135 378 137.5 343 c 128,-1,2
 140 308 140 308 143.5 266.5 c 128,-1,3
 147 225 147 225 151 181.5 c 128,-1,4
 155 138 155 138 159 102.5 c 128,-1,5
 163 67 163 67 165.5 43.5 c 128,-1,6
 168 20 168 20 168 19 c 0,7,8
 168 8 168 8 160.5 0 c 128,-1,9
 153 -8 153 -8 140 -9 c 0,10,11
 129 -9 129 -9 121.5 -2 c 128,-1,12
 114 5 114 5 112 16 c 0,13,14
 112 19 112 19 109.5 43 c 128,-1,15
 107 67 107 67 103 102.5 c 128,-1,16
 99 138 99 138 95 181 c 128,-1,17
 91 224 91 224 87.5 265.5 c 128,-1,18
 84 307 84 307 81.5 342 c 128,-1,19
 79 377 79 377 79 397 c 0,20,21
 79 427 79 427 76.5 474 c 128,-1,22
 74 521 74 521 70 570.5 c 128,-1,23
 66 620 66 620 61 665 c 128,-1,24
 56 710 56 710 51 737 c 1,25,26
 51 747 51 747 58 755 c 128,-1,27
 65 763 65 763 79 765 c 1,28,29
 89 765 89 765 97 759 c 128,-1,30
 105 753 105 753 107 743 c 0,31,32
 112 715 112 715 117 668.5 c 128,-1,33
 122 622 122 622 126 571 c 128,-1,34
 130 520 130 520 132.5 472.5 c 128,-1,35
 135 425 135 425 135 397 c 0,0,1
EndSplineSet
EndChar

StartChar: J
Encoding: 74 74 63
Width: 564
Flags: W
LayerCount: 2
Fore
SplineSet
469 753 m 0,0,1
 474 725 474 725 478.5 677 c 128,-1,2
 483 629 483 629 486.5 577 c 128,-1,3
 490 525 490 525 492.5 476.5 c 128,-1,4
 495 428 495 428 495 398 c 0,5,6
 495 392 495 392 496 362 c 128,-1,7
 497 332 497 332 497 292 c 0,8,9
 497 254 497 254 495 214.5 c 128,-1,10
 493 175 493 175 485 146 c 1,11,12
 472 91 472 91 446 59 c 128,-1,13
 420 27 420 27 389 10.5 c 128,-1,14
 358 -6 358 -6 325 -11.5 c 128,-1,15
 292 -17 292 -17 265 -20 c 0,16,17
 261 -20 261 -20 258 -20.5 c 128,-1,18
 255 -21 255 -21 251 -21 c 0,19,20
 220 -21 220 -21 179.5 -6.5 c 128,-1,21
 139 8 139 8 101 44 c 0,22,23
 86 58 86 58 70.5 78 c 128,-1,24
 55 98 55 98 43 125.5 c 128,-1,25
 31 153 31 153 23 187.5 c 128,-1,26
 15 222 15 222 15 266 c 0,27,28
 15 271 15 271 15.5 276.5 c 128,-1,29
 16 282 16 282 16 287 c 0,30,31
 17 298 17 298 25 306 c 128,-1,32
 33 314 33 314 45 314 c 1,33,34
 56 313 56 313 64 305 c 128,-1,35
 72 297 72 297 72 284 c 0,36,37
 72 279 72 279 71.5 275 c 128,-1,38
 71 271 71 271 71 266 c 0,39,40
 71 230 71 230 77.5 201 c 128,-1,41
 84 172 84 172 93.5 150 c 128,-1,42
 103 128 103 128 115 111.5 c 128,-1,43
 127 95 127 95 139 84 c 0,44,45
 167 58 167 58 198 46.5 c 128,-1,46
 229 35 229 35 259 36 c 1,47,48
 286 39 286 39 312.5 43 c 128,-1,49
 339 47 339 47 362 59.5 c 128,-1,50
 385 72 385 72 403 95 c 128,-1,51
 421 118 421 118 431 159 c 0,52,53
 437 185 437 185 439.5 222 c 128,-1,54
 442 259 442 259 442 294 c 0,55,56
 442 335 442 335 440.5 365 c 128,-1,57
 439 395 439 395 439 397 c 0,58,59
 438 429 438 429 435.5 477.5 c 128,-1,60
 433 526 433 526 429.5 577 c 128,-1,61
 426 628 426 628 422 674.5 c 128,-1,62
 418 721 418 721 413 749 c 1,63,64
 413 759 413 759 420.5 767 c 128,-1,65
 428 775 428 775 442 777 c 1,66,67
 452 777 452 777 459.5 770.5 c 128,-1,68
 467 764 467 764 469 753 c 0,0,1
EndSplineSet
EndChar

StartChar: K
Encoding: 75 75 64
Width: 672
Flags: W
LayerCount: 2
Fore
SplineSet
461 316 m 0,0,1
 470 301 470 301 490 274.5 c 128,-1,2
 510 248 510 248 533.5 217.5 c 128,-1,3
 557 187 557 187 582.5 155 c 128,-1,4
 608 123 608 123 628.5 96.5 c 128,-1,5
 649 70 649 70 662.5 53.5 c 128,-1,6
 676 37 676 37 676 36 c 0,7,8
 683 29 683 29 683 19 c 0,9,10
 683 5 683 5 672 -3 c 0,11,12
 664 -9 664 -9 655 -9 c 0,13,14
 640 -9 640 -9 633 1 c 0,15,16
 631 3 631 3 616.5 20.5 c 128,-1,17
 602 38 602 38 581 64.5 c 128,-1,18
 560 91 560 91 535 123 c 128,-1,19
 510 155 510 155 486.5 186 c 128,-1,20
 463 217 463 217 443.5 243.5 c 128,-1,21
 424 270 424 270 414 286 c 0,22,23
 400 309 400 309 382.5 336.5 c 128,-1,24
 365 364 365 364 346.5 391 c 128,-1,25
 328 418 328 418 309.5 442.5 c 128,-1,26
 291 467 291 467 274 485 c 1,27,28
 245 452 245 452 219.5 421 c 128,-1,29
 194 390 194 390 174 365.5 c 128,-1,30
 154 341 154 341 142 326 c 2,31,-1
 130 310 l 2,32,33
 126 305 126 305 120 302 c 1,34,35
 123 258 123 258 128 209.5 c 128,-1,36
 133 161 133 161 137 119 c 128,-1,37
 141 77 141 77 144 49 c 128,-1,38
 147 21 147 21 147 19 c 0,39,40
 147 8 147 8 140 0 c 128,-1,41
 133 -8 133 -8 119 -9 c 0,42,43
 108 -9 108 -9 100.5 -2 c 128,-1,44
 93 5 93 5 92 16 c 0,45,46
 91 19 91 19 88.5 43 c 128,-1,47
 86 67 86 67 82.5 102.5 c 128,-1,48
 79 138 79 138 75 181 c 128,-1,49
 71 224 71 224 67.5 265.5 c 128,-1,50
 64 307 64 307 61.5 342 c 128,-1,51
 59 377 59 377 59 397 c 0,52,53
 59 427 59 427 56.5 474 c 128,-1,54
 54 521 54 521 50 570.5 c 128,-1,55
 46 620 46 620 41 665 c 128,-1,56
 36 710 36 710 31 737 c 1,57,58
 31 747 31 747 38 755 c 128,-1,59
 45 763 45 763 59 765 c 1,60,61
 69 765 69 765 76.5 759 c 128,-1,62
 84 753 84 753 86 743 c 0,63,64
 92 715 92 715 97 668.5 c 128,-1,65
 102 622 102 622 106 571 c 128,-1,66
 110 520 110 520 112.5 472.5 c 128,-1,67
 115 425 115 425 115 397 c 2,68,-1
 115 381 l 1,69,70
 129 399 129 399 149 423.5 c 128,-1,71
 169 448 169 448 191.5 475 c 128,-1,72
 214 502 214 502 239 530.5 c 128,-1,73
 264 559 264 559 288 585 c 0,74,75
 324 624 324 624 354.5 654 c 128,-1,76
 385 684 385 684 407.5 704.5 c 128,-1,77
 430 725 430 725 443 736 c 128,-1,78
 456 747 456 747 457 748 c 0,79,80
 464 754 464 754 475 754 c 0,81,82
 488 754 488 754 497 744 c 0,83,84
 503 736 503 736 503 726 c 0,85,86
 503 713 503 713 493 705 c 0,87,88
 492 704 492 704 446 663 c 128,-1,89
 400 622 400 622 329 547 c 0,90,91
 324 542 324 542 320 537 c 128,-1,92
 316 532 316 532 311 527 c 1,93,94
 330 508 330 508 350.5 481.5 c 128,-1,95
 371 455 371 455 390.5 426 c 128,-1,96
 410 397 410 397 428 368.5 c 128,-1,97
 446 340 446 340 461 316 c 0,0,1
EndSplineSet
EndChar

StartChar: L
Encoding: 76 76 65
Width: 574
Flags: W
LayerCount: 2
Fore
SplineSet
577 51 m 0,0,1
 588 49 588 49 594 40.5 c 128,-1,2
 600 32 600 32 599 18 c 1,3,4
 594 -5 594 -5 566 -4 c 0,5,6
 565 -4 565 -4 519.5 2.5 c 128,-1,7
 474 9 474 9 397 9 c 0,8,9
 358 9 358 9 317 6 c 128,-1,10
 276 3 276 3 242 0 c 128,-1,11
 208 -3 208 -3 186 -6 c 128,-1,12
 164 -9 164 -9 163 -9 c 256,13,14
 162 -9 162 -9 160 -9 c 128,-1,15
 158 -9 158 -9 150 -8 c 0,16,17
 148 -8 148 -8 146 -8.5 c 128,-1,18
 144 -9 144 -9 140 -9 c 0,19,20
 129 -9 129 -9 121.5 -2 c 128,-1,21
 114 5 114 5 112 16 c 0,22,23
 112 19 112 19 109.5 43 c 128,-1,24
 107 67 107 67 103 102.5 c 128,-1,25
 99 138 99 138 95 181 c 128,-1,26
 91 224 91 224 87.5 265.5 c 128,-1,27
 84 307 84 307 81.5 342 c 128,-1,28
 79 377 79 377 79 397 c 0,29,30
 79 427 79 427 76.5 474 c 128,-1,31
 74 521 74 521 70 570.5 c 128,-1,32
 66 620 66 620 61 665 c 128,-1,33
 56 710 56 710 51 737 c 1,34,35
 51 747 51 747 58 755 c 128,-1,36
 65 763 65 763 79 765 c 1,37,38
 89 765 89 765 97 759 c 128,-1,39
 105 753 105 753 107 743 c 0,40,41
 112 715 112 715 117 668.5 c 128,-1,42
 122 622 122 622 126 571 c 128,-1,43
 130 520 130 520 132.5 472.5 c 128,-1,44
 135 425 135 425 135 397 c 0,45,46
 135 373 135 373 138.5 326 c 128,-1,47
 142 279 142 279 147 226.5 c 128,-1,48
 152 174 152 174 157 125 c 128,-1,49
 162 76 162 76 165 48 c 1,50,51
 177 49 177 49 201.5 52 c 128,-1,52
 226 55 226 55 258 58 c 128,-1,53
 290 61 290 61 326 63 c 128,-1,54
 362 65 362 65 397 65 c 0,55,56
 478 65 478 65 526.5 58 c 128,-1,57
 575 51 575 51 577 51 c 0,0,1
EndSplineSet
EndChar

StartChar: M
Encoding: 77 77 66
Width: 911
Flags: W
LayerCount: 2
Fore
SplineSet
807 397 m 0,0,1
 807 378 807 378 809.5 343 c 128,-1,2
 812 308 812 308 815.5 266.5 c 128,-1,3
 819 225 819 225 823 181.5 c 128,-1,4
 827 138 827 138 830.5 102.5 c 128,-1,5
 834 67 834 67 836.5 43.5 c 128,-1,6
 839 20 839 20 839 19 c 0,7,8
 839 8 839 8 832 0 c 128,-1,9
 825 -8 825 -8 811 -9 c 0,10,11
 800 -9 800 -9 792.5 -2 c 128,-1,12
 785 5 785 5 783 16 c 0,13,14
 783 19 783 19 780.5 43 c 128,-1,15
 778 67 778 67 774.5 102.5 c 128,-1,16
 771 138 771 138 767 181 c 128,-1,17
 763 224 763 224 759.5 265.5 c 128,-1,18
 756 307 756 307 753.5 342 c 128,-1,19
 751 377 751 377 751 397 c 0,20,21
 751 418 751 418 750 448 c 128,-1,22
 749 478 749 478 746.5 512 c 128,-1,23
 744 546 744 546 741 581 c 128,-1,24
 738 616 738 616 735 647 c 1,25,26
 711 606 711 606 682 564.5 c 128,-1,27
 653 523 653 523 630 490 c 0,28,29
 620 476 620 476 603 448 c 128,-1,30
 586 420 586 420 566.5 386 c 128,-1,31
 547 352 547 352 527.5 316.5 c 128,-1,32
 508 281 508 281 491.5 252 c 128,-1,33
 475 223 475 223 464.5 204 c 128,-1,34
 454 185 454 185 454 184 c 0,35,36
 446 170 446 170 430 170 c 0,37,38
 423 170 423 170 416 173 c 0,39,40
 402 181 402 181 402 198 c 0,41,42
 402 205 402 205 405 211 c 2,43,-1
 420 245 l 1,44,45
 418 247 418 247 404 264.5 c 128,-1,46
 390 282 390 282 369 308.5 c 128,-1,47
 348 335 348 335 322.5 367 c 128,-1,48
 297 399 297 399 273.5 430 c 128,-1,49
 250 461 250 461 230.5 487.5 c 128,-1,50
 211 514 211 514 201 530 c 0,51,52
 184 558 184 558 162.5 592 c 128,-1,53
 141 626 141 626 118 658 c 1,54,55
 122 625 122 625 125 587.5 c 128,-1,56
 128 550 128 550 130 514.5 c 128,-1,57
 132 479 132 479 133.5 448.5 c 128,-1,58
 135 418 135 418 135 397 c 0,59,60
 135 378 135 378 137.5 343 c 128,-1,61
 140 308 140 308 143.5 266.5 c 128,-1,62
 147 225 147 225 151 181.5 c 128,-1,63
 155 138 155 138 159 102.5 c 128,-1,64
 163 67 163 67 165.5 43.5 c 128,-1,65
 168 20 168 20 168 19 c 0,66,67
 168 8 168 8 160.5 0 c 128,-1,68
 153 -8 153 -8 140 -9 c 0,69,70
 129 -9 129 -9 121.5 -2 c 128,-1,71
 114 5 114 5 112 16 c 0,72,73
 112 19 112 19 109.5 43 c 128,-1,74
 107 67 107 67 103 102.5 c 128,-1,75
 99 138 99 138 95 181 c 128,-1,76
 91 224 91 224 87.5 265.5 c 128,-1,77
 84 307 84 307 81.5 342 c 128,-1,78
 79 377 79 377 79 397 c 0,79,80
 79 427 79 427 76.5 474 c 128,-1,81
 74 521 74 521 70 570.5 c 128,-1,82
 66 620 66 620 61 665 c 128,-1,83
 56 710 56 710 51 737 c 0,84,85
 51 739 51 739 51.5 741.5 c 128,-1,86
 52 744 52 744 51 751 c 1,87,88
 51 763 51 763 59 771 c 1,89,90
 69 779 69 779 79 779 c 0,91,92
 91 779 91 779 99 771 c 0,93,94
 118 752 118 752 138 725.5 c 128,-1,95
 158 699 158 699 177.5 670.5 c 128,-1,96
 197 642 197 642 215.5 613 c 128,-1,97
 234 584 234 584 249 560 c 0,98,99
 261 541 261 541 288 504.5 c 128,-1,100
 315 468 315 468 346 428 c 128,-1,101
 377 388 377 388 406.5 351.5 c 128,-1,102
 436 315 436 315 451 296 c 1,103,104
 467 326 467 326 486.5 359.5 c 128,-1,105
 506 393 506 393 524 424.5 c 128,-1,106
 542 456 542 456 558 482.5 c 128,-1,107
 574 509 574 509 584 523 c 0,108,109
 600 545 600 545 619 572 c 128,-1,110
 638 599 638 599 656 626.5 c 128,-1,111
 674 654 674 654 690 681 c 128,-1,112
 706 708 706 708 715 731 c 0,113,114
 717 736 717 736 723 742 c 1,115,116
 726 761 726 761 751 765 c 1,117,118
 773 765 773 765 778 743 c 0,119,120
 784 715 784 715 789 668.5 c 128,-1,121
 794 622 794 622 798 571 c 128,-1,122
 802 520 802 520 804.5 472.5 c 128,-1,123
 807 425 807 425 807 397 c 0,0,1
EndSplineSet
EndChar

StartChar: N
Encoding: 78 78 67
Width: 696
Flags: W
LayerCount: 2
Fore
SplineSet
581 397 m 0,0,1
 581 378 581 378 583.5 343 c 128,-1,2
 586 308 586 308 589.5 266.5 c 128,-1,3
 593 225 593 225 597 181.5 c 128,-1,4
 601 138 601 138 605 102.5 c 128,-1,5
 609 67 609 67 611.5 43.5 c 128,-1,6
 614 20 614 20 614 19 c 0,7,8
 614 0 614 0 593 -10 c 0,9,10
 586 -14 586 -14 578 -14 c 0,11,12
 563 -14 563 -14 554 -2 c 0,13,14
 552 1 552 1 536 25 c 128,-1,15
 520 49 520 49 497 84.5 c 128,-1,16
 474 120 474 120 445.5 163 c 128,-1,17
 417 206 417 206 391 247 c 128,-1,18
 365 288 365 288 343 323 c 128,-1,19
 321 358 321 358 310 378 c 0,20,21
 294 406 294 406 268.5 448.5 c 128,-1,22
 243 491 243 491 214.5 536 c 128,-1,23
 186 581 186 581 158 624 c 128,-1,24
 130 667 130 667 109 696 c 1,25,26
 113 663 113 663 117 621 c 128,-1,27
 121 579 121 579 124 537 c 128,-1,28
 127 495 127 495 128.5 458 c 128,-1,29
 130 421 130 421 130 397 c 0,30,31
 130 378 130 378 132.5 343 c 128,-1,32
 135 308 135 308 138.5 266.5 c 128,-1,33
 142 225 142 225 146 181.5 c 128,-1,34
 150 138 150 138 154 102.5 c 128,-1,35
 158 67 158 67 160.5 43.5 c 128,-1,36
 163 20 163 20 163 19 c 0,37,38
 163 8 163 8 155.5 0 c 128,-1,39
 148 -8 148 -8 135 -9 c 0,40,41
 124 -9 124 -9 116 -2 c 128,-1,42
 108 5 108 5 107 16 c 0,43,44
 107 19 107 19 104.5 43 c 128,-1,45
 102 67 102 67 98 102.5 c 128,-1,46
 94 138 94 138 90 181 c 128,-1,47
 86 224 86 224 82.5 265.5 c 128,-1,48
 79 307 79 307 76.5 342 c 128,-1,49
 74 377 74 377 74 397 c 0,50,51
 74 427 74 427 71.5 474 c 128,-1,52
 69 521 69 521 65 570.5 c 128,-1,53
 61 620 61 620 56 665 c 128,-1,54
 51 710 51 710 46 737 c 1,55,56
 46 747 46 747 53 755 c 128,-1,57
 60 763 60 763 74 765 c 1,58,59
 82 765 82 765 88.5 762 c 128,-1,60
 95 759 95 759 100 755 c 1,61,62
 108 760 108 760 117 760 c 0,63,64
 131 760 131 760 140 749 c 0,65,66
 154 731 154 731 172.5 703.5 c 128,-1,67
 191 676 191 676 212 644 c 128,-1,68
 233 612 233 612 254.5 578 c 128,-1,69
 276 544 276 544 296 512 c 128,-1,70
 316 480 316 480 332 452 c 128,-1,71
 348 424 348 424 359 405 c 0,72,73
 370 385 370 385 392 350 c 128,-1,74
 414 315 414 315 441 273 c 128,-1,75
 468 231 468 231 496.5 187.5 c 128,-1,76
 525 144 525 144 548 109 c 1,77,78
 544 145 544 145 540 187 c 128,-1,79
 536 229 536 229 532.5 269 c 128,-1,80
 529 309 529 309 527 343 c 128,-1,81
 525 377 525 377 525 397 c 0,82,83
 525 427 525 427 522.5 474 c 128,-1,84
 520 521 520 521 516 570.5 c 128,-1,85
 512 620 512 620 507 665 c 128,-1,86
 502 710 502 710 497 737 c 1,87,88
 497 747 497 747 504 755 c 128,-1,89
 511 763 511 763 525 765 c 1,90,91
 535 765 535 765 543 759 c 128,-1,92
 551 753 551 753 553 743 c 0,93,94
 558 715 558 715 563 668.5 c 128,-1,95
 568 622 568 622 572 571 c 128,-1,96
 576 520 576 520 578.5 472.5 c 128,-1,97
 581 425 581 425 581 397 c 0,0,1
EndSplineSet
EndChar

StartChar: O
Encoding: 79 79 68
Width: 726
Flags: W
LayerCount: 2
Fore
SplineSet
578 219 m 0,0,1
 592 247 592 247 608 292.5 c 128,-1,2
 624 338 624 338 624 395 c 0,3,4
 624 439 624 439 611 484 c 0,5,6
 599 523 599 523 582.5 554.5 c 128,-1,7
 566 586 566 586 547 610.5 c 128,-1,8
 528 635 528 635 508.5 653 c 128,-1,9
 489 671 489 671 472 683 c 0,10,11
 435 709 435 709 403.5 719 c 128,-1,12
 372 729 372 729 351 729 c 1,13,14
 322 720 322 720 303 711 c 128,-1,15
 284 702 284 702 283 702 c 0,16,17
 277 699 277 699 270 699 c 0,18,19
 257 699 257 699 250 708 c 1,20,21
 215 689 215 689 183 639 c 128,-1,22
 151 589 151 589 130 517 c 0,23,24
 116 470 116 470 109 423 c 128,-1,25
 102 376 102 376 102 331 c 0,26,27
 102 268 102 268 116 220 c 0,28,29
 126 188 126 188 141 164 c 128,-1,30
 156 140 156 140 174 123.5 c 128,-1,31
 192 107 192 107 211.5 96.5 c 128,-1,32
 231 86 231 86 248 80 c 0,33,34
 294 63 294 63 346 63 c 0,35,36
 391 63 391 63 432 75 c 0,37,38
 463 84 463 84 503.5 120 c 128,-1,39
 544 156 544 156 578 219 c 0,0,1
504 728 m 0,40,41
 524 714 524 714 546.5 693 c 128,-1,42
 569 672 569 672 591 644 c 128,-1,43
 613 616 613 616 632 580.5 c 128,-1,44
 651 545 651 545 665 500 c 0,45,46
 680 449 680 449 680 395 c 0,47,48
 680 344 680 344 666.5 293 c 128,-1,49
 653 242 653 242 627 193 c 0,50,51
 592 129 592 129 544 82.5 c 128,-1,52
 496 36 496 36 448 22 c 0,53,54
 398 7 398 7 346 7 c 0,55,56
 286 7 286 7 229 27 c 0,57,58
 207 35 207 35 183 48.5 c 128,-1,59
 159 62 159 62 136 83 c 128,-1,60
 113 104 113 104 93.5 133.5 c 128,-1,61
 74 163 74 163 62 204 c 0,62,63
 46 258 46 258 46 331 c 0,64,65
 46 379 46 379 53.5 430.5 c 128,-1,66
 61 482 61 482 76 533 c 0,67,68
 104 629 104 629 149.5 690 c 128,-1,69
 195 751 195 751 249 768 c 0,70,71
 264 772 264 772 280 772 c 0,72,73
 285 772 285 772 290 772 c 128,-1,74
 295 772 295 772 300 770 c 1,75,76
 313 775 313 775 335 782 c 0,77,78
 345 785 345 785 359 785 c 0,79,80
 389 785 389 785 427.5 770 c 128,-1,81
 466 755 466 755 504 728 c 0,40,41
EndSplineSet
EndChar

StartChar: P
Encoding: 80 80 69
Width: 596
Flags: W
LayerCount: 2
Fore
SplineSet
510 526 m 1,0,1
 510 543 510 543 503.5 565.5 c 128,-1,2
 497 588 497 588 483 610 c 128,-1,3
 469 632 469 632 448 650 c 128,-1,4
 427 668 427 668 399 676 c 0,5,6
 345 690 345 690 306 696 c 128,-1,7
 267 702 267 702 235 702 c 0,8,9
 200 702 200 702 170.5 696 c 128,-1,10
 141 690 141 690 106 682 c 1,11,12
 110 648 110 648 113.5 607.5 c 128,-1,13
 117 567 117 567 119.5 528 c 128,-1,14
 122 489 122 489 123.5 454 c 128,-1,15
 125 419 125 419 125 397 c 0,16,17
 125 392 125 392 125 385 c 128,-1,18
 125 378 125 378 126 370 c 1,19,20
 140 370 140 370 153.5 370 c 128,-1,21
 167 370 167 370 181 369 c 0,22,23
 203 368 203 368 224.5 368 c 128,-1,24
 246 368 246 368 268 368 c 0,25,26
 308 368 308 368 343.5 370 c 128,-1,27
 379 372 379 372 405 379 c 0,28,29
 439 389 439 389 459 402.5 c 128,-1,30
 479 416 479 416 489 432 c 128,-1,31
 499 448 499 448 502.5 467 c 128,-1,32
 506 486 506 486 508 506 c 2,33,-1
 509 518 l 1,34,-1
 510 526 l 1,0,1
413 730 m 0,35,36
 450 720 450 720 479 697 c 128,-1,37
 508 674 508 674 527 645 c 128,-1,38
 546 616 546 616 556 584.5 c 128,-1,39
 566 553 566 553 566 526 c 0,40,41
 566 522 566 522 565.5 519 c 128,-1,42
 565 516 565 516 565 512 c 2,43,-1
 564 500 l 2,44,45
 562 479 562 479 557 454.5 c 128,-1,46
 552 430 552 430 538 406 c 128,-1,47
 524 382 524 382 496 360.5 c 128,-1,48
 468 339 468 339 420 326 c 0,49,50
 390 317 390 317 351.5 314.5 c 128,-1,51
 313 312 313 312 269 312 c 0,52,53
 247 312 247 312 225 312 c 128,-1,54
 203 312 203 312 180 313 c 0,55,56
 167 314 167 314 154.5 314 c 128,-1,57
 142 314 142 314 129 314 c 1,58,59
 132 270 132 270 137 219.5 c 128,-1,60
 142 169 142 169 146.5 125 c 128,-1,61
 151 81 151 81 154.5 51 c 128,-1,62
 158 21 158 21 158 19 c 0,63,64
 158 8 158 8 150.5 0 c 128,-1,65
 143 -8 143 -8 130 -9 c 0,66,67
 119 -9 119 -9 111 -2 c 128,-1,68
 103 5 103 5 102 16 c 0,69,70
 101 19 101 19 98.5 43 c 128,-1,71
 96 67 96 67 92.5 102.5 c 128,-1,72
 89 138 89 138 85 181 c 128,-1,73
 81 224 81 224 77.5 265.5 c 128,-1,74
 74 307 74 307 71.5 342 c 128,-1,75
 69 377 69 377 69 397 c 0,76,77
 69 422 69 422 67.5 458 c 128,-1,78
 66 494 66 494 63 534 c 128,-1,79
 60 574 60 574 56.5 613.5 c 128,-1,80
 53 653 53 653 49 685 c 1,81,82
 47 687 47 687 46 690.5 c 128,-1,83
 45 694 45 694 43 702 c 0,84,85
 43 706 43 706 45 712 c 1,86,87
 44 717 44 717 43.5 723 c 128,-1,88
 43 729 43 729 41 737 c 1,89,90
 41 747 41 747 48 755 c 128,-1,91
 55 763 55 763 69 765 c 1,92,93
 79 765 79 765 87 758 c 128,-1,94
 95 751 95 751 97 737 c 1,95,96
 133 746 133 746 165 752 c 128,-1,97
 197 758 197 758 234 758 c 0,98,99
 269 758 269 758 311.5 751.5 c 128,-1,100
 354 745 354 745 413 730 c 0,35,36
EndSplineSet
EndChar

StartChar: Q
Encoding: 81 81 70
Width: 744
Flags: W
LayerCount: 2
Fore
SplineSet
427 52 m 0,0,1
 445 57 445 57 467.5 72 c 128,-1,2
 490 87 490 87 513 112 c 1,3,4
 490 126 490 126 469 138 c 128,-1,5
 448 150 448 150 432.5 159 c 128,-1,6
 417 168 417 168 407 173 c 2,7,-1
 397 178 l 2,8,9
 389 182 389 182 385.5 188.5 c 128,-1,10
 382 195 382 195 382 203 c 0,11,12
 382 210 382 210 385 216 c 0,13,14
 389 224 389 224 395.5 227.5 c 128,-1,15
 402 231 402 231 410 231 c 0,16,17
 417 231 417 231 423 228 c 0,18,19
 424 227 424 227 434.5 221.5 c 128,-1,20
 445 216 445 216 462.5 206.5 c 128,-1,21
 480 197 480 197 502 184 c 128,-1,22
 524 171 524 171 548 156 c 1,23,24
 562 175 562 175 572 196 c 1,25,26
 587 224 587 224 603 269.5 c 128,-1,27
 619 315 619 315 619 372 c 0,28,29
 619 393 619 393 616 415 c 128,-1,30
 613 437 613 437 606 460 c 0,31,32
 594 499 594 499 577.5 530.5 c 128,-1,33
 561 562 561 562 542 586.5 c 128,-1,34
 523 611 523 611 503.5 629 c 128,-1,35
 484 647 484 647 467 660 c 0,36,37
 430 686 430 686 398.5 696 c 128,-1,38
 367 706 367 706 346 705 c 1,39,40
 317 697 317 697 297.5 688 c 128,-1,41
 278 679 278 679 278 678 c 0,42,43
 272 675 272 675 265 675 c 0,44,45
 253 675 253 675 244 684 c 1,46,47
 209 666 209 666 177.5 616 c 128,-1,48
 146 566 146 566 125 494 c 0,49,50
 111 447 111 447 104 399.5 c 128,-1,51
 97 352 97 352 97 307 c 0,52,53
 97 245 97 245 111 197 c 0,54,55
 120 165 120 165 135.5 141 c 128,-1,56
 151 117 151 117 169 100.5 c 128,-1,57
 187 84 187 84 206.5 73 c 128,-1,58
 226 62 226 62 243 56 c 0,59,60
 266 48 266 48 290.5 44 c 128,-1,61
 315 40 315 40 341 40 c 0,62,63
 386 40 386 40 427 52 c 0,0,1
629 102 m 0,64,65
 696 54 696 54 730.5 20 c 128,-1,66
 765 -14 765 -14 767 -16 c 0,67,68
 775 -24 775 -24 775 -35 c 0,69,70
 775 -48 775 -48 766 -55 c 0,71,72
 756 -63 756 -63 747 -63 c 0,73,74
 733 -63 733 -63 726 -54 c 0,75,76
 726 -53 726 -53 693 -21 c 128,-1,77
 660 11 660 11 597 57 c 1,78,-1
 561 81 l 1,79,80
 533 50 533 50 502.5 28.5 c 128,-1,81
 472 7 472 7 443 -2 c 1,82,83
 392 -16 392 -16 341 -16 c 0,84,85
 311 -16 311 -16 281 -11.5 c 128,-1,86
 251 -7 251 -7 224 4 c 0,87,88
 202 12 202 12 178 25.5 c 128,-1,89
 154 39 154 39 131 60 c 128,-1,90
 108 81 108 81 88.5 110.5 c 128,-1,91
 69 140 69 140 57 181 c 0,92,93
 41 235 41 235 41 308 c 0,94,95
 41 356 41 356 48.5 407 c 128,-1,96
 56 458 56 458 71 509 c 0,97,98
 99 606 99 606 144 667 c 128,-1,99
 189 728 189 728 244 744 c 0,100,101
 252 747 252 747 260 748 c 128,-1,102
 268 749 268 749 275 749 c 0,103,104
 280 749 280 749 285 748.5 c 128,-1,105
 290 748 290 748 295 747 c 1,106,107
 308 752 308 752 330 759 c 0,108,109
 340 762 340 762 354 762 c 0,110,111
 384 762 384 762 422.5 747 c 128,-1,112
 461 732 461 732 499 705 c 0,113,114
 519 691 519 691 541.5 670 c 128,-1,115
 564 649 564 649 586 621 c 128,-1,116
 608 593 608 593 627 557 c 128,-1,117
 646 521 646 521 660 476 c 0,118,119
 675 425 675 425 675 372 c 0,120,121
 675 269 675 269 622 169 c 0,122,123
 611 148 611 148 595 126 c 1,124,125
 604 120 604 120 612.5 114 c 128,-1,126
 621 108 621 108 629 102 c 0,64,65
EndSplineSet
EndChar

StartChar: R
Encoding: 82 82 71
Width: 665
Flags: W
LayerCount: 2
Fore
SplineSet
192 369 m 0,0,1
 213 368 213 368 235 368 c 128,-1,2
 257 368 257 368 278 368 c 0,3,4
 319 368 319 368 354.5 370 c 128,-1,5
 390 372 390 372 415 379 c 0,6,7
 450 389 450 389 469.5 402.5 c 128,-1,8
 489 416 489 416 499 432 c 128,-1,9
 509 448 509 448 512.5 467 c 128,-1,10
 516 486 516 486 518 506 c 2,11,-1
 520 526 l 1,12,13
 520 543 520 543 513.5 565.5 c 128,-1,14
 507 588 507 588 493 610 c 128,-1,15
 479 632 479 632 458 650 c 128,-1,16
 437 668 437 668 409 676 c 0,17,18
 355 690 355 690 316 696 c 128,-1,19
 277 702 277 702 245 702 c 0,20,21
 210 702 210 702 180.5 696 c 128,-1,22
 151 690 151 690 116 682 c 1,23,24
 120 648 120 648 123.5 607.5 c 128,-1,25
 127 567 127 567 129.5 528 c 128,-1,26
 132 489 132 489 133.5 454 c 128,-1,27
 135 419 135 419 135 397 c 0,28,29
 135 392 135 392 135 385 c 128,-1,30
 135 378 135 378 136 370 c 1,31,32
 150 370 150 370 164 370 c 128,-1,33
 178 370 178 370 192 369 c 0,0,1
533 168 m 0,34,35
 585 105 585 105 610 63 c 128,-1,36
 635 21 635 21 636 19 c 0,37,38
 639 13 639 13 639 6 c 0,39,40
 639 -2 639 -2 635.5 -8.5 c 128,-1,41
 632 -15 632 -15 624 -19 c 0,42,43
 618 -22 618 -22 611 -22 c 0,44,45
 594 -22 594 -22 587 -7 c 0,46,47
 586 -7 586 -7 562.5 33 c 128,-1,48
 539 73 539 73 490 133 c 0,49,50
 465 163 465 163 437 193 c 128,-1,51
 409 223 409 223 385 247 c 128,-1,52
 361 271 361 271 345 287 c 1,53,-1
 328 302 l 2,54,55
 324 306 324 306 321 312 c 1,56,-1
 280 312 l 2,57,58
 257 312 257 312 235 312 c 128,-1,59
 213 312 213 312 190 313 c 0,60,61
 177 314 177 314 164.5 314 c 128,-1,62
 152 314 152 314 140 314 c 1,63,64
 143 270 143 270 147.5 219.5 c 128,-1,65
 152 169 152 169 156.5 125 c 128,-1,66
 161 81 161 81 164.5 51 c 128,-1,67
 168 21 168 21 168 19 c 0,68,69
 168 8 168 8 160.5 0 c 128,-1,70
 153 -8 153 -8 140 -9 c 0,71,72
 129 -9 129 -9 121.5 -2 c 128,-1,73
 114 5 114 5 112 16 c 0,74,75
 112 19 112 19 109.5 43 c 128,-1,76
 107 67 107 67 103 102.5 c 128,-1,77
 99 138 99 138 95 181 c 128,-1,78
 91 224 91 224 87.5 265.5 c 128,-1,79
 84 307 84 307 81.5 342 c 128,-1,80
 79 377 79 377 79 397 c 0,81,82
 79 422 79 422 77.5 458 c 128,-1,83
 76 494 76 494 73 534 c 128,-1,84
 70 574 70 574 66.5 613.5 c 128,-1,85
 63 653 63 653 59 685 c 1,86,87
 57 687 57 687 56 690.5 c 128,-1,88
 55 694 55 694 53 702 c 0,89,90
 53 706 53 706 55 712 c 1,91,92
 54 717 54 717 53.5 723 c 128,-1,93
 53 729 53 729 51 737 c 1,94,95
 51 747 51 747 58 755 c 128,-1,96
 65 763 65 763 79 765 c 1,97,98
 89 765 89 765 97 758 c 128,-1,99
 105 751 105 751 108 737 c 1,100,101
 143 746 143 746 175 752 c 128,-1,102
 207 758 207 758 245 758 c 0,103,104
 280 758 280 758 322 751.5 c 128,-1,105
 364 745 364 745 423 730 c 0,106,107
 460 720 460 720 489 697 c 128,-1,108
 518 674 518 674 537 645 c 128,-1,109
 556 616 556 616 566 584.5 c 128,-1,110
 576 553 576 553 576 526 c 0,111,112
 576 517 576 517 575 512 c 2,113,-1
 574 500 l 2,114,115
 572 479 572 479 567 454.5 c 128,-1,116
 562 430 562 430 548 406 c 128,-1,117
 534 382 534 382 506 360.5 c 128,-1,118
 478 339 478 339 430 326 c 0,119,120
 422 323 422 323 412.5 321.5 c 128,-1,121
 403 320 403 320 392 318 c 1,122,123
 405 306 405 306 422 289 c 128,-1,124
 439 272 439 272 457.5 252.5 c 128,-1,125
 476 233 476 233 495.5 211.5 c 128,-1,126
 515 190 515 190 533 168 c 0,34,35
EndSplineSet
EndChar

StartChar: S
Encoding: 83 83 72
Width: 624
Flags: W
LayerCount: 2
Fore
SplineSet
369 497 m 0,0,1
 417 484 417 484 455 454.5 c 128,-1,2
 493 425 493 425 519 387.5 c 128,-1,3
 545 350 545 350 559 309.5 c 128,-1,4
 573 269 573 269 573 234 c 1,5,-1
 572 219 l 2,6,7
 571 192 571 192 568 161.5 c 128,-1,8
 565 131 565 131 550 101.5 c 128,-1,9
 535 72 535 72 502.5 46.5 c 128,-1,10
 470 21 470 21 412 5 c 0,11,12
 383 -4 383 -4 359.5 -7.5 c 128,-1,13
 336 -11 336 -11 314 -11 c 0,14,15
 282 -11 282 -11 250.5 -4 c 128,-1,16
 219 3 219 3 174 15 c 0,17,18
 133 25 133 25 104 47.5 c 128,-1,19
 75 70 75 70 56 92.5 c 128,-1,20
 37 115 37 115 28 132.5 c 128,-1,21
 19 150 19 150 18 152 c 0,22,23
 15 156 15 156 15 163 c 0,24,25
 15 180 15 180 32 189 c 1,26,27
 40 191 40 191 43 191 c 0,28,29
 51 191 51 191 58.5 186.5 c 128,-1,30
 66 182 66 182 69 174 c 1,31,-1
 76 161 l 2,32,33
 83 147 83 147 98 129.5 c 128,-1,34
 113 112 113 112 136 94.5 c 128,-1,35
 159 77 159 77 191 68 c 0,36,37
 233 57 233 57 260.5 51 c 128,-1,38
 288 45 288 45 314 45 c 0,39,40
 348 45 348 45 397 58 c 1,41,42
 440 71 440 71 464 88 c 128,-1,43
 488 105 488 105 499 126 c 128,-1,44
 510 147 510 147 512.5 171 c 128,-1,45
 515 195 515 195 516 221 c 2,46,-1
 517 239 l 1,47,48
 517 260 517 260 506.5 291 c 128,-1,49
 496 322 496 322 476 352 c 128,-1,50
 456 382 456 382 425.5 407 c 128,-1,51
 395 432 395 432 355 442 c 1,52,53
 328 450 328 450 297.5 453 c 128,-1,54
 267 456 267 456 237 459 c 0,55,56
 202 462 202 462 168.5 466 c 128,-1,57
 135 470 135 470 108 480.5 c 128,-1,58
 81 491 81 491 63.5 509.5 c 128,-1,59
 46 528 46 528 43 560 c 0,60,61
 43 564 43 564 42.5 567 c 128,-1,62
 42 570 42 570 42 573 c 0,63,64
 42 612 42 612 57.5 639.5 c 128,-1,65
 73 667 73 667 95.5 686 c 128,-1,66
 118 705 118 705 142.5 717 c 128,-1,67
 167 729 167 729 185 737 c 0,68,69
 208 748 208 748 240.5 752.5 c 128,-1,70
 273 757 273 757 311 757 c 0,71,72
 345 757 345 757 379.5 753 c 128,-1,73
 414 749 414 749 447 741 c 0,74,75
 469 736 469 736 468 708 c 1,76,77
 466 698 466 698 457 692 c 128,-1,78
 448 686 448 686 434 687 c 1,79,80
 405 695 405 695 372.5 698 c 128,-1,81
 340 701 340 701 310 701 c 0,82,83
 278 701 278 701 251.5 697.5 c 128,-1,84
 225 694 225 694 207 686 c 0,85,86
 186 677 186 677 166 666.5 c 128,-1,87
 146 656 146 656 131 642 c 128,-1,88
 116 628 116 628 107.5 609 c 128,-1,89
 99 590 99 590 99 564 c 1,90,91
 101 538 101 538 138.5 529 c 128,-1,92
 176 520 176 520 241 515 c 0,93,94
 273 512 273 512 305.5 508.5 c 128,-1,95
 338 505 338 505 369 497 c 0,0,1
EndSplineSet
EndChar

StartChar: T
Encoding: 84 84 73
Width: 491
Flags: W
LayerCount: 2
Fore
SplineSet
553 741 m 0,0,1
 564 740 564 740 571 731.5 c 128,-1,2
 578 723 578 723 577 710 c 0,3,4
 576 699 576 699 568 692.5 c 128,-1,5
 560 686 560 686 546 686 c 1,6,-1
 527 688 l 2,7,8
 507 690 507 690 471 693 c 128,-1,9
 435 696 435 696 384.5 698 c 128,-1,10
 334 700 334 700 272 700 c 0,11,12
 264 700 264 700 257 700 c 128,-1,13
 250 700 250 700 242 699 c 1,14,15
 246 666 246 666 250.5 622.5 c 128,-1,16
 255 579 255 579 258 535 c 128,-1,17
 261 491 261 491 263 451.5 c 128,-1,18
 265 412 265 412 265 387 c 0,19,20
 265 368 265 368 267.5 333 c 128,-1,21
 270 298 270 298 273.5 256.5 c 128,-1,22
 277 215 277 215 281 171.5 c 128,-1,23
 285 128 285 128 289 92.5 c 128,-1,24
 293 57 293 57 295.5 33.5 c 128,-1,25
 298 10 298 10 298 9 c 0,26,27
 298 -2 298 -2 290.5 -9.5 c 128,-1,28
 283 -17 283 -17 270 -19 c 1,29,30
 259 -19 259 -19 251 -12 c 128,-1,31
 243 -5 243 -5 242 6 c 0,32,33
 242 9 242 9 239 33 c 128,-1,34
 236 57 236 57 232.5 92.5 c 128,-1,35
 229 128 229 128 225 171 c 128,-1,36
 221 214 221 214 217.5 255.5 c 128,-1,37
 214 297 214 297 211.5 332 c 128,-1,38
 209 367 209 367 209 387 c 0,39,40
 209 414 209 414 207 455 c 128,-1,41
 205 496 205 496 201.5 540 c 128,-1,42
 198 584 198 584 194 626 c 128,-1,43
 190 668 190 668 186 698 c 1,44,45
 132 696 132 696 80 693.5 c 128,-1,46
 28 691 28 691 -12.5 688 c 128,-1,47
 -53 685 -53 685 -78.5 683 c 128,-1,48
 -104 681 -104 681 -105 681 c 0,49,50
 -116 680 -116 680 -124 688 c 128,-1,51
 -132 696 -132 696 -133 709 c 0,52,53
 -133 720 -133 720 -126 728 c 128,-1,54
 -119 736 -119 736 -108 737 c 0,55,56
 -107 737 -107 737 -80 739 c 128,-1,57
 -53 741 -53 741 -9 744 c 128,-1,58
 35 747 35 747 90.5 750 c 128,-1,59
 146 753 146 753 203 755 c 0,60,61
 205 755 205 755 207 755.5 c 128,-1,62
 209 756 209 756 215 755 c 1,63,64
 229 755 229 755 243.5 755.5 c 128,-1,65
 258 756 258 756 272 756 c 0,66,67
 336 756 336 756 387 754 c 128,-1,68
 438 752 438 752 474.5 749 c 128,-1,69
 511 746 511 746 531 743.5 c 128,-1,70
 551 741 551 741 553 741 c 0,0,1
EndSplineSet
EndChar

StartChar: U
Encoding: 85 85 74
Width: 675
Flags: W
LayerCount: 2
Fore
SplineSet
580 733 m 0,0,1
 586 705 586 705 591.5 658.5 c 128,-1,2
 597 612 597 612 601 561.5 c 128,-1,3
 605 511 605 511 607.5 464 c 128,-1,4
 610 417 610 417 610 388 c 0,5,6
 610 382 610 382 612 352.5 c 128,-1,7
 614 323 614 323 614 285 c 0,8,9
 614 248 614 248 611 209.5 c 128,-1,10
 608 171 608 171 599 142 c 0,11,12
 583 89 583 89 553 58 c 128,-1,13
 523 27 523 27 486 11 c 128,-1,14
 449 -5 449 -5 410.5 -10 c 128,-1,15
 372 -15 372 -15 340 -18 c 0,16,17
 335 -19 335 -19 331.5 -19 c 128,-1,18
 328 -19 328 -19 323 -19 c 0,19,20
 278 -19 278 -19 224.5 0 c 128,-1,21
 171 19 171 19 126 62 c 1,22,23
 84 104 84 104 67 159 c 128,-1,24
 50 214 50 214 48 279 c 2,25,-1
 45 386 l 2,26,27
 44 417 44 417 41.5 464.5 c 128,-1,28
 39 512 39 512 35 561.5 c 128,-1,29
 31 611 31 611 26 656 c 128,-1,30
 21 701 21 701 15 728 c 1,31,32
 15 750 15 750 43 756 c 1,33,34
 53 756 53 756 61 750 c 128,-1,35
 69 744 69 744 71 733 c 0,36,37
 77 704 77 704 82 657.5 c 128,-1,38
 87 611 87 611 91 560.5 c 128,-1,39
 95 510 95 510 97.5 463 c 128,-1,40
 100 416 100 416 101 387 c 2,41,-1
 104 277 l 1,42,-1
 104 259 l 2,43,44
 104 163 104 163 166 102 c 0,45,46
 184 85 184 85 204 73 c 128,-1,47
 224 61 224 61 245 53 c 128,-1,48
 266 45 266 45 286 41 c 128,-1,49
 306 37 306 37 323 37 c 2,50,-1
 335 37 l 1,51,52
 373 40 373 40 406.5 45.5 c 128,-1,53
 440 51 440 51 467 64 c 128,-1,54
 494 77 494 77 514 99 c 128,-1,55
 534 121 534 121 545 158 c 0,56,57
 553 183 553 183 555.5 217.5 c 128,-1,58
 558 252 558 252 558 286 c 0,59,60
 558 326 558 326 556 355.5 c 128,-1,61
 554 385 554 385 554 387 c 0,62,63
 553 417 553 417 550 464 c 128,-1,64
 547 511 547 511 543.5 560.5 c 128,-1,65
 540 610 540 610 535 655.5 c 128,-1,66
 530 701 530 701 524 728 c 1,67,68
 524 750 524 750 552 756 c 1,69,70
 562 756 562 756 570 750 c 128,-1,71
 578 744 578 744 580 733 c 0,0,1
EndSplineSet
EndChar

StartChar: V
Encoding: 86 86 75
Width: 638
Flags: W
LayerCount: 2
Fore
SplineSet
623 762 m 1,0,1
 638 754 638 754 638 737 c 0,2,3
 638 731 638 731 634 724 c 0,4,5
 621 699 621 699 602 655 c 128,-1,6
 583 611 583 611 563.5 562 c 128,-1,7
 544 513 544 513 526.5 466 c 128,-1,8
 509 419 509 419 499 388 c 0,9,10
 492 368 492 368 478.5 333 c 128,-1,11
 465 298 465 298 448 256.5 c 128,-1,12
 431 215 431 215 413.5 172.5 c 128,-1,13
 396 130 396 130 380.5 94.5 c 128,-1,14
 365 59 365 59 354.5 35 c 128,-1,15
 344 11 344 11 343 8 c 0,16,17
 337 -7 337 -7 321 -9 c 1,18,19
 315 -15 315 -15 311 -17 c 0,20,21
 303 -19 303 -19 300 -19 c 0,22,23
 292 -19 292 -19 284.5 -14.5 c 128,-1,24
 277 -10 277 -10 274 -2 c 0,25,26
 273 1 273 1 262.5 25 c 128,-1,27
 252 49 252 49 237 84.5 c 128,-1,28
 222 120 222 120 204 163 c 128,-1,29
 186 206 186 206 169 247 c 128,-1,30
 152 288 152 288 138.5 323 c 128,-1,31
 125 358 125 358 119 378 c 0,32,33
 109 409 109 409 91 456 c 128,-1,34
 73 503 73 503 53.5 552 c 128,-1,35
 34 601 34 601 15 645.5 c 128,-1,36
 -4 690 -4 690 -17 715 c 0,37,38
 -20 721 -20 721 -20 728 c 0,39,40
 -20 744 -20 744 -5 752 c 1,41,42
 0 756 0 756 8 756 c 0,43,44
 24 756 24 756 32 741 c 0,45,46
 47 713 47 713 67 666.5 c 128,-1,47
 87 620 87 620 107 569.5 c 128,-1,48
 127 519 127 519 145 471.5 c 128,-1,49
 163 424 163 424 172 396 c 0,50,51
 179 373 179 373 196 330.5 c 128,-1,52
 213 288 213 288 233 239.5 c 128,-1,53
 253 191 253 191 272.5 143.5 c 128,-1,54
 292 96 292 96 306 64 c 1,55,56
 315 84 315 84 327.5 113 c 128,-1,57
 340 142 340 142 353.5 174.5 c 128,-1,58
 367 207 367 207 381.5 241.5 c 128,-1,59
 396 276 396 276 408.5 307 c 128,-1,60
 421 338 421 338 430.5 364 c 128,-1,61
 440 390 440 390 445 405 c 0,62,63
 454 434 454 434 472 481 c 128,-1,64
 490 528 490 528 510 579 c 128,-1,65
 530 630 530 630 550.5 676.5 c 128,-1,66
 571 723 571 723 585 750 c 0,67,68
 589 758 589 758 595.5 761.5 c 128,-1,69
 602 765 602 765 610 765 c 0,70,71
 615 765 615 765 623 762 c 1,0,1
EndSplineSet
EndChar

StartChar: W
Encoding: 87 87 76
Width: 1209
Flags: W
LayerCount: 2
Fore
SplineSet
1204 762 m 0,0,1
 1219 754 1219 754 1219 737 c 0,2,3
 1219 731 1219 731 1216 724 c 0,4,5
 1203 699 1203 699 1184 655 c 128,-1,6
 1165 611 1165 611 1145 562 c 128,-1,7
 1125 513 1125 513 1107.5 466 c 128,-1,8
 1090 419 1090 419 1080 388 c 0,9,10
 1074 368 1074 368 1060.5 333 c 128,-1,11
 1047 298 1047 298 1030 256.5 c 128,-1,12
 1013 215 1013 215 995 172.5 c 128,-1,13
 977 130 977 130 962 94.5 c 128,-1,14
 947 59 947 59 936.5 35 c 128,-1,15
 926 11 926 11 925 8 c 0,16,17
 919 -7 919 -7 903 -9 c 1,18,19
 898 -14 898 -14 892 -17 c 0,20,21
 886 -19 886 -19 881 -19 c 0,22,23
 863 -19 863 -19 855 -2 c 0,24,25
 854 1 854 1 843.5 25 c 128,-1,26
 833 49 833 49 818 84.5 c 128,-1,27
 803 120 803 120 785 163 c 128,-1,28
 767 206 767 206 750.5 247 c 128,-1,29
 734 288 734 288 720 323 c 128,-1,30
 706 358 706 358 700 378 c 0,31,32
 692 403 692 403 679 439.5 c 128,-1,33
 666 476 666 476 650 516 c 128,-1,34
 634 556 634 556 617.5 595.5 c 128,-1,35
 601 635 601 635 587 667 c 1,36,37
 573 635 573 635 557 596.5 c 128,-1,38
 541 558 541 558 526 520 c 128,-1,39
 511 482 511 482 498.5 447 c 128,-1,40
 486 412 486 412 478 388 c 0,41,42
 472 368 472 368 458 333 c 128,-1,43
 444 298 444 298 427.5 256.5 c 128,-1,44
 411 215 411 215 393 172.5 c 128,-1,45
 375 130 375 130 360 94.5 c 128,-1,46
 345 59 345 59 334.5 35 c 128,-1,47
 324 11 324 11 323 8 c 0,48,49
 317 -7 317 -7 300 -9 c 1,50,51
 297 -14 297 -14 290 -17 c 0,52,53
 287 -18 287 -18 284.5 -18.5 c 128,-1,54
 282 -19 282 -19 279 -19 c 0,55,56
 261 -19 261 -19 253 -2 c 0,57,58
 252 1 252 1 241.5 25 c 128,-1,59
 231 49 231 49 216 84.5 c 128,-1,60
 201 120 201 120 183 163 c 128,-1,61
 165 206 165 206 148.5 247 c 128,-1,62
 132 288 132 288 118 323 c 128,-1,63
 104 358 104 358 98 378 c 0,64,65
 88 409 88 409 70.5 456 c 128,-1,66
 53 503 53 503 33.5 552 c 128,-1,67
 14 601 14 601 -5.5 645.5 c 128,-1,68
 -25 690 -25 690 -38 715 c 0,69,70
 -41 721 -41 721 -41 728 c 0,71,72
 -41 744 -41 744 -26 752 c 1,73,74
 -21 756 -21 756 -13 756 c 0,75,76
 4 756 4 756 12 741 c 0,77,78
 26 713 26 713 46 666.5 c 128,-1,79
 66 620 66 620 86.5 569.5 c 128,-1,80
 107 519 107 519 124.5 471.5 c 128,-1,81
 142 424 142 424 151 396 c 0,82,83
 158 373 158 373 175 330.5 c 128,-1,84
 192 288 192 288 212 239.5 c 128,-1,85
 232 191 232 191 252 143.5 c 128,-1,86
 272 96 272 96 286 64 c 1,87,88
 299 94 299 94 319.5 142.5 c 128,-1,89
 340 191 340 191 361 241.5 c 128,-1,90
 382 292 382 292 399.5 337 c 128,-1,91
 417 382 417 382 425 405 c 0,92,93
 434 434 434 434 451.5 481 c 128,-1,94
 469 528 469 528 489 579 c 128,-1,95
 509 630 509 630 529.5 676.5 c 128,-1,96
 550 723 550 723 564 750 c 0,97,98
 568 758 568 758 574.5 761.5 c 128,-1,99
 581 765 581 765 589 765 c 0,100,101
 596 765 596 765 602 762 c 0,102,103
 617 754 617 754 617 735 c 1,104,105
 632 706 632 706 651.5 659.5 c 128,-1,106
 671 613 671 613 690.5 564 c 128,-1,107
 710 515 710 515 727 469.5 c 128,-1,108
 744 424 744 424 753 396 c 0,109,110
 760 373 760 373 777 330.5 c 128,-1,111
 794 288 794 288 814 239.5 c 128,-1,112
 834 191 834 191 854 143.5 c 128,-1,113
 874 96 874 96 888 64 c 1,114,115
 901 94 901 94 921.5 142.5 c 128,-1,116
 942 191 942 191 963 241.5 c 128,-1,117
 984 292 984 292 1001.5 337 c 128,-1,118
 1019 382 1019 382 1027 405 c 0,119,120
 1036 434 1036 434 1053.5 481 c 128,-1,121
 1071 528 1071 528 1091 579 c 128,-1,122
 1111 630 1111 630 1131.5 676.5 c 128,-1,123
 1152 723 1152 723 1166 750 c 0,124,125
 1170 758 1170 758 1176.5 761.5 c 128,-1,126
 1183 765 1183 765 1191 765 c 0,127,128
 1198 765 1198 765 1204 762 c 0,0,1
EndSplineSet
EndChar

StartChar: X
Encoding: 88 88 77
Width: 611
Flags: W
LayerCount: 2
Fore
SplineSet
380 346.5 m 128,-1,1
 402 312 402 312 428 270.5 c 128,-1,2
 454 229 454 229 482 186.5 c 128,-1,3
 510 144 510 144 533 109 c 128,-1,4
 556 74 556 74 570.5 51.5 c 128,-1,5
 585 29 585 29 586 28 c 0,6,7
 591 21 591 21 591 13 c 0,8,9
 591 -2 591 -2 578 -10 c 0,10,11
 571 -15 571 -15 563 -15 c 0,12,13
 548 -15 548 -15 540 -2 c 0,14,15
 538 1 538 1 524 22 c 128,-1,16
 510 43 510 43 489 75 c 128,-1,17
 468 107 468 107 442.5 146 c 128,-1,18
 417 185 417 185 391.5 224 c 128,-1,19
 366 263 366 263 344 298 c 128,-1,20
 322 333 322 333 308 357 c 1,21,22
 294 333 294 333 272 298 c 128,-1,23
 250 263 250 263 225 224 c 128,-1,24
 200 185 200 185 174 146 c 128,-1,25
 148 107 148 107 127 75 c 128,-1,26
 106 43 106 43 92 22 c 128,-1,27
 78 1 78 1 76 -2 c 0,28,29
 68 -15 68 -15 53 -15 c 0,30,31
 46 -15 46 -15 38 -10 c 0,32,33
 26 -3 26 -3 26 13 c 0,34,35
 26 23 26 23 30 28 c 0,36,37
 30 29 30 29 45 51.5 c 128,-1,38
 60 74 60 74 83 109 c 128,-1,39
 106 144 106 144 134 186.5 c 128,-1,40
 162 229 162 229 188.5 270 c 128,-1,41
 215 311 215 311 236.5 346 c 128,-1,42
 258 381 258 381 269 400 c 2,43,-1
 276 412 l 1,44,45
 256 446 256 446 229.5 488.5 c 128,-1,46
 203 531 203 531 176.5 572 c 128,-1,47
 150 613 150 613 126 649 c 128,-1,48
 102 685 102 685 86 706 c 0,49,50
 81 714 81 714 81 723 c 0,51,52
 81 736 81 736 92 745 c 1,53,54
 100 750 100 750 109 750 c 0,55,56
 122 750 122 750 131 739 c 0,57,58
 147 718 147 718 169 685.5 c 128,-1,59
 191 653 191 653 215 615.5 c 128,-1,60
 239 578 239 578 263.5 539 c 128,-1,61
 288 500 288 500 308 467 c 1,62,63
 328 500 328 500 352.5 539 c 128,-1,64
 377 578 377 578 401.5 615.5 c 128,-1,65
 426 653 426 653 448 685.5 c 128,-1,66
 470 718 470 718 486 739 c 0,67,68
 494 750 494 750 508 750 c 0,69,70
 517 750 517 750 525 745 c 1,71,72
 535 736 535 736 535 723 c 0,73,74
 535 712 535 712 530 706 c 0,75,76
 514 685 514 685 490 649 c 128,-1,77
 466 613 466 613 439.5 572 c 128,-1,78
 413 531 413 531 386.5 488.5 c 128,-1,79
 360 446 360 446 340 412 c 1,80,-1
 347 400 l 2,81,0
 358 381 358 381 380 346.5 c 128,-1,1
EndSplineSet
EndChar

StartChar: Y
Encoding: 89 89 78
Width: 531
Flags: W
LayerCount: 2
Fore
SplineSet
520 760 m 0,0,1
 531 752 531 752 531 737 c 0,2,3
 531 727 531 727 526 720 c 0,4,5
 507 695 507 695 477.5 651 c 128,-1,6
 448 607 448 607 416.5 557.5 c 128,-1,7
 385 508 385 508 356 461 c 128,-1,8
 327 414 327 414 310 383 c 0,9,10
 305 372 305 372 295.5 356.5 c 128,-1,11
 286 341 286 341 272 319 c 1,12,13
 273 295 273 295 276 263 c 128,-1,14
 279 231 279 231 282.5 197 c 128,-1,15
 286 163 286 163 289.5 130 c 128,-1,16
 293 97 293 97 296.5 70.5 c 128,-1,17
 300 44 300 44 302 27 c 128,-1,18
 304 10 304 10 304 9 c 0,19,20
 304 -2 304 -2 296.5 -9.5 c 128,-1,21
 289 -17 289 -17 276 -19 c 1,22,23
 265 -19 265 -19 257.5 -12.5 c 128,-1,24
 250 -6 250 -6 248 5 c 0,25,26
 248 7 248 7 246 23 c 128,-1,27
 244 39 244 39 241 63.5 c 128,-1,28
 238 88 238 88 234.5 119 c 128,-1,29
 231 150 231 150 227.5 182 c 128,-1,30
 224 214 224 214 221 245.5 c 128,-1,31
 218 277 218 277 217 303 c 1,32,33
 211 309 211 309 211 319 c 0,34,35
 211 328 211 328 215 333 c 1,36,37
 212 335 212 335 208 341 c 0,38,39
 191 371 191 371 158.5 424 c 128,-1,40
 126 477 126 477 89 534.5 c 128,-1,41
 52 592 52 592 18 643 c 128,-1,42
 -16 694 -16 694 -35 720 c 0,43,44
 -41 729 -41 729 -41 737 c 0,45,46
 -41 751 -41 751 -30 760 c 1,47,48
 -22 765 -22 765 -13 765 c 0,49,50
 -7 765 -7 765 -1 762.5 c 128,-1,51
 5 760 5 760 9 754 c 0,52,53
 28 729 28 729 60 681.5 c 128,-1,54
 92 634 92 634 127 580 c 128,-1,55
 162 526 162 526 194.5 473.5 c 128,-1,56
 227 421 227 421 247 386 c 1,57,58
 256 401 256 401 262 410 c 1,59,60
 272 429 272 429 288.5 457 c 128,-1,61
 305 485 305 485 325 517 c 128,-1,62
 345 549 345 549 366.5 583 c 128,-1,63
 388 617 388 617 409 649 c 128,-1,64
 430 681 430 681 448.5 708.5 c 128,-1,65
 467 736 467 736 481 754 c 0,66,67
 489 765 489 765 504 765 c 0,68,69
 512 765 512 765 520 760 c 0,0,1
EndSplineSet
EndChar

StartChar: Z
Encoding: 90 90 79
Width: 644
Flags: W
LayerCount: 2
Fore
SplineSet
681 29 m 0,0,1
 692 27 692 27 699 19 c 128,-1,2
 706 11 706 11 705 -3 c 0,3,4
 704 -14 704 -14 696 -20.5 c 128,-1,5
 688 -27 688 -27 674 -27 c 1,6,-1
 655 -25 l 2,7,8
 635 -23 635 -23 599 -20 c 128,-1,9
 563 -17 563 -17 512.5 -15 c 128,-1,10
 462 -13 462 -13 400 -13 c 0,11,12
 358 -13 358 -13 314 -14.5 c 128,-1,13
 270 -16 270 -16 228.5 -18 c 128,-1,14
 187 -20 187 -20 150 -22.5 c 128,-1,15
 113 -25 113 -25 85 -27 c 128,-1,16
 57 -29 57 -29 40.5 -30.5 c 128,-1,17
 24 -32 24 -32 23 -32 c 0,18,19
 12 -32 12 -32 4 -24.5 c 128,-1,20
 -4 -17 -4 -17 -5 -4 c 0,21,22
 -5 7 -5 7 2 15 c 128,-1,23
 9 23 9 23 20 24 c 1,24,-1
 36 34 l 2,25,26
 36 35 36 35 51 57.5 c 128,-1,27
 66 80 66 80 89.5 115.5 c 128,-1,28
 113 151 113 151 141 194 c 128,-1,29
 169 237 169 237 195.5 278.5 c 128,-1,30
 222 320 222 320 244 355.5 c 128,-1,31
 266 391 266 391 277 410 c 0,32,33
 290 434 290 434 312 470 c 128,-1,34
 334 506 334 506 359.5 547 c 128,-1,35
 385 588 385 588 412 629.5 c 128,-1,36
 439 671 439 671 462 704 c 1,37,38
 441 707 441 707 404 710.5 c 128,-1,39
 367 714 367 714 316 714 c 0,40,41
 277 714 277 714 236 711 c 128,-1,42
 195 708 195 708 160.5 704.5 c 128,-1,43
 126 701 126 701 103.5 698 c 128,-1,44
 81 695 81 695 79 695 c 0,45,46
 68 695 68 695 60.5 702 c 128,-1,47
 53 709 53 709 51 723 c 1,48,49
 51 734 51 734 57.5 741.5 c 128,-1,50
 64 749 64 749 75 751 c 0,51,52
 77 751 77 751 99.5 754 c 128,-1,53
 122 757 122 757 156.5 760.5 c 128,-1,54
 191 764 191 764 233 767 c 128,-1,55
 275 770 275 770 316 770 c 0,56,57
 398 770 398 770 446.5 763 c 128,-1,58
 495 756 495 756 498 755 c 1,59,60
 505 765 505 765 519 765 c 0,61,62
 528 765 528 765 536 760 c 1,63,64
 547 751 547 751 547 737 c 0,65,66
 547 730 547 730 542 720 c 1,67,68
 523 695 523 695 493.5 651 c 128,-1,69
 464 607 464 607 432.5 557.5 c 128,-1,70
 401 508 401 508 372 461 c 128,-1,71
 343 414 343 414 326 383 c 0,72,73
 317 367 317 367 300 339.5 c 128,-1,74
 283 312 283 312 262 279.5 c 128,-1,75
 241 247 241 247 218 211 c 128,-1,76
 195 175 195 175 173 141.5 c 128,-1,77
 151 108 151 108 132 79 c 128,-1,78
 113 50 113 50 100 31 c 1,79,80
 129 33 129 33 164.5 35 c 128,-1,81
 200 37 200 37 239.5 39 c 128,-1,82
 279 41 279 41 320 42 c 128,-1,83
 361 43 361 43 400 43 c 0,84,85
 464 43 464 43 515 41 c 128,-1,86
 566 39 566 39 602.5 36 c 128,-1,87
 639 33 639 33 659 31 c 128,-1,88
 679 29 679 29 681 29 c 0,0,1
EndSplineSet
EndChar

StartChar: bracketleft
Encoding: 91 91 80
Width: 354
Flags: W
LayerCount: 2
Fore
SplineSet
285 40 m 2,0,1
 296 40 296 40 304 32 c 128,-1,2
 312 24 312 24 313 12 c 0,3,4
 313 1 313 1 305 -7 c 128,-1,5
 297 -15 297 -15 286 -16 c 0,6,7
 258 -18 258 -18 231.5 -20.5 c 128,-1,8
 205 -23 205 -23 183.5 -26 c 128,-1,9
 162 -29 162 -29 147.5 -31 c 128,-1,10
 133 -33 133 -33 130 -33 c 0,11,12
 119 -33 119 -33 111 -25 c 128,-1,13
 103 -17 103 -17 102 0 c 0,14,15
 101 3 101 3 98.5 27 c 128,-1,16
 96 51 96 51 92.5 86.5 c 128,-1,17
 89 122 89 122 85 165 c 128,-1,18
 81 208 81 208 77.5 249.5 c 128,-1,19
 74 291 74 291 71.5 326 c 128,-1,20
 69 361 69 361 69 381 c 0,21,22
 69 412 69 412 66.5 459 c 128,-1,23
 64 506 64 506 60 555.5 c 128,-1,24
 56 605 56 605 51 650 c 128,-1,25
 46 695 46 695 41 722 c 1,26,27
 41 732 41 732 48 740 c 128,-1,28
 55 748 55 748 69 750 c 0,29,30
 74 750 74 750 80 748 c 1,31,32
 88 754 88 754 95 755 c 1,33,-1
 99 728 l 1,34,-1
 95 755 l 1,35,36
 98 756 98 756 112.5 758 c 128,-1,37
 127 760 127 760 149 763 c 128,-1,38
 171 766 171 766 198.5 768.5 c 128,-1,39
 226 771 226 771 255 773 c 0,40,41
 266 773 266 773 274 765 c 128,-1,42
 282 757 282 757 282 745 c 0,43,44
 282 734 282 734 274.5 726 c 128,-1,45
 267 718 267 718 256 717 c 0,46,47
 228 715 228 715 201.5 712.5 c 128,-1,48
 175 710 175 710 153 707 c 128,-1,49
 131 704 131 704 117 702 c 128,-1,50
 103 700 103 700 101 700 c 1,51,52
 106 667 106 667 110.5 623 c 128,-1,53
 115 579 115 579 118 534 c 128,-1,54
 121 489 121 489 123 448 c 128,-1,55
 125 407 125 407 125 381 c 0,56,57
 125 365 125 365 126.5 337 c 128,-1,58
 128 309 128 309 131 275.5 c 128,-1,59
 134 242 134 242 137.5 205 c 128,-1,60
 141 168 141 168 144 134.5 c 128,-1,61
 147 101 147 101 150 72.5 c 128,-1,62
 153 44 153 44 155 27 c 1,63,64
 178 30 178 30 212 34 c 128,-1,65
 246 38 246 38 283 40 c 1,66,-1
 285 40 l 2,0,1
EndSplineSet
EndChar

StartChar: backslash
Encoding: 92 92 81
Width: 389
Flags: W
LayerCount: 2
Fore
SplineSet
215 397 m 0,0,1
 220 378 220 378 232.5 343 c 128,-1,2
 245 308 245 308 260.5 266.5 c 128,-1,3
 276 225 276 225 293 182 c 128,-1,4
 310 139 310 139 323.5 103.5 c 128,-1,5
 337 68 337 68 346 45.5 c 128,-1,6
 355 23 355 23 356 22 c 0,7,8
 361 11 361 11 356 2 c 128,-1,9
 351 -7 351 -7 337 -9 c 1,10,11
 326 -9 326 -9 316.5 -2 c 128,-1,12
 307 5 307 5 302 16 c 0,13,14
 301 19 301 19 291.5 43 c 128,-1,15
 282 67 282 67 268 102.5 c 128,-1,16
 254 138 254 138 237.5 181 c 128,-1,17
 221 224 221 224 205.5 265.5 c 128,-1,18
 190 307 190 307 177.5 342 c 128,-1,19
 165 377 165 377 159 397 c 0,20,21
 150 428 150 428 134 475 c 128,-1,22
 118 522 118 522 99.5 570.5 c 128,-1,23
 81 619 81 619 63.5 663 c 128,-1,24
 46 707 46 707 34 732 c 0,25,26
 29 743 29 743 32 753 c 128,-1,27
 35 763 35 763 46 765 c 256,28,29
 57 767 57 767 68.5 760.5 c 128,-1,30
 80 754 80 754 86 743 c 0,31,32
 99 716 99 716 118 669 c 128,-1,33
 137 622 137 622 155.5 571.5 c 128,-1,34
 174 521 174 521 190 473.5 c 128,-1,35
 206 426 206 426 215 397 c 0,0,1
EndSplineSet
EndChar

StartChar: bracketright
Encoding: 93 93 82
Width: 391
Flags: W
LayerCount: 2
Fore
SplineSet
348 42 m 1,0,1
 350 39 350 39 350 31 c 0,2,3
 350 20 350 20 341.5 11.5 c 128,-1,4
 333 3 333 3 318 3 c 0,5,6
 312 3 312 3 297 3 c 128,-1,7
 282 3 282 3 261.5 2 c 128,-1,8
 241 1 241 1 216 -0.5 c 128,-1,9
 191 -2 191 -2 166 -5 c 1,10,11
 155 -5 155 -5 147 2.5 c 128,-1,12
 139 10 139 10 138 23 c 0,13,14
 138 34 138 34 145 41.5 c 128,-1,15
 152 49 152 49 163 51 c 0,16,17
 199 55 199 55 233 56.5 c 128,-1,18
 267 58 267 58 290 59 c 1,19,20
 288 76 288 76 284.5 104.5 c 128,-1,21
 281 133 281 133 276.5 166.5 c 128,-1,22
 272 200 272 200 267 236 c 128,-1,23
 262 272 262 272 257 305 c 128,-1,24
 252 338 252 338 247.5 365.5 c 128,-1,25
 243 393 243 393 239 409 c 0,26,27
 233 434 233 434 225.5 474.5 c 128,-1,28
 218 515 218 515 210 560 c 128,-1,29
 202 605 202 605 194.5 649 c 128,-1,30
 187 693 187 693 181 725 c 1,31,32
 168 725 168 725 124 724 c 128,-1,33
 80 723 80 723 28 717 c 1,34,35
 17 717 17 717 9.5 724.5 c 128,-1,36
 2 732 2 732 0 745 c 1,37,38
 0 756 0 756 7 764 c 128,-1,39
 14 772 14 772 25 773 c 0,40,41
 51 776 51 776 76 777.5 c 128,-1,42
 101 779 101 779 123 780 c 128,-1,43
 145 781 145 781 161 781 c 128,-1,44
 177 781 177 781 185 781 c 256,45,46
 193 781 193 781 201 776 c 1,47,48
 208 781 208 781 216 781 c 0,49,50
 227 781 227 781 235 773 c 128,-1,51
 243 765 243 765 244 754 c 0,52,53
 245 729 245 729 250 685 c 128,-1,54
 255 641 255 641 262.5 592.5 c 128,-1,55
 270 544 270 544 278 497.5 c 128,-1,56
 286 451 286 451 293 421 c 0,57,58
 298 402 298 402 303.5 367 c 128,-1,59
 309 332 309 332 315.5 291 c 128,-1,60
 322 250 322 250 327.5 207 c 128,-1,61
 333 164 333 164 337.5 129 c 128,-1,62
 342 94 342 94 345 70 c 128,-1,63
 348 46 348 46 348 43 c 2,64,-1
 348 42 l 1,0,1
EndSplineSet
EndChar

StartChar: asciicircum
Encoding: 94 94 83
Width: 487
Flags: W
LayerCount: 2
Fore
SplineSet
383 514 m 0,0,1
 413 438 413 438 424 390 c 128,-1,2
 435 342 435 342 436 336 c 1,3,4
 436 326 436 326 429 318 c 128,-1,5
 422 310 422 310 408 308 c 1,6,7
 397 308 397 308 389.5 314.5 c 128,-1,8
 382 321 382 321 380 331 c 0,9,10
 380 332 380 332 369.5 377 c 128,-1,11
 359 422 359 422 331 494 c 0,12,13
 314 536 314 536 294 578 c 128,-1,14
 274 620 274 620 257 652 c 1,15,16
 243 619 243 619 223 574.5 c 128,-1,17
 203 530 203 530 180 488 c 0,18,19
 140 416 140 416 111 377.5 c 128,-1,20
 82 339 82 339 80 337 c 0,21,22
 71 327 71 327 59 327 c 0,23,24
 48 327 48 327 41 334 c 1,25,26
 31 341 31 341 31 355 c 0,27,28
 31 365 31 365 37 373 c 0,29,30
 38 374 38 374 65.5 410.5 c 128,-1,31
 93 447 93 447 131 515 c 0,32,33
 150 549 150 549 167 586.5 c 128,-1,34
 184 624 184 624 197.5 655.5 c 128,-1,35
 211 687 211 687 219 708 c 2,36,-1
 227 728 l 1,37,-1
 232 737 l 1,38,-1
 241 743 l 1,39,-1
 251 746 l 1,40,-1
 263 745 l 1,41,-1
 272 740 l 1,42,-1
 278 732 l 2,43,44
 279 730 279 730 290 710 c 128,-1,45
 301 690 301 690 317 659 c 128,-1,46
 333 628 333 628 350.5 590 c 128,-1,47
 368 552 368 552 383 514 c 0,0,1
EndSplineSet
EndChar

StartChar: underscore
Encoding: 95 95 84
Width: 685
Flags: W
LayerCount: 2
Fore
SplineSet
585.5 46 m 128,-1,1
 514 53 514 53 390 53 c 0,2,3
 329 53 329 53 264.5 50 c 128,-1,4
 200 47 200 47 147 43.5 c 128,-1,5
 94 40 94 40 60 37 c 128,-1,6
 26 34 26 34 25 34 c 0,7,8
 14 32 14 32 7 24.5 c 128,-1,9
 0 17 0 17 0 6 c 0,10,11
 1 -7 1 -7 9 -15 c 128,-1,12
 17 -23 17 -23 28 -22 c 0,13,14
 30 -22 30 -22 64 -19 c 128,-1,15
 98 -16 98 -16 150.5 -12.5 c 128,-1,16
 203 -9 203 -9 266.5 -6 c 128,-1,17
 330 -3 330 -3 390 -3 c 256,18,19
 450 -3 450 -3 498 -5 c 128,-1,20
 546 -7 546 -7 580.5 -10 c 128,-1,21
 615 -13 615 -13 634 -15 c 2,22,-1
 653 -17 l 1,23,24
 667 -17 667 -17 675 -10.5 c 128,-1,25
 683 -4 683 -4 685 7 c 1,26,27
 685 20 685 20 678.5 28 c 128,-1,28
 672 36 672 36 661 38 c 0,29,0
 657 39 657 39 585.5 46 c 128,-1,1
585.5 46 m 128,-1,31
 514 53 514 53 390 53 c 0,32,33
 329 53 329 53 264.5 50 c 128,-1,34
 200 47 200 47 147 43.5 c 128,-1,35
 94 40 94 40 60 37 c 128,-1,36
 26 34 26 34 25 34 c 0,37,38
 14 32 14 32 7 24.5 c 128,-1,39
 0 17 0 17 0 6 c 0,40,41
 1 -7 1 -7 9 -15 c 128,-1,42
 17 -23 17 -23 28 -22 c 0,43,44
 30 -22 30 -22 64 -19 c 128,-1,45
 98 -16 98 -16 150.5 -12.5 c 128,-1,46
 203 -9 203 -9 266.5 -6 c 128,-1,47
 330 -3 330 -3 390 -3 c 256,48,49
 450 -3 450 -3 498 -5 c 128,-1,50
 546 -7 546 -7 580.5 -10 c 128,-1,51
 615 -13 615 -13 634 -15 c 2,52,-1
 653 -17 l 1,53,54
 667 -17 667 -17 675 -10.5 c 128,-1,55
 683 -4 683 -4 685 7 c 1,56,57
 685 20 685 20 678.5 28 c 128,-1,58
 672 36 672 36 661 38 c 0,59,30
 657 39 657 39 585.5 46 c 128,-1,31
EndSplineSet
EndChar

StartChar: grave
Encoding: 96 96 85
Width: 717
Flags: W
LayerCount: 2
Fore
SplineSet
426 554 m 0,0,1
 431 546 431 546 437 538 c 128,-1,2
 443 530 443 530 456 518 c 0,3,4
 465 510 465 510 465 498 c 256,5,6
 465 486 465 486 458 479 c 0,7,8
 449 470 449 470 437 470 c 0,9,10
 426 470 426 470 418 477 c 0,11,12
 402 492 402 492 394 503 c 128,-1,13
 386 514 386 514 380 523 c 0,14,15
 374 531 374 531 368 539 c 128,-1,16
 362 547 362 547 348 559 c 0,17,18
 334 572 334 572 325 578 c 128,-1,19
 316 584 316 584 308 589 c 0,20,21
 299 594 299 594 288.5 601 c 128,-1,22
 278 608 278 608 261 622 c 1,23,24
 252 631 252 631 252 644 c 0,25,26
 252 653 252 653 258 662 c 1,27,28
 268 672 268 672 280 672 c 0,29,30
 287 672 287 672 298 665 c 1,31,32
 312 653 312 653 320.5 647 c 128,-1,33
 329 641 329 641 337 636 c 0,34,35
 347 631 347 631 357.5 623.5 c 128,-1,36
 368 616 368 616 385 601 c 0,37,38
 402 585 402 585 411 574 c 128,-1,39
 420 563 420 563 426 554 c 0,0,1
EndSplineSet
EndChar

StartChar: a
Encoding: 97 97 86
Width: 560
Flags: W
LayerCount: 2
Fore
SplineSet
246 38 m 0,0,1
 267 38 267 38 292 57.5 c 128,-1,2
 317 77 317 77 340.5 110 c 128,-1,3
 364 143 364 143 383 187.5 c 128,-1,4
 402 232 402 232 411 282 c 1,5,6
 404 330 404 330 400 383 c 128,-1,7
 396 436 396 436 395 496 c 1,8,9
 384 505 384 505 384 518 c 1,10,11
 377 521 377 521 369.5 523 c 128,-1,12
 362 525 362 525 353 525 c 0,13,14
 340 525 340 525 316 519.5 c 128,-1,15
 292 514 292 514 264 501.5 c 128,-1,16
 236 489 236 489 207.5 469 c 128,-1,17
 179 449 179 449 155.5 420 c 128,-1,18
 132 391 132 391 117 353 c 128,-1,19
 102 315 102 315 102 267 c 0,20,21
 102 191 102 191 114.5 146 c 128,-1,22
 127 101 127 101 147.5 77 c 128,-1,23
 168 53 168 53 193.5 45.5 c 128,-1,24
 219 38 219 38 246 38 c 0,0,1
468 282 m 1,25,26
 477 220 477 220 489 171 c 128,-1,27
 501 122 501 122 511.5 88 c 128,-1,28
 522 54 522 54 529.5 35.5 c 128,-1,29
 537 17 537 17 537 16 c 0,30,31
 538 13 538 13 538.5 10.5 c 128,-1,32
 539 8 539 8 539 5 c 0,33,34
 539 -13 539 -13 523 -21 c 1,35,36
 515 -23 515 -23 511 -23 c 0,37,38
 492 -23 492 -23 486 -7 c 0,39,40
 484 -3 484 -3 467.5 40.5 c 128,-1,41
 451 84 451 84 433 162 c 1,42,43
 417 123 417 123 395.5 90 c 128,-1,44
 374 57 374 57 349.5 33 c 128,-1,45
 325 9 325 9 298.5 -4.5 c 128,-1,46
 272 -18 272 -18 246 -18 c 0,47,48
 144 -18 144 -18 95 52 c 128,-1,49
 46 122 46 122 46 267 c 0,50,51
 46 327 46 327 64 373.5 c 128,-1,52
 82 420 82 420 110.5 455 c 128,-1,53
 139 490 139 490 174.5 514 c 128,-1,54
 210 538 210 538 244 553 c 128,-1,55
 278 568 278 568 307 574.5 c 128,-1,56
 336 581 336 581 353 581 c 0,57,58
 383 581 383 581 405 569.5 c 128,-1,59
 427 558 427 558 441.5 543.5 c 128,-1,60
 456 529 456 529 463 516.5 c 128,-1,61
 470 504 470 504 470 503 c 0,62,63
 473 498 473 498 473 492 c 0,64,65
 473 482 473 482 464 471 c 1,66,67
 473 424 473 424 473 347 c 0,68,69
 473 331 473 331 471.5 315 c 128,-1,70
 470 299 470 299 468 282 c 1,25,26
EndSplineSet
EndChar

StartChar: b
Encoding: 98 98 87
Width: 564
Flags: W
LayerCount: 2
Fore
SplineSet
403 81 m 0,0,1
 467 130 467 130 467 227 c 0,2,3
 467 307 467 307 452.5 359 c 128,-1,4
 438 411 438 411 415.5 443 c 128,-1,5
 393 475 393 475 365.5 491 c 128,-1,6
 338 507 338 507 311 515 c 0,7,8
 307 517 307 517 303 517 c 128,-1,9
 299 517 299 517 295 517 c 0,10,11
 281 517 281 517 267.5 511 c 128,-1,12
 254 505 254 505 244 497 c 0,13,14
 226 483 226 483 207.5 460 c 128,-1,15
 189 437 189 437 174.5 405.5 c 128,-1,16
 160 374 160 374 151 335.5 c 128,-1,17
 142 297 142 297 142 253 c 1,18,19
 147 211 147 211 153 171 c 128,-1,20
 159 131 159 131 165 96 c 1,21,22
 176 88 176 88 176 70 c 1,23,24
 184 62 184 62 194 56 c 128,-1,25
 204 50 204 50 216 47 c 0,26,27
 234 41 234 41 266 41 c 256,28,29
 298 41 298 41 335 49.5 c 128,-1,30
 372 58 372 58 403 81 c 0,0,1
327 569 m 0,31,32
 427 539 427 539 475 455.5 c 128,-1,33
 523 372 523 372 523 227 c 0,34,35
 523 100 523 100 436 36 c 0,36,37
 398 7 398 7 352.5 -4 c 128,-1,38
 307 -15 307 -15 266 -15 c 0,39,40
 227 -15 227 -15 200 -7 c 0,41,42
 194 -5 194 -5 188 -2.5 c 128,-1,43
 182 0 182 0 177 2 c 1,44,45
 177 -20 177 -20 149 -25 c 1,46,47
 139 -25 139 -25 131.5 -18.5 c 128,-1,48
 124 -12 124 -12 122 -1 c 0,49,50
 121 1 121 1 118.5 17 c 128,-1,51
 116 33 116 33 112 59 c 1,52,53
 100 75 100 75 94.5 87 c 128,-1,54
 89 99 89 99 88 100 c 0,55,56
 87 103 87 103 86.5 105.5 c 128,-1,57
 86 108 86 108 86 111 c 0,58,59
 86 123 86 123 95 131 c 1,60,61
 91 153 91 153 90 182 c 128,-1,62
 89 211 89 211 86 249 c 0,63,64
 81 306 81 306 75.5 359.5 c 128,-1,65
 70 413 70 413 70 451 c 0,66,67
 70 499 70 499 67 553 c 128,-1,68
 64 607 64 607 60.5 653.5 c 128,-1,69
 57 700 57 700 54 731 c 128,-1,70
 51 762 51 762 51 764 c 0,71,72
 51 775 51 775 58.5 782.5 c 128,-1,73
 66 790 66 790 79 792 c 1,74,75
 90 792 90 792 98 784.5 c 128,-1,76
 106 777 106 777 107 766 c 0,77,78
 107 763 107 763 110 732 c 128,-1,79
 113 701 113 701 116.5 655 c 128,-1,80
 120 609 120 609 123 554.5 c 128,-1,81
 126 500 126 500 126 451 c 2,82,-1
 126 435 l 1,83,84
 142 468 142 468 163 495.5 c 128,-1,85
 184 523 184 523 210 542 c 0,86,87
 251 573 251 573 296 573 c 0,88,89
 304 573 304 573 311.5 572 c 128,-1,90
 319 571 319 571 327 569 c 0,31,32
EndSplineSet
EndChar

StartChar: c
Encoding: 99 99 88
Width: 421
Flags: W
LayerCount: 2
Fore
SplineSet
327 56 m 2,0,1
 334 60 334 60 343 60 c 0,2,3
 358 60 358 60 366 48 c 0,4,5
 371 40 371 40 371 32 c 0,6,7
 371 19 371 19 358 9 c 2,8,-1
 351 4 l 2,9,10
 343 -1 343 -1 330 -6 c 128,-1,11
 317 -11 317 -11 300.5 -15.5 c 128,-1,12
 284 -20 284 -20 265 -20 c 0,13,14
 241 -20 241 -20 207 -5.5 c 128,-1,15
 173 9 173 9 140.5 43.5 c 128,-1,16
 108 78 108 78 83 134.5 c 128,-1,17
 58 191 58 191 52 274 c 0,18,19
 51 280 51 280 51 285.5 c 128,-1,20
 51 291 51 291 51 297 c 0,21,22
 51 362 51 362 74.5 414 c 128,-1,23
 98 466 98 466 131 502.5 c 128,-1,24
 164 539 164 539 199.5 559.5 c 128,-1,25
 235 580 235 580 260 582 c 0,26,27
 265 583 265 583 270.5 583 c 128,-1,28
 276 583 276 583 281 583 c 0,29,30
 310 583 310 583 331.5 577.5 c 128,-1,31
 353 572 353 572 361 568 c 1,32,33
 372 566 372 566 384 552.5 c 128,-1,34
 396 539 396 539 396 501 c 0,35,36
 396 489 396 489 387.5 481 c 128,-1,37
 379 473 379 473 368 473 c 0,38,39
 356 473 356 473 348 481 c 128,-1,40
 340 489 340 489 340 501 c 0,41,42
 340 509 340 509 338 517 c 1,43,44
 332 519 332 519 317 523 c 128,-1,45
 302 527 302 527 281 527 c 0,46,47
 277 527 277 527 273.5 527 c 128,-1,48
 270 527 270 527 265 526 c 0,49,50
 249 524 249 524 222.5 508 c 128,-1,51
 196 492 196 492 170.5 462.5 c 128,-1,52
 145 433 145 433 126 391 c 128,-1,53
 107 349 107 349 107 296 c 0,54,55
 107 291 107 291 107 287 c 128,-1,56
 107 283 107 283 108 278 c 0,57,58
 112 210 112 210 131 164 c 128,-1,59
 150 118 150 118 174.5 89.5 c 128,-1,60
 199 61 199 61 223.5 48.5 c 128,-1,61
 248 36 248 36 265 36 c 0,62,63
 277 36 277 36 288 39 c 128,-1,64
 299 42 299 42 308 45.5 c 128,-1,65
 317 49 317 49 322 53 c 2,66,-1
 327 56 l 2,0,1
EndSplineSet
EndChar

StartChar: d
Encoding: 100 100 89
Width: 541
Flags: W
LayerCount: 2
Fore
SplineSet
405 118 m 0,0,1
 410 125 410 125 420 128 c 1,2,3
 414 167 414 167 408.5 211.5 c 128,-1,4
 403 256 403 256 398.5 299.5 c 128,-1,5
 394 343 394 343 391 382.5 c 128,-1,6
 388 422 388 422 388 451 c 0,7,8
 388 458 388 458 388 465 c 128,-1,9
 388 472 388 472 387 480 c 1,10,11
 371 485 371 485 368 503 c 0,12,13
 368 505 368 505 365.5 509.5 c 128,-1,14
 363 514 363 514 355 518 c 256,15,16
 347 522 347 522 336 522 c 256,17,18
 325 522 325 522 314 518.5 c 128,-1,19
 303 515 303 515 294 511 c 0,20,21
 266 498 266 498 237 473 c 128,-1,22
 208 448 208 448 182.5 417 c 128,-1,23
 157 386 157 386 137.5 351.5 c 128,-1,24
 118 317 118 317 109 285 c 0,25,26
 102 258 102 258 102 230 c 0,27,28
 102 195 102 195 113.5 165 c 128,-1,29
 125 135 125 135 142.5 111 c 128,-1,30
 160 87 160 87 181 70.5 c 128,-1,31
 202 54 202 54 221 45 c 0,32,33
 233 39 233 39 252 39 c 0,34,35
 285 39 285 39 327.5 57.5 c 128,-1,36
 370 76 370 76 405 118 c 0,0,1
444 451 m 0,37,38
 444 419 444 419 447.5 374 c 128,-1,39
 451 329 451 329 457 280 c 128,-1,40
 463 231 463 231 469.5 182.5 c 128,-1,41
 476 134 476 134 481.5 94.5 c 128,-1,42
 487 55 487 55 491 30 c 128,-1,43
 495 5 495 5 495 3 c 0,44,45
 495 -7 495 -7 488 -15 c 128,-1,46
 481 -23 481 -23 467 -25 c 1,47,48
 457 -25 457 -25 449 -18.5 c 128,-1,49
 441 -12 441 -12 439 -1 c 0,50,51
 439 1 439 1 436.5 18 c 128,-1,52
 434 35 434 35 430 63 c 1,53,54
 389 21 389 21 342 2 c 128,-1,55
 295 -17 295 -17 253 -17 c 0,56,57
 219 -17 219 -17 198 -6 c 1,58,59
 168 8 168 8 140.5 31.5 c 128,-1,60
 113 55 113 55 92 85.5 c 128,-1,61
 71 116 71 116 58.5 153 c 128,-1,62
 46 190 46 190 46 231 c 0,63,64
 46 264 46 264 55 300 c 0,65,66
 65 338 65 338 87.5 378 c 128,-1,67
 110 418 110 418 139 453 c 128,-1,68
 168 488 168 488 202 516.5 c 128,-1,69
 236 545 236 545 270 561 c 0,70,71
 306 578 306 578 336 578 c 0,72,73
 348 578 348 578 359 575.5 c 128,-1,74
 370 573 370 573 384 566 c 1,75,76
 382 603 382 603 379.5 638 c 128,-1,77
 377 673 377 673 374.5 700.5 c 128,-1,78
 372 728 372 728 370.5 745 c 128,-1,79
 369 762 369 762 369 764 c 0,80,81
 369 775 369 775 376.5 782.5 c 128,-1,82
 384 790 384 790 397 792 c 1,83,84
 408 792 408 792 415.5 784.5 c 128,-1,85
 423 777 423 777 425 766 c 0,86,87
 425 763 425 763 428 732 c 128,-1,88
 431 701 431 701 434.5 655 c 128,-1,89
 438 609 438 609 441 554.5 c 128,-1,90
 444 500 444 500 444 451 c 0,37,38
EndSplineSet
EndChar

StartChar: e
Encoding: 101 101 90
Width: 505
Flags: W
LayerCount: 2
Fore
SplineSet
278 504 m 0,0,1
 269 504 269 504 242.5 494.5 c 128,-1,2
 216 485 216 485 187.5 460.5 c 128,-1,3
 159 436 159 436 134.5 392.5 c 128,-1,4
 110 349 110 349 104 281 c 1,5,6
 121 285 121 285 142.5 290 c 128,-1,7
 164 295 164 295 185.5 299.5 c 128,-1,8
 207 304 207 304 226.5 307 c 128,-1,9
 246 310 246 310 258 310 c 0,10,11
 272 310 272 310 293.5 316.5 c 128,-1,12
 315 323 315 323 336 330 c 0,13,14
 353 336 353 336 368 340.5 c 128,-1,15
 383 345 383 345 397 349 c 1,16,17
 393 389 393 389 380 418 c 128,-1,18
 367 447 367 447 350 466 c 128,-1,19
 333 485 333 485 314 494.5 c 128,-1,20
 295 504 295 504 278 504 c 0,0,1
467 46 m 1,21,22
 478 46 478 46 485.5 39 c 128,-1,23
 493 32 493 32 495 18 c 1,24,25
 495 7 495 7 488.5 -0.5 c 128,-1,26
 482 -8 482 -8 471 -10 c 0,27,28
 469 -10 469 -10 453 -12.5 c 128,-1,29
 437 -15 437 -15 415 -18 c 128,-1,30
 393 -21 393 -21 369 -23 c 128,-1,31
 345 -25 345 -25 328 -25 c 0,32,33
 195 -25 195 -25 124 45.5 c 128,-1,34
 53 116 53 116 46 244 c 1,35,36
 44 309 44 309 57.5 358 c 128,-1,37
 71 407 71 407 93.5 442 c 128,-1,38
 116 477 116 477 144 500 c 128,-1,39
 172 523 172 523 198.5 536 c 128,-1,40
 225 549 225 549 246.5 554.5 c 128,-1,41
 268 560 268 560 278 560 c 0,42,43
 304 560 304 560 333.5 547 c 128,-1,44
 363 534 363 534 388.5 507.5 c 128,-1,45
 414 481 414 481 432 440 c 128,-1,46
 450 399 450 399 454 343 c 1,47,48
 460 335 460 335 460 325 c 256,49,50
 460 315 460 315 454 308 c 1,51,52
 449 288 449 288 427 288 c 0,53,54
 417 288 417 288 410 294 c 1,55,56
 383 288 383 288 354 277 c 0,57,58
 328 268 328 268 303 261 c 128,-1,59
 278 254 278 254 258 254 c 0,60,61
 247 254 247 254 228.5 251 c 128,-1,62
 210 248 210 248 188 243 c 128,-1,63
 166 238 166 238 143.5 232.5 c 128,-1,64
 121 227 121 227 103 222 c 1,65,66
 107 160 107 160 131.5 122.5 c 128,-1,67
 156 85 156 85 189.5 64.5 c 128,-1,68
 223 44 223 44 260.5 37.5 c 128,-1,69
 298 31 298 31 328 31 c 0,70,71
 344 31 344 31 367 33 c 128,-1,72
 390 35 390 35 411 38 c 128,-1,73
 432 41 432 41 448 43 c 2,74,-1
 463 45 l 1,75,-1
 467 46 l 1,21,22
EndSplineSet
EndChar

StartChar: f
Encoding: 102 102 91
Width: 410
Flags: W
LayerCount: 2
Fore
SplineSet
459 561 m 1,0,1
 450 561 450 561 442 567 c 128,-1,2
 434 573 434 573 432 583 c 0,3,4
 432 585 432 585 425 605.5 c 128,-1,5
 418 626 418 626 402.5 649.5 c 128,-1,6
 387 673 387 673 360 692 c 128,-1,7
 333 711 333 711 293 711 c 0,8,9
 258 711 258 711 229 682 c 0,10,11
 215 667 215 667 206.5 648 c 128,-1,12
 198 629 198 629 198 609 c 2,13,-1
 202 457 l 1,14,15
 231 459 231 459 262.5 461 c 128,-1,16
 294 463 294 463 327 465 c 0,17,18
 338 465 338 465 346 457 c 128,-1,19
 354 449 354 449 355 437 c 0,20,21
 355 426 355 426 347 417.5 c 128,-1,22
 339 409 339 409 328 409 c 0,23,24
 296 407 296 407 265 405 c 128,-1,25
 234 403 234 403 205 401 c 1,26,27
 209 346 209 346 218.5 280.5 c 128,-1,28
 228 215 228 215 237 157 c 128,-1,29
 246 99 246 99 253 59.5 c 128,-1,30
 260 20 260 20 260 17 c 0,31,32
 260 -6 260 -6 232 -11 c 1,33,34
 209 -11 209 -11 204 12 c 0,35,36
 204 15 204 15 200.5 34 c 128,-1,37
 197 53 197 53 191.5 83.5 c 128,-1,38
 186 114 186 114 180 152.5 c 128,-1,39
 174 191 174 191 168 233 c 128,-1,40
 162 275 162 275 157 317 c 128,-1,41
 152 359 152 359 149 396 c 1,42,43
 106 392 106 392 79 389 c 128,-1,44
 52 386 52 386 48 385 c 1,45,46
 38 385 38 385 30 392 c 128,-1,47
 22 399 22 399 20 413 c 1,48,49
 20 424 20 424 27 431.5 c 128,-1,50
 34 439 34 439 45 441 c 0,51,52
 46 441 46 441 73.5 444 c 128,-1,53
 101 447 101 447 146 452 c 1,54,-1
 146 465 l 1,55,-1
 142 611 l 2,56,57
 142 640 142 640 154.5 669 c 128,-1,58
 167 698 167 698 189 721 c 0,59,60
 211 743 211 743 237.5 755 c 128,-1,61
 264 767 264 767 293 767 c 0,62,63
 339 767 339 767 373 748.5 c 128,-1,64
 407 730 407 730 430.5 703 c 128,-1,65
 454 676 454 676 468 645 c 128,-1,66
 482 614 482 614 487 589 c 1,67,68
 487 567 487 567 466 562 c 1,69,-1
 459 561 l 1,0,1
EndSplineSet
EndChar

StartChar: g
Encoding: 103 103 92
Width: 548
Flags: W
LayerCount: 2
Fore
SplineSet
418 149 m 0,0,1
 421 158 421 158 431 163 c 1,2,3
 424 232 424 232 419.5 291 c 128,-1,4
 415 350 415 350 415 387 c 2,5,-1
 415 399 l 1,6,7
 405 404 405 404 401 412 c 0,8,9
 380 451 380 451 359.5 468 c 128,-1,10
 339 485 339 485 333 486 c 1,11,12
 316 486 316 486 302.5 484 c 128,-1,13
 289 482 289 482 284 481 c 1,14,15
 271 481 271 481 263 491 c 1,16,17
 238 481 238 481 210.5 446 c 128,-1,18
 183 411 183 411 160 364.5 c 128,-1,19
 137 318 137 318 122 265.5 c 128,-1,20
 107 213 107 213 107 169 c 0,21,22
 107 122 107 122 123 90 c 128,-1,23
 139 58 139 58 163 37.5 c 128,-1,24
 187 17 187 17 214.5 8 c 128,-1,25
 242 -1 242 -1 265 -1 c 0,26,27
 280 -1 280 -1 300.5 9.5 c 128,-1,28
 321 20 321 20 342.5 39.5 c 128,-1,29
 364 59 364 59 384 86.5 c 128,-1,30
 404 114 404 114 418 149 c 0,0,1
471 387 m 0,31,32
 471 364 471 364 473 329.5 c 128,-1,33
 475 295 475 295 478.5 254.5 c 128,-1,34
 482 214 482 214 486 168.5 c 128,-1,35
 490 123 490 123 495 77 c 0,36,37
 499 32 499 32 503.5 -10.5 c 128,-1,38
 508 -53 508 -53 511 -90.5 c 128,-1,39
 514 -128 514 -128 516 -159 c 128,-1,40
 518 -190 518 -190 518 -211 c 0,41,42
 518 -247 518 -247 504 -282.5 c 128,-1,43
 490 -318 490 -318 463 -346 c 128,-1,44
 436 -374 436 -374 396.5 -391.5 c 128,-1,45
 357 -409 357 -409 305 -409 c 0,46,47
 157 -409 157 -409 93 -247 c 0,48,49
 91 -243 91 -243 91 -236 c 0,50,51
 91 -218 91 -218 108 -210 c 0,52,53
 111 -209 111 -209 113.5 -208.5 c 128,-1,54
 116 -208 116 -208 119 -208 c 0,55,56
 137 -208 137 -208 145 -227 c 0,57,58
 150 -240 150 -240 160.5 -261.5 c 128,-1,59
 171 -283 171 -283 189 -303 c 128,-1,60
 207 -323 207 -323 235.5 -338 c 128,-1,61
 264 -353 264 -353 305 -353 c 0,62,63
 348 -353 348 -353 378 -339 c 128,-1,64
 408 -325 408 -325 426.5 -303.5 c 128,-1,65
 445 -282 445 -282 453.5 -257 c 128,-1,66
 462 -232 462 -232 462 -211 c 0,67,68
 462 -191 462 -191 460 -160.5 c 128,-1,69
 458 -130 458 -130 455 -93 c 128,-1,70
 452 -56 452 -56 448 -14.5 c 128,-1,71
 444 27 444 27 440 69 c 1,72,73
 421 39 421 39 398.5 16 c 128,-1,74
 376 -7 376 -7 352.5 -23.5 c 128,-1,75
 329 -40 329 -40 306.5 -48.5 c 128,-1,76
 284 -57 284 -57 265 -57 c 0,77,78
 226 -57 226 -57 187.5 -42.5 c 128,-1,79
 149 -28 149 -28 119 0.5 c 128,-1,80
 89 29 89 29 70 71.5 c 128,-1,81
 51 114 51 114 51 169 c 0,82,83
 51 204 51 204 60 246 c 128,-1,84
 69 288 69 288 84.5 330 c 128,-1,85
 100 372 100 372 121.5 412 c 128,-1,86
 143 452 143 452 168 482.5 c 128,-1,87
 193 513 193 513 221 531.5 c 128,-1,88
 249 550 249 550 278 550 c 0,89,90
 299 550 299 550 313 541 c 1,91,92
 318 542 318 542 323 542 c 128,-1,93
 328 542 328 542 334 542 c 0,94,95
 352 542 352 542 374 528 c 128,-1,96
 396 514 396 514 416 489 c 1,97,98
 418 501 418 501 422.5 511 c 128,-1,99
 427 521 427 521 443 522 c 2,100,-1
 469 524 l 1,101,-1
 473 498 l 2,102,103
 473 496 473 496 473 494.5 c 128,-1,104
 473 493 473 493 472 486 c 0,105,106
 472 480 472 480 471.5 459 c 128,-1,107
 471 438 471 438 471 387 c 0,31,32
EndSplineSet
EndChar

StartChar: h
Encoding: 104 104 93
Width: 579
Flags: W
LayerCount: 2
Fore
SplineSet
521 109 m 0,0,1
 521 96 521 96 524.5 81.5 c 128,-1,2
 528 67 528 67 532.5 54.5 c 128,-1,3
 537 42 537 42 542 31.5 c 128,-1,4
 547 21 547 21 550 16 c 0,5,6
 552 12 552 12 553 9 c 128,-1,7
 554 6 554 6 554 2 c 0,8,9
 554 -14 554 -14 539 -22 c 1,10,11
 534 -26 534 -26 526 -26 c 0,12,13
 509 -26 509 -26 501 -12 c 0,14,15
 501 -11 501 -11 495 0 c 128,-1,16
 489 11 489 11 482.5 28.5 c 128,-1,17
 476 46 476 46 470.5 67 c 128,-1,18
 465 88 465 88 465 109 c 0,19,20
 465 114 465 114 464.5 120 c 128,-1,21
 464 126 464 126 463 134 c 0,22,23
 462 147 462 147 461 163 c 128,-1,24
 460 179 460 179 460 201 c 0,25,26
 460 215 460 215 458 231 c 128,-1,27
 456 247 456 247 454 265 c 0,28,29
 451 289 451 289 448.5 316 c 128,-1,30
 446 343 446 343 446 374 c 0,31,32
 446 393 446 393 438 415 c 128,-1,33
 430 437 430 437 414 455.5 c 128,-1,34
 398 474 398 474 375 486.5 c 128,-1,35
 352 499 352 499 322 499 c 0,36,37
 284 499 284 499 254.5 485.5 c 128,-1,38
 225 472 225 472 203 451.5 c 128,-1,39
 181 431 181 431 166 406.5 c 128,-1,40
 151 382 151 382 142 361 c 1,41,42
 147 306 147 306 155 244 c 128,-1,43
 163 182 163 182 171.5 128.5 c 128,-1,44
 180 75 180 75 186 39 c 128,-1,45
 192 3 192 3 192 0 c 0,46,47
 192 -10 192 -10 185 -18 c 128,-1,48
 178 -26 178 -26 164 -28 c 1,49,50
 153 -28 153 -28 145.5 -21.5 c 128,-1,51
 138 -15 138 -15 136 -5 c 0,52,53
 136 -2 136 -2 131.5 25 c 128,-1,54
 127 52 127 52 120.5 93 c 128,-1,55
 114 134 114 134 106 184.5 c 128,-1,56
 98 235 98 235 91 286 c 1,57,58
 69 291 69 291 70 319 c 1,59,60
 74 341 74 341 85 370 c 1,61,62
 83 392 83 392 82 411.5 c 128,-1,63
 81 431 81 431 81 448 c 0,64,65
 81 496 81 496 78 550 c 128,-1,66
 75 604 75 604 71.5 650.5 c 128,-1,67
 68 697 68 697 64.5 728 c 128,-1,68
 61 759 61 759 61 761 c 0,69,70
 61 772 61 772 68.5 779.5 c 128,-1,71
 76 787 76 787 89 789 c 1,72,73
 100 789 100 789 108 782 c 128,-1,74
 116 775 116 775 117 764 c 0,75,76
 117 761 117 761 120 731.5 c 128,-1,77
 123 702 123 702 127 658 c 128,-1,78
 131 614 131 614 134 561.5 c 128,-1,79
 137 509 137 509 137 461 c 1,80,81
 168 500 168 500 213.5 527.5 c 128,-1,82
 259 555 259 555 322 555 c 0,83,84
 362 555 362 555 395.5 539 c 128,-1,85
 429 523 429 523 452.5 497.5 c 128,-1,86
 476 472 476 472 489 439.5 c 128,-1,87
 502 407 502 407 502 374 c 0,88,89
 502 345 502 345 504.5 320 c 128,-1,90
 507 295 507 295 510 272 c 0,91,92
 512 253 512 253 514 235.5 c 128,-1,93
 516 218 516 218 516 201 c 0,94,95
 516 162 516 162 519 140 c 0,96,97
 520 131 520 131 520.5 124 c 128,-1,98
 521 117 521 117 521 109 c 0,0,1
EndSplineSet
EndChar

StartChar: i
Encoding: 105 105 94
Width: 245
Flags: W
LayerCount: 2
Fore
SplineSet
86 598 m 0,0,1
 69 598 69 598 57.5 609.5 c 128,-1,2
 46 621 46 621 46 638 c 256,3,4
 46 655 46 655 57.5 666 c 128,-1,5
 69 677 69 677 86 677 c 0,6,7
 102 677 102 677 113.5 666 c 128,-1,8
 125 655 125 655 125 638 c 256,9,10
 125 621 125 621 113.5 609.5 c 128,-1,11
 102 598 102 598 86 598 c 0,0,1
99 556 m 2,12,13
 110 556 110 556 117.5 549.5 c 128,-1,14
 125 543 125 543 127 533 c 0,15,16
 127 530 127 530 131.5 502 c 128,-1,17
 136 474 136 474 142 434 c 128,-1,18
 148 394 148 394 153.5 348.5 c 128,-1,19
 159 303 159 303 161 267 c 0,20,21
 163 232 163 232 168 185 c 128,-1,22
 173 138 173 138 179 95.5 c 128,-1,23
 185 53 185 53 189.5 22.5 c 128,-1,24
 194 -8 194 -8 194 -10 c 0,25,26
 194 -21 194 -21 187 -28.5 c 128,-1,27
 180 -36 180 -36 166 -38 c 1,28,29
 155 -38 155 -38 147.5 -31.5 c 128,-1,30
 140 -25 140 -25 138 -14 c 0,31,32
 138 -11 138 -11 133.5 19 c 128,-1,33
 129 49 129 49 123 91.5 c 128,-1,34
 117 134 117 134 112 181 c 128,-1,35
 107 228 107 228 105 264 c 0,36,37
 103 299 103 299 97.5 344 c 128,-1,38
 92 389 92 389 86.5 429 c 128,-1,39
 81 469 81 469 76.5 497.5 c 128,-1,40
 72 526 72 526 72 528 c 0,41,42
 72 538 72 538 78 546 c 128,-1,43
 84 554 84 554 95 556 c 1,44,-1
 99 556 l 2,12,13
EndSplineSet
EndChar

StartChar: j
Encoding: 106 106 95
Width: 253
Flags: W
LayerCount: 2
Fore
SplineSet
131 598 m 0,0,1
 115 598 115 598 103.5 609.5 c 128,-1,2
 92 621 92 621 92 638 c 256,3,4
 92 655 92 655 103.5 666 c 128,-1,5
 115 677 115 677 131 677 c 0,6,7
 148 677 148 677 159.5 666 c 128,-1,8
 171 655 171 655 171 638 c 256,9,10
 171 621 171 621 159.5 609.5 c 128,-1,11
 148 598 148 598 131 598 c 0,0,1
155 387 m 0,12,13
 155 364 155 364 157 329.5 c 128,-1,14
 159 295 159 295 162.5 254.5 c 128,-1,15
 166 214 166 214 170 168.5 c 128,-1,16
 174 123 174 123 179 77 c 0,17,18
 183 32 183 32 187.5 -10.5 c 128,-1,19
 192 -53 192 -53 195 -90.5 c 128,-1,20
 198 -128 198 -128 200 -159 c 128,-1,21
 202 -190 202 -190 202 -211 c 0,22,23
 202 -247 202 -247 188 -282.5 c 128,-1,24
 174 -318 174 -318 147 -346 c 128,-1,25
 120 -374 120 -374 80.5 -391.5 c 128,-1,26
 41 -409 41 -409 -11 -409 c 0,27,28
 -159 -409 -159 -409 -223 -247 c 0,29,30
 -225 -243 -225 -243 -225 -236 c 0,31,32
 -225 -218 -225 -218 -208 -210 c 0,33,34
 -205 -209 -205 -209 -202.5 -208.5 c 128,-1,35
 -200 -208 -200 -208 -197 -208 c 0,36,37
 -179 -208 -179 -208 -171 -227 c 0,38,39
 -166 -240 -166 -240 -155.5 -261.5 c 128,-1,40
 -145 -283 -145 -283 -127 -303 c 128,-1,41
 -109 -323 -109 -323 -80.5 -338 c 128,-1,42
 -52 -353 -52 -353 -11 -353 c 0,43,44
 32 -353 32 -353 62 -339 c 128,-1,45
 92 -325 92 -325 110.5 -303.5 c 128,-1,46
 129 -282 129 -282 137.5 -257 c 128,-1,47
 146 -232 146 -232 146 -211 c 0,48,49
 146 -191 146 -191 144 -160 c 128,-1,50
 142 -129 142 -129 138.5 -91.5 c 128,-1,51
 135 -54 135 -54 131 -12 c 128,-1,52
 127 30 127 30 123 72 c 0,53,54
 118 118 118 118 114 164 c 128,-1,55
 110 210 110 210 106.5 251.5 c 128,-1,56
 103 293 103 293 101 328 c 128,-1,57
 99 363 99 363 99 387 c 0,58,59
 99 419 99 419 99 441.5 c 128,-1,60
 99 464 99 464 100 478 c 0,61,62
 100 485 100 485 100.5 492.5 c 128,-1,63
 101 500 101 500 103.5 506.5 c 128,-1,64
 106 513 106 513 111.5 517.5 c 128,-1,65
 117 522 117 522 127 522 c 2,66,-1
 153 524 l 1,67,-1
 157 498 l 2,68,69
 157 496 157 496 157 494.5 c 128,-1,70
 157 493 157 493 156 486 c 0,71,72
 156 480 156 480 155.5 459 c 128,-1,73
 155 438 155 438 155 387 c 0,12,13
EndSplineSet
EndChar

StartChar: k
Encoding: 107 107 96
Width: 557
Flags: W
LayerCount: 2
Fore
SplineSet
365 269 m 0,0,1
 376 255 376 255 398.5 231 c 128,-1,2
 421 207 421 207 448 179 c 128,-1,3
 475 151 475 151 503.5 122 c 128,-1,4
 532 93 532 93 555.5 69.5 c 128,-1,5
 579 46 579 46 594 30.5 c 128,-1,6
 609 15 609 15 610 15 c 0,7,8
 619 7 619 7 619 -5 c 0,9,10
 619 -15 619 -15 611 -25 c 1,11,12
 601 -33 601 -33 591 -33 c 0,13,14
 579 -33 579 -33 571 -25 c 0,15,16
 569 -23 569 -23 553 -7 c 128,-1,17
 537 9 537 9 513 32.5 c 128,-1,18
 489 56 489 56 460.5 85 c 128,-1,19
 432 114 432 114 404.5 142.5 c 128,-1,20
 377 171 377 171 354.5 195 c 128,-1,21
 332 219 332 219 321 234 c 0,22,23
 299 261 299 261 272 295 c 128,-1,24
 245 329 245 329 216 360 c 1,25,26
 199 345 199 345 183.5 330 c 128,-1,27
 168 315 168 315 155 303 c 0,28,29
 150 298 150 298 142 295 c 1,30,31
 148 244 148 244 155 192.5 c 128,-1,32
 162 141 162 141 168 99 c 128,-1,33
 174 57 174 57 178 30 c 128,-1,34
 182 3 182 3 182 0 c 0,35,36
 182 -11 182 -11 175 -18.5 c 128,-1,37
 168 -26 168 -26 154 -28 c 1,38,39
 144 -28 144 -28 136.5 -21.5 c 128,-1,40
 129 -15 129 -15 127 -4 c 0,41,42
 127 -1 127 -1 122.5 25 c 128,-1,43
 118 51 118 51 112.5 90 c 128,-1,44
 107 129 107 129 100.5 177.5 c 128,-1,45
 94 226 94 226 88 275.5 c 128,-1,46
 82 325 82 325 78.5 370 c 128,-1,47
 75 415 75 415 75 448 c 0,48,49
 75 496 75 496 72 550 c 128,-1,50
 69 604 69 604 65.5 650.5 c 128,-1,51
 62 697 62 697 59 728 c 128,-1,52
 56 759 56 759 56 761 c 0,53,54
 56 772 56 772 63.5 779.5 c 128,-1,55
 71 787 71 787 84 789 c 1,56,57
 95 789 95 789 103 781.5 c 128,-1,58
 111 774 111 774 112 763 c 0,59,60
 112 760 112 760 115 729 c 128,-1,61
 118 698 118 698 121.5 651.5 c 128,-1,62
 125 605 125 605 128 551 c 128,-1,63
 131 497 131 497 131 448 c 0,64,65
 131 430 131 430 132.5 408.5 c 128,-1,66
 134 387 134 387 136 361 c 1,67,68
 148 372 148 372 164 387 c 128,-1,69
 180 402 180 402 196.5 416.5 c 128,-1,70
 213 431 213 431 229 443.5 c 128,-1,71
 245 456 245 456 256 462 c 256,72,73
 267 468 267 468 281.5 483 c 128,-1,74
 296 498 296 498 310 514 c 0,75,76
 328 534 328 534 345.5 551 c 128,-1,77
 363 568 363 568 380 577 c 0,78,79
 386 580 386 580 393 580 c 0,80,81
 409 580 409 580 418 566 c 0,82,83
 421 560 421 560 421 552 c 0,84,85
 421 545 421 545 417.5 538.5 c 128,-1,86
 414 532 414 532 406 528 c 0,87,88
 395 522 395 522 380.5 507 c 128,-1,89
 366 492 366 492 352 476 c 0,90,91
 334 456 334 456 317 439 c 128,-1,92
 300 422 300 422 283 413 c 0,93,94
 276 409 276 409 259 396 c 1,95,96
 288 364 288 364 315.5 330 c 128,-1,97
 343 296 343 296 365 269 c 0,0,1
EndSplineSet
EndChar

StartChar: l
Encoding: 108 108 97
Width: 249
Flags: W
LayerCount: 2
Fore
SplineSet
146 448 m 0,0,1
 146 416 146 416 150 371 c 128,-1,2
 154 326 154 326 159.5 277 c 128,-1,3
 165 228 165 228 171.5 179.5 c 128,-1,4
 178 131 178 131 184 91.5 c 128,-1,5
 190 52 190 52 194 27 c 128,-1,6
 198 2 198 2 198 0 c 0,7,8
 198 -23 198 -23 170 -28 c 1,9,10
 159 -28 159 -28 151.5 -21.5 c 128,-1,11
 144 -15 144 -15 142 -4 c 0,12,13
 141 -1 141 -1 137 25 c 128,-1,14
 133 51 133 51 127.5 90 c 128,-1,15
 122 129 122 129 115.5 177.5 c 128,-1,16
 109 226 109 226 103 275.5 c 128,-1,17
 97 325 97 325 93.5 370 c 128,-1,18
 90 415 90 415 90 448 c 0,19,20
 90 496 90 496 87 550 c 128,-1,21
 84 604 84 604 81 650.5 c 128,-1,22
 78 697 78 697 75 728 c 128,-1,23
 72 759 72 759 72 761 c 0,24,25
 72 772 72 772 79 779.5 c 128,-1,26
 86 787 86 787 100 789 c 1,27,28
 111 789 111 789 118.5 781.5 c 128,-1,29
 126 774 126 774 128 763 c 0,30,31
 128 760 128 760 131 729 c 128,-1,32
 134 698 134 698 137 651.5 c 128,-1,33
 140 605 140 605 143 551 c 128,-1,34
 146 497 146 497 146 448 c 0,0,1
EndSplineSet
EndChar

StartChar: m
Encoding: 109 109 98
Width: 982
Flags: W
LayerCount: 2
Fore
SplineSet
916 131 m 0,0,1
 916 119 916 119 915 107 c 128,-1,2
 914 95 914 95 912 84 c 256,3,4
 910 73 910 73 909 63 c 128,-1,5
 908 53 908 53 908 43 c 0,6,7
 908 25 908 25 914 10 c 0,8,9
 915 7 915 7 915.5 4.5 c 128,-1,10
 916 2 916 2 916 -1 c 0,11,12
 916 -19 916 -19 898 -27 c 1,13,14
 890 -29 890 -29 888 -29 c 0,15,16
 869 -29 869 -29 861 -11 c 1,17,18
 856 3 856 3 854 16 c 128,-1,19
 852 29 852 29 852 43 c 0,20,21
 852 56 852 56 853 68 c 128,-1,22
 854 80 854 80 856 91 c 256,23,24
 858 102 858 102 859 111.5 c 128,-1,25
 860 121 860 121 860 131 c 0,26,27
 860 145 860 145 858 157 c 128,-1,28
 856 169 856 169 853 182 c 1,29,30
 851 197 851 197 848.5 213 c 128,-1,31
 846 229 846 229 846 248 c 0,32,33
 846 262 846 262 846.5 273 c 128,-1,34
 847 284 847 284 848 295 c 0,35,36
 849 313 849 313 850 342 c 128,-1,37
 851 371 851 371 851 428 c 0,38,39
 851 474 851 474 829 496 c 0,40,41
 811 514 811 514 785 517 c 128,-1,42
 759 520 759 520 744 520 c 0,43,44
 730 520 730 520 713 514 c 128,-1,45
 696 508 696 508 678.5 499 c 128,-1,46
 661 490 661 490 646 481 c 128,-1,47
 631 472 631 472 621 466 c 0,48,49
 616 463 616 463 612 461 c 128,-1,50
 608 459 608 459 605 457 c 0,51,52
 600 454 600 454 589 439.5 c 128,-1,53
 578 425 578 425 569 408 c 1,54,55
 563 399 563 399 554 396 c 1,56,57
 554 370 554 370 556.5 347 c 128,-1,58
 559 324 559 324 561 304 c 256,59,60
 563 284 563 284 565 265.5 c 128,-1,61
 567 247 567 247 567 230 c 0,62,63
 567 209 567 209 568 193.5 c 128,-1,64
 569 178 569 178 570 165 c 1,65,66
 573 147 573 147 573 133 c 256,67,68
 573 119 573 119 576.5 104 c 128,-1,69
 580 89 580 89 584.5 75.5 c 128,-1,70
 589 62 589 62 594 51 c 128,-1,71
 599 40 599 40 602 34 c 1,72,73
 606 29 606 29 606 21 c 256,74,75
 606 13 606 13 602.5 6.5 c 128,-1,76
 599 0 599 0 591 -4 c 0,77,78
 585 -7 585 -7 578 -7 c 0,79,80
 561 -7 561 -7 553 7 c 0,81,82
 553 8 553 8 547 19.5 c 128,-1,83
 541 31 541 31 534.5 49 c 128,-1,84
 528 67 528 67 522.5 89 c 128,-1,85
 517 111 517 111 517 133 c 0,86,87
 517 138 517 138 516.5 145 c 128,-1,88
 516 152 516 152 515 160 c 0,89,90
 513 173 513 173 512 190 c 128,-1,91
 511 207 511 207 511 230 c 0,92,93
 511 244 511 244 509 261 c 128,-1,94
 507 278 507 278 505 297 c 0,95,96
 503 323 503 323 500 351 c 128,-1,97
 497 379 497 379 497 412 c 0,98,99
 497 432 497 432 488.5 455.5 c 128,-1,100
 480 479 480 479 464 498.5 c 128,-1,101
 448 518 448 518 424.5 531 c 128,-1,102
 401 544 401 544 370 544 c 0,103,104
 331 544 331 544 300.5 529 c 128,-1,105
 270 514 270 514 247.5 492 c 128,-1,106
 225 470 225 470 210 444 c 128,-1,107
 195 418 195 418 185.5 395.5 c 128,-1,108
 176 373 176 373 172 358 c 2,109,-1
 168 342 l 2,110,111
 167 334 167 334 160 327 c 1,112,-1
 160 310 l 2,113,114
 160 285 160 285 167.5 254 c 128,-1,115
 175 223 175 223 183 188 c 1,116,117
 195 143 195 143 205.5 94 c 128,-1,118
 216 45 216 45 216 -6 c 0,119,120
 216 -17 216 -17 207.5 -25.5 c 128,-1,121
 199 -34 199 -34 188 -34 c 0,122,123
 176 -34 176 -34 168 -25.5 c 128,-1,124
 160 -17 160 -17 160 -6 c 0,125,126
 160 40 160 40 150 86 c 128,-1,127
 140 132 140 132 129 174 c 0,128,129
 119 212 119 212 111.5 246 c 128,-1,130
 104 280 104 280 104 310 c 0,131,132
 104 339 104 339 100 382.5 c 128,-1,133
 96 426 96 426 90.5 467.5 c 128,-1,134
 85 509 85 509 81 539.5 c 128,-1,135
 77 570 77 570 77 572 c 0,136,137
 77 583 77 583 84 590.5 c 128,-1,138
 91 598 91 598 105 600 c 1,139,140
 115 600 115 600 122.5 593.5 c 128,-1,141
 130 587 130 587 132 576 c 0,142,143
 132 574 132 574 134 563.5 c 128,-1,144
 136 553 136 553 138.5 536 c 128,-1,145
 141 519 141 519 143.5 496.5 c 128,-1,146
 146 474 146 474 149 450 c 1,147,148
 164 478 164 478 185 505 c 128,-1,149
 206 532 206 532 233.5 553 c 128,-1,150
 261 574 261 574 295 587 c 128,-1,151
 329 600 329 600 370 600 c 0,152,153
 402 600 402 600 430 589.5 c 128,-1,154
 458 579 458 579 480 561.5 c 128,-1,155
 502 544 502 544 518 520.5 c 128,-1,156
 534 497 534 497 543 471 c 1,157,158
 551 482 551 482 560 491.5 c 128,-1,159
 569 501 569 501 578 506 c 0,160,161
 583 508 583 508 591 514 c 0,162,163
 604 522 604 522 622.5 532.5 c 128,-1,164
 641 543 641 543 661.5 553 c 128,-1,165
 682 563 682 563 704 569.5 c 128,-1,166
 726 576 726 576 746 576 c 0,167,168
 755 576 755 576 769.5 575.5 c 128,-1,169
 784 575 784 575 801 571 c 128,-1,170
 818 567 818 567 836 559 c 128,-1,171
 854 551 854 551 869 536 c 0,172,173
 907 496 907 496 907 428 c 0,174,175
 907 369 907 369 905.5 339.5 c 128,-1,176
 904 310 904 310 903 291 c 0,177,178
 902 280 902 280 902 270.5 c 128,-1,179
 902 261 902 261 902 248 c 0,180,181
 902 233 902 233 904 220 c 128,-1,182
 906 207 906 207 908 193 c 0,183,184
 911 179 911 179 913.5 163.5 c 128,-1,185
 916 148 916 148 916 131 c 0,0,1
EndSplineSet
EndChar

StartChar: n
Encoding: 110 110 99
Width: 611
Flags: W
LayerCount: 2
Fore
SplineSet
552 120 m 0,0,1
 552 106 552 106 555.5 91 c 128,-1,2
 559 76 559 76 564 62.5 c 128,-1,3
 569 49 569 49 574 38 c 128,-1,4
 579 27 579 27 582 21 c 256,5,6
 585 15 585 15 585 7 c 0,7,8
 585 -9 585 -9 571 -17 c 0,9,10
 567 -19 567 -19 564 -20 c 128,-1,11
 561 -21 561 -21 557 -21 c 0,12,13
 541 -21 541 -21 533 -6 c 0,14,15
 532 -5 532 -5 526 6.5 c 128,-1,16
 520 18 520 18 513.5 36 c 128,-1,17
 507 54 507 54 501.5 76 c 128,-1,18
 496 98 496 98 496 120 c 0,19,20
 496 125 496 125 495.5 131.5 c 128,-1,21
 495 138 495 138 494 146 c 0,22,23
 493 160 493 160 492 176.5 c 128,-1,24
 491 193 491 193 491 216 c 0,25,26
 491 231 491 231 489 247.5 c 128,-1,27
 487 264 487 264 485 284 c 0,28,29
 482 309 482 309 479.5 337.5 c 128,-1,30
 477 366 477 366 477 398 c 0,31,32
 477 418 477 418 468.5 441.5 c 128,-1,33
 460 465 460 465 444 485 c 128,-1,34
 428 505 428 505 404.5 518 c 128,-1,35
 381 531 381 531 350 531 c 0,36,37
 311 531 311 531 280.5 516.5 c 128,-1,38
 250 502 250 502 228 480 c 128,-1,39
 206 458 206 458 190.5 432.5 c 128,-1,40
 175 407 175 407 166 384.5 c 128,-1,41
 157 362 157 362 152.5 346 c 128,-1,42
 148 330 148 330 148 328 c 0,43,44
 145 319 145 319 140 314 c 1,45,-1
 140 296 l 2,46,47
 140 272 140 272 147 241 c 128,-1,48
 154 210 154 210 163 175 c 0,49,50
 174 130 174 130 184.5 81 c 128,-1,51
 195 32 195 32 195 -19 c 0,52,53
 195 -31 195 -31 187 -39 c 128,-1,54
 179 -47 179 -47 167 -47 c 0,55,56
 156 -47 156 -47 147.5 -39 c 128,-1,57
 139 -31 139 -31 139 -19 c 0,58,59
 139 27 139 27 129.5 73 c 128,-1,60
 120 119 120 119 109 161 c 0,61,62
 99 198 99 198 91.5 232.5 c 128,-1,63
 84 267 84 267 84 296 c 256,64,65
 84 325 84 325 80 369 c 128,-1,66
 76 413 76 413 70.5 454.5 c 128,-1,67
 65 496 65 496 60.5 526.5 c 128,-1,68
 56 557 56 557 56 559 c 0,69,70
 56 569 56 569 63 577 c 128,-1,71
 70 585 70 585 84 587 c 1,72,73
 95 587 95 587 102.5 580.5 c 128,-1,74
 110 574 110 574 112 563 c 0,75,76
 112 561 112 561 114 550.5 c 128,-1,77
 116 540 116 540 118 522.5 c 128,-1,78
 120 505 120 505 123 483 c 128,-1,79
 126 461 126 461 129 437 c 1,80,81
 144 465 144 465 164.5 492 c 128,-1,82
 185 519 185 519 212.5 540 c 128,-1,83
 240 561 240 561 274 574 c 128,-1,84
 308 587 308 587 350 587 c 0,85,86
 391 587 391 587 424.5 570.5 c 128,-1,87
 458 554 458 554 482 527 c 128,-1,88
 506 500 506 500 519.5 466 c 128,-1,89
 533 432 533 432 533 398 c 0,90,91
 533 368 533 368 535.5 341 c 128,-1,92
 538 314 538 314 541 291 c 0,93,94
 543 271 543 271 545 252 c 128,-1,95
 547 233 547 233 547 216 c 0,96,97
 547 176 547 176 550 152 c 0,98,99
 551 143 551 143 551.5 135.5 c 128,-1,100
 552 128 552 128 552 120 c 0,0,1
EndSplineSet
EndChar

StartChar: o
Encoding: 111 111 100
Width: 520
Flags: W
LayerCount: 2
Fore
SplineSet
259 35 m 0,0,1
 278 35 278 35 307.5 53.5 c 128,-1,2
 337 72 337 72 365 105.5 c 128,-1,3
 393 139 393 139 413 186 c 128,-1,4
 433 233 433 233 433 291 c 0,5,6
 433 347 433 347 419.5 389.5 c 128,-1,7
 406 432 406 432 388.5 461.5 c 128,-1,8
 371 491 371 491 353.5 506 c 128,-1,9
 336 521 336 521 328 523 c 1,10,11
 311 523 311 523 297.5 520.5 c 128,-1,12
 284 518 284 518 279 517 c 1,13,14
 267 517 267 517 257 527 c 1,15,16
 232 517 232 517 205 482 c 128,-1,17
 178 447 178 447 155 400.5 c 128,-1,18
 132 354 132 354 117 301.5 c 128,-1,19
 102 249 102 249 102 205 c 0,20,21
 102 159 102 159 118 126.5 c 128,-1,22
 134 94 134 94 158 74 c 128,-1,23
 182 54 182 54 209 44.5 c 128,-1,24
 236 35 236 35 259 35 c 0,0,1
329 579 m 0,25,26
 350 579 350 579 377.5 558.5 c 128,-1,27
 405 538 405 538 429.5 500.5 c 128,-1,28
 454 463 454 463 471.5 410 c 128,-1,29
 489 357 489 357 489 291 c 0,30,31
 489 224 489 224 466 167 c 128,-1,32
 443 110 443 110 408.5 68 c 128,-1,33
 374 26 374 26 333.5 2.5 c 128,-1,34
 293 -21 293 -21 259 -21 c 0,35,36
 220 -21 220 -21 182 -6 c 128,-1,37
 144 9 144 9 114 37.5 c 128,-1,38
 84 66 84 66 65 108 c 128,-1,39
 46 150 46 150 46 205 c 0,40,41
 46 240 46 240 55 282 c 128,-1,42
 64 324 64 324 79.5 366.5 c 128,-1,43
 95 409 95 409 116.5 448.5 c 128,-1,44
 138 488 138 488 163 519 c 128,-1,45
 188 550 188 550 216 568.5 c 128,-1,46
 244 587 244 587 273 587 c 0,47,48
 284 587 284 587 292.5 584.5 c 128,-1,49
 301 582 301 582 308 578 c 1,50,51
 313 578 313 578 318 578.5 c 128,-1,52
 323 579 323 579 329 579 c 0,25,26
EndSplineSet
EndChar

StartChar: p
Encoding: 112 112 101
Width: 549
Flags: W
LayerCount: 2
Fore
SplineSet
449 229 m 0,0,1
 454 242 454 242 455.5 255 c 128,-1,2
 457 268 457 268 457 281 c 0,3,4
 457 313 457 313 446.5 343 c 128,-1,5
 436 373 436 373 419 398.5 c 128,-1,6
 402 424 402 424 381 444.5 c 128,-1,7
 360 465 360 465 339 478 c 1,8,9
 314 492 314 492 279 492 c 0,10,11
 248 492 248 492 214 480 c 128,-1,12
 180 468 180 468 153 442 c 1,13,14
 143 434 143 434 134 434 c 0,15,16
 128 434 128 434 122 437 c 1,17,18
 127 406 127 406 133 365.5 c 128,-1,19
 139 325 139 325 145 280 c 128,-1,20
 151 235 151 235 157 188 c 128,-1,21
 163 141 163 141 167 98 c 1,22,23
 181 92 181 92 184 75 c 0,24,25
 184 74 184 74 186.5 68 c 128,-1,26
 189 62 189 62 199 56 c 0,27,28
 215 47 215 47 234 47 c 0,29,30
 246 47 246 47 257.5 50 c 128,-1,31
 269 53 269 53 279 56 c 0,32,33
 306 66 306 66 332.5 84.5 c 128,-1,34
 359 103 359 103 382 126.5 c 128,-1,35
 405 150 405 150 422.5 176.5 c 128,-1,36
 440 203 440 203 449 229 c 0,0,1
368 525 m 0,37,38
 397 507 397 507 423.5 481 c 128,-1,39
 450 455 450 455 470 423 c 128,-1,40
 490 391 490 391 501.5 355 c 128,-1,41
 513 319 513 319 513 281 c 0,42,43
 513 244 513 244 502 212 c 256,44,45
 491 180 491 180 470.5 148 c 128,-1,46
 450 116 450 116 423 88 c 128,-1,47
 396 60 396 60 363.5 38 c 128,-1,48
 331 16 331 16 298 4 c 0,49,50
 265 -9 265 -9 234 -9 c 0,51,52
 202 -9 202 -9 173 7 c 1,53,-1
 173 -17 l 2,54,55
 173 -72 173 -72 176.5 -134 c 128,-1,56
 180 -196 180 -196 184 -249 c 128,-1,57
 188 -302 188 -302 191.5 -337.5 c 128,-1,58
 195 -373 195 -373 195 -375 c 0,59,60
 195 -386 195 -386 188 -394 c 128,-1,61
 181 -402 181 -402 167 -403 c 0,62,63
 156 -403 156 -403 148.5 -396 c 128,-1,64
 141 -389 141 -389 139 -378 c 0,65,66
 139 -377 139 -377 135.5 -341.5 c 128,-1,67
 132 -306 132 -306 128 -252.5 c 128,-1,68
 124 -199 124 -199 120.5 -136 c 128,-1,69
 117 -73 117 -73 117 -17 c 0,70,71
 117 19 117 19 112.5 71 c 128,-1,72
 108 123 108 123 101.5 179.5 c 128,-1,73
 95 236 95 236 87 292 c 128,-1,74
 79 348 79 348 72 393 c 128,-1,75
 65 438 65 438 60.5 466.5 c 128,-1,76
 56 495 56 495 56 497 c 0,77,78
 56 520 56 520 84 525 c 1,79,80
 95 525 95 525 102.5 519 c 128,-1,81
 110 513 110 513 112 502 c 2,82,-1
 115 483 l 1,83,84
 151 517 151 517 194 532.5 c 128,-1,85
 237 548 237 548 278 548 c 0,86,87
 331 548 331 548 368 525 c 0,37,38
EndSplineSet
EndChar

StartChar: q
Encoding: 113 113 102
Width: 541
Flags: W
LayerCount: 2
Fore
SplineSet
270 14 m 0,0,1
 284 14 284 14 303.5 23.5 c 128,-1,2
 323 33 323 33 343.5 50.5 c 128,-1,3
 364 68 364 68 383.5 93.5 c 128,-1,4
 403 119 403 119 417 151 c 1,5,6
 412 221 412 221 408.5 281 c 128,-1,7
 405 341 405 341 405 379 c 2,8,-1
 405 429 l 1,9,10
 384 467 384 467 364 483.5 c 128,-1,11
 344 500 344 500 338 501 c 1,12,13
 321 501 321 501 307.5 499 c 128,-1,14
 294 497 294 497 289 496 c 1,15,16
 276 496 276 496 268 506 c 1,17,18
 243 496 243 496 215.5 461 c 128,-1,19
 188 426 188 426 165 379.5 c 128,-1,20
 142 333 142 333 127 280.5 c 128,-1,21
 112 228 112 228 112 184 c 0,22,23
 112 137 112 137 128 105 c 128,-1,24
 144 73 144 73 168 52.5 c 128,-1,25
 192 32 192 32 219.5 23 c 128,-1,26
 247 14 247 14 270 14 c 0,0,1
746 -302 m 1,27,-1
 772 -312 l 1,28,29
 723 -444 723 -444 613 -444 c 0,30,31
 574 -444 574 -444 545 -430 c 128,-1,32
 516 -416 516 -416 496.5 -393.5 c 128,-1,33
 477 -371 477 -371 466.5 -342 c 128,-1,34
 456 -313 456 -313 454 -283 c 0,35,36
 452 -257 452 -257 448 -210 c 128,-1,37
 444 -163 444 -163 439 -103 c 0,38,39
 436 -66 436 -66 432.5 -25.5 c 128,-1,40
 429 15 429 15 425 57 c 1,41,42
 389 9 389 9 346.5 -16.5 c 128,-1,43
 304 -42 304 -42 270 -42 c 0,44,45
 231 -42 231 -42 192.5 -27.5 c 128,-1,46
 154 -13 154 -13 124 15.5 c 128,-1,47
 94 44 94 44 75 86.5 c 128,-1,48
 56 129 56 129 56 184 c 0,49,50
 56 219 56 219 65 261 c 128,-1,51
 74 303 74 303 89.5 345 c 128,-1,52
 105 387 105 387 126.5 427 c 128,-1,53
 148 467 148 467 173.5 497.5 c 128,-1,54
 199 528 199 528 226.5 546.5 c 128,-1,55
 254 565 254 565 283 565 c 0,56,57
 304 565 304 565 318 556 c 1,58,59
 323 557 323 557 328.5 557 c 128,-1,60
 334 557 334 557 339 557 c 0,61,62
 372 557 372 557 411 516 c 1,63,64
 416 530 416 530 433 531 c 2,65,-1
 459 533 l 1,66,-1
 463 507 l 2,67,68
 463 505 463 505 463.5 503.5 c 128,-1,69
 464 502 464 502 462 494 c 1,70,71
 462 487 462 487 461.5 462.5 c 128,-1,72
 461 438 461 438 461 379 c 0,73,74
 461 344 461 344 464 289 c 128,-1,75
 467 234 467 234 472 169 c 1,76,77
 477 162 477 162 477 154 c 0,78,79
 477 151 477 151 476.5 148.5 c 128,-1,80
 476 146 476 146 474 142 c 1,81,82
 479 81 479 81 484.5 19 c 128,-1,83
 490 -43 490 -43 495 -98 c 0,84,85
 500 -158 500 -158 504 -206 c 128,-1,86
 508 -254 508 -254 510 -280 c 0,87,88
 510 -284 510 -284 513 -301.5 c 128,-1,89
 516 -319 516 -319 526.5 -338 c 128,-1,90
 537 -357 537 -357 557.5 -372.5 c 128,-1,91
 578 -388 578 -388 613 -388 c 0,92,93
 637 -388 637 -388 654.5 -379.5 c 128,-1,94
 672 -371 672 -371 684 -357 c 128,-1,95
 696 -343 696 -343 704.5 -326.5 c 128,-1,96
 713 -310 713 -310 719 -293 c 1,97,-1
 746 -302 l 1,27,-1
EndSplineSet
EndChar

StartChar: r
Encoding: 114 114 103
Width: 443
Flags: W
LayerCount: 2
Fore
SplineSet
349 571 m 0,0,1
 371 571 371 571 386 567.5 c 128,-1,2
 401 564 401 564 410.5 559.5 c 128,-1,3
 420 555 420 555 425.5 550 c 128,-1,4
 431 545 431 545 433 542 c 0,5,6
 438 535 438 535 438 527 c 0,7,8
 438 511 438 511 426 504 c 1,9,10
 420 499 420 499 410 499 c 0,11,12
 398 499 398 499 389 508 c 0,13,14
 387 509 387 509 378.5 512 c 128,-1,15
 370 515 370 515 349 515 c 0,16,17
 337 515 337 515 306 500 c 128,-1,18
 275 485 275 485 243 451 c 128,-1,19
 211 417 211 417 185.5 362.5 c 128,-1,20
 160 308 160 308 160 229 c 1,21,22
 163 216 163 216 166 202.5 c 128,-1,23
 169 189 169 189 173 175 c 0,24,25
 184 130 184 130 195 81 c 128,-1,26
 206 32 206 32 206 -19 c 0,27,28
 206 -31 206 -31 197.5 -39 c 128,-1,29
 189 -47 189 -47 178 -47 c 0,30,31
 166 -47 166 -47 158 -39 c 128,-1,32
 150 -31 150 -31 150 -19 c 0,33,34
 150 27 150 27 140 73 c 128,-1,35
 130 119 130 119 119 161 c 0,36,37
 109 198 109 198 101.5 232.5 c 128,-1,38
 94 267 94 267 94 296 c 256,39,40
 94 325 94 325 90 369 c 128,-1,41
 86 413 86 413 80.5 454.5 c 128,-1,42
 75 496 75 496 71 526.5 c 128,-1,43
 67 557 67 557 67 559 c 0,44,45
 67 569 67 569 74 577 c 128,-1,46
 81 585 81 585 95 587 c 1,47,48
 105 587 105 587 112.5 580.5 c 128,-1,49
 120 574 120 574 122 563 c 0,50,51
 122 561 122 561 124.5 546.5 c 128,-1,52
 127 532 127 532 130 510 c 128,-1,53
 133 488 133 488 136.5 460 c 128,-1,54
 140 432 140 432 143 404 c 1,55,56
 163 445 163 445 190.5 476.5 c 128,-1,57
 218 508 218 508 247 529 c 128,-1,58
 276 550 276 550 303 560.5 c 128,-1,59
 330 571 330 571 349 571 c 0,0,1
EndSplineSet
EndChar

StartChar: s
Encoding: 115 115 104
Width: 520
Flags: W
LayerCount: 2
Fore
SplineSet
313 342 m 0,0,1
 490 256 490 256 490 161 c 0,2,3
 490 132 490 132 477 104 c 128,-1,4
 464 76 464 76 446 52.5 c 128,-1,5
 428 29 428 29 408.5 11.5 c 128,-1,6
 389 -6 389 -6 376 -13 c 0,7,8
 364 -20 364 -20 344.5 -26.5 c 128,-1,9
 325 -33 325 -33 304.5 -38 c 128,-1,10
 284 -43 284 -43 265.5 -46 c 128,-1,11
 247 -49 247 -49 235 -49 c 0,12,13
 209 -49 209 -49 179.5 -40.5 c 128,-1,14
 150 -32 150 -32 123 -12.5 c 128,-1,15
 96 7 96 7 74.5 39 c 128,-1,16
 53 71 53 71 41 118 c 1,17,18
 41 140 41 140 69 146 c 1,19,20
 78 146 78 146 86 140.5 c 128,-1,21
 94 135 94 135 96 125 c 0,22,23
 107 83 107 83 127.5 59.5 c 128,-1,24
 148 36 148 36 169.5 24 c 128,-1,25
 191 12 191 12 209.5 9.5 c 128,-1,26
 228 7 228 7 235 7 c 0,27,28
 244 7 244 7 260 9.5 c 128,-1,29
 276 12 276 12 292.5 16.5 c 128,-1,30
 309 21 309 21 324.5 26 c 128,-1,31
 340 31 340 31 348 36 c 0,32,33
 357 41 357 41 372 54.5 c 128,-1,34
 387 68 387 68 400.5 85.5 c 128,-1,35
 414 103 414 103 424 123 c 128,-1,36
 434 143 434 143 434 161 c 0,37,38
 434 171 434 171 428 184.5 c 128,-1,39
 422 198 422 198 406.5 214.5 c 128,-1,40
 391 231 391 231 362.5 250 c 128,-1,41
 334 269 334 269 289 291 c 0,42,43
 260 305 260 305 228.5 320 c 128,-1,44
 197 335 197 335 170 347.5 c 128,-1,45
 143 360 143 360 125 369 c 2,46,-1
 107 377 l 1,47,-1
 91 384 l 1,48,-1
 91 402 l 2,49,50
 91 448 91 448 114 482.5 c 128,-1,51
 137 517 137 517 170 540.5 c 128,-1,52
 203 564 203 564 239.5 576 c 128,-1,53
 276 588 276 588 304 588 c 0,54,55
 333 588 333 588 353 581 c 128,-1,56
 373 574 373 574 386 565.5 c 128,-1,57
 399 557 399 557 405.5 549.5 c 128,-1,58
 412 542 412 542 413 540 c 0,59,60
 418 533 418 533 418 525 c 0,61,62
 418 510 418 510 405 502 c 0,63,64
 397 497 397 497 390 497 c 0,65,66
 375 497 375 497 367 510 c 0,67,68
 366 510 366 510 362.5 513.5 c 128,-1,69
 359 517 359 517 351.5 521 c 128,-1,70
 344 525 344 525 332.5 528.5 c 128,-1,71
 321 532 321 532 304 532 c 256,72,73
 287 532 287 532 263 525 c 128,-1,74
 239 518 239 518 215 503.5 c 128,-1,75
 191 489 191 489 172 468 c 128,-1,76
 153 447 153 447 148 419 c 1,77,78
 161 413 161 413 180 404.5 c 128,-1,79
 199 396 199 396 221.5 385.5 c 128,-1,80
 244 375 244 375 268 363.5 c 128,-1,81
 292 352 292 352 313 342 c 0,0,1
EndSplineSet
EndChar

StartChar: t
Encoding: 116 116 105
Width: 422
Flags: W
LayerCount: 2
Fore
SplineSet
391 522 m 0,0,1
 400 520 400 520 406 511 c 128,-1,2
 412 502 412 502 411 488 c 1,3,4
 406 467 406 467 377 467 c 1,5,6
 377 468 377 468 340 474 c 128,-1,7
 303 480 303 480 241 481 c 1,8,9
 244 424 244 424 244 387 c 0,10,11
 244 368 244 368 246.5 333 c 128,-1,12
 249 298 249 298 252.5 256.5 c 128,-1,13
 256 215 256 215 260 171.5 c 128,-1,14
 264 128 264 128 268 92.5 c 128,-1,15
 272 57 272 57 274.5 33.5 c 128,-1,16
 277 10 277 10 277 9 c 0,17,18
 277 -2 277 -2 269.5 -9.5 c 128,-1,19
 262 -17 262 -17 249 -19 c 1,20,21
 238 -19 238 -19 230 -12 c 128,-1,22
 222 -5 222 -5 221 6 c 0,23,24
 221 9 221 9 218 33 c 128,-1,25
 215 57 215 57 211.5 92.5 c 128,-1,26
 208 128 208 128 204 171 c 128,-1,27
 200 214 200 214 196.5 255.5 c 128,-1,28
 193 297 193 297 190.5 332 c 128,-1,29
 188 367 188 367 188 387 c 0,30,31
 188 425 188 425 185 479 c 1,32,33
 159 477 159 477 134 474 c 128,-1,34
 109 471 109 471 89.5 468.5 c 128,-1,35
 70 466 70 466 57.5 464 c 128,-1,36
 45 462 45 462 43 462 c 0,37,38
 33 462 33 462 25 469 c 128,-1,39
 17 476 17 476 15 490 c 1,40,41
 15 500 15 500 21.5 507.5 c 128,-1,42
 28 515 28 515 39 517 c 0,43,44
 40 517 40 517 52.5 519.5 c 128,-1,45
 65 522 65 522 84.5 524.5 c 128,-1,46
 104 527 104 527 129 529.5 c 128,-1,47
 154 532 154 532 181 534 c 1,48,49
 179 562 179 562 176.5 589.5 c 128,-1,50
 174 617 174 617 171.5 642.5 c 128,-1,51
 169 668 169 668 166 690 c 128,-1,52
 163 712 163 712 160 728 c 1,53,54
 160 738 160 738 167 746 c 128,-1,55
 174 754 174 754 188 756 c 1,56,57
 198 756 198 756 205.5 750 c 128,-1,58
 213 744 213 744 215 733 c 0,59,60
 222 702 222 702 228 648 c 128,-1,61
 234 594 234 594 239 537 c 1,62,63
 273 537 273 537 300.5 535 c 128,-1,64
 328 533 328 533 347.5 530 c 128,-1,65
 367 527 367 527 378.5 524.5 c 128,-1,66
 390 522 390 522 391 522 c 0,0,1
EndSplineSet
EndChar

StartChar: u
Encoding: 117 117 106
Width: 580
Flags: W
LayerCount: 2
Fore
SplineSet
522 246 m 1,0,1
 544 241 544 241 544 213 c 1,2,3
 539 193 539 193 530.5 167.5 c 128,-1,4
 522 142 522 142 508 116 c 1,5,6
 514 68 514 68 519 33 c 128,-1,7
 524 -2 524 -2 525 -6 c 1,8,9
 525 -17 525 -17 518 -24.5 c 128,-1,10
 511 -32 511 -32 497 -34 c 1,11,12
 486 -34 486 -34 478.5 -27.5 c 128,-1,13
 471 -21 471 -21 469 -10 c 0,14,15
 469 -8 469 -8 466.5 7.5 c 128,-1,16
 464 23 464 23 461 47 c 1,17,18
 430 12 430 12 387 -11 c 128,-1,19
 344 -34 344 -34 287 -34 c 0,20,21
 246 -34 246 -34 212 -17.5 c 128,-1,22
 178 -1 178 -1 154 26 c 128,-1,23
 130 53 130 53 117 86.5 c 128,-1,24
 104 120 104 120 104 155 c 0,25,26
 104 185 104 185 101.5 212 c 128,-1,27
 99 239 99 239 96 262 c 0,28,29
 94 282 94 282 92 300.5 c 128,-1,30
 90 319 90 319 90 337 c 0,31,32
 90 357 90 357 89 373 c 128,-1,33
 88 389 88 389 86 401 c 0,34,35
 85 410 85 410 84.5 417.5 c 128,-1,36
 84 425 84 425 84 433 c 0,37,38
 84 447 84 447 80.5 462 c 128,-1,39
 77 477 77 477 72.5 490.5 c 128,-1,40
 68 504 68 504 63 515 c 128,-1,41
 58 526 58 526 55 532 c 1,42,43
 51 537 51 537 51 545 c 0,44,45
 51 562 51 562 66 570 c 0,46,47
 72 573 72 573 79 573 c 0,48,49
 96 573 96 573 104 559 c 0,50,51
 104 558 104 558 110 546.5 c 128,-1,52
 116 535 116 535 122.5 517 c 128,-1,53
 129 499 129 499 134.5 477 c 128,-1,54
 140 455 140 455 140 433 c 0,55,56
 140 428 140 428 140.5 421 c 128,-1,57
 141 414 141 414 142 406 c 0,58,59
 144 393 144 393 145 376.5 c 128,-1,60
 146 360 146 360 146 337 c 0,61,62
 146 322 146 322 148 305.5 c 128,-1,63
 150 289 150 289 152 269 c 0,64,65
 154 243 154 243 157 215 c 128,-1,66
 160 187 160 187 160 155 c 0,67,68
 160 134 160 134 168.5 111 c 128,-1,69
 177 88 177 88 193 68 c 128,-1,70
 209 48 209 48 232.5 35 c 128,-1,71
 256 22 256 22 287 22 c 256,72,73
 318 22 318 22 343 31 c 128,-1,74
 368 40 368 40 388 55 c 128,-1,75
 408 70 408 70 423.5 88.5 c 128,-1,76
 439 107 439 107 450 127 c 1,77,78
 445 164 445 164 441.5 201 c 128,-1,79
 438 238 438 238 436 268 c 0,80,81
 434 303 434 303 428.5 348 c 128,-1,82
 423 393 423 393 417.5 433 c 128,-1,83
 412 473 412 473 407.5 501.5 c 128,-1,84
 403 530 403 530 403 532 c 0,85,86
 403 542 403 542 410 550 c 128,-1,87
 417 558 417 558 431 560 c 1,88,89
 441 560 441 560 448.5 553.5 c 128,-1,90
 456 547 456 547 458 537 c 0,91,92
 458 534 458 534 462.5 506 c 128,-1,93
 467 478 467 478 473 438 c 128,-1,94
 479 398 479 398 484.5 352.5 c 128,-1,95
 490 307 490 307 492 271 c 0,96,97
 492 263 492 263 492.5 254.5 c 128,-1,98
 493 246 493 246 494 236 c 1,99,100
 499 241 499 241 505 244 c 128,-1,101
 511 247 511 247 522 246 c 1,0,1
EndSplineSet
EndChar

StartChar: v
Encoding: 118 118 107
Width: 487
Flags: W
LayerCount: 2
Fore
SplineSet
431 550 m 1,0,1
 440 547 440 547 446 538.5 c 128,-1,2
 452 530 452 530 451 515 c 0,3,4
 450 513 450 513 442.5 485.5 c 128,-1,5
 435 458 435 458 424 419 c 128,-1,6
 413 380 413 380 399.5 336.5 c 128,-1,7
 386 293 386 293 373 259 c 0,8,9
 360 226 360 226 345.5 181 c 128,-1,10
 331 136 331 136 319 95 c 128,-1,11
 307 54 307 54 299 25.5 c 128,-1,12
 291 -3 291 -3 291 -4 c 0,13,14
 284 -25 284 -25 256 -24 c 1,15,16
 236 -17 236 -17 237 11 c 1,17,-1
 241 26 l 1,18,19
 239 29 239 29 217 63.5 c 128,-1,20
 195 98 195 98 164 161 c 128,-1,21
 133 224 133 224 99.5 315 c 128,-1,22
 66 406 66 406 41 523 c 1,23,24
 41 532 41 532 48 540 c 128,-1,25
 55 548 55 548 69 551 c 1,26,27
 91 551 91 551 96 529 c 0,28,29
 114 448 114 448 136.5 380 c 128,-1,30
 159 312 159 312 182 257.5 c 128,-1,31
 205 203 205 203 226 163 c 128,-1,32
 247 123 247 123 262 98 c 1,33,34
 275 141 275 141 290.5 191 c 128,-1,35
 306 241 306 241 320 279 c 0,36,37
 333 312 333 312 346.5 355 c 128,-1,38
 360 398 360 398 371 436.5 c 128,-1,39
 382 475 382 475 389 502 c 128,-1,40
 396 529 396 529 396 530 c 0,41,42
 399 539 399 539 407.5 545 c 128,-1,43
 416 551 416 551 431 550 c 1,0,1
EndSplineSet
EndChar

StartChar: w
Encoding: 119 119 108
Width: 827
Flags: W
LayerCount: 2
Fore
SplineSet
780 550 m 1,0,1
 801 543 801 543 800 515 c 0,2,3
 799 513 799 513 792 485.5 c 128,-1,4
 785 458 785 458 773.5 419 c 128,-1,5
 762 380 762 380 748.5 336.5 c 128,-1,6
 735 293 735 293 722 259 c 0,7,8
 709 226 709 226 695 181 c 128,-1,9
 681 136 681 136 669 95 c 128,-1,10
 657 54 657 54 648.5 25.5 c 128,-1,11
 640 -3 640 -3 640 -4 c 0,12,13
 635 -25 635 -25 606 -24 c 1,14,15
 585 -17 585 -17 586 11 c 1,16,-1
 591 26 l 1,17,18
 589 29 589 29 571 56 c 128,-1,19
 553 83 553 83 527.5 132 c 128,-1,20
 502 181 502 181 480 234 c 0,21,22
 443 323 443 323 417 413 c 1,23,24
 406 375 406 375 393 333.5 c 128,-1,25
 380 292 380 292 367 259 c 0,26,27
 355 226 355 226 340.5 181 c 128,-1,28
 326 136 326 136 314 95 c 128,-1,29
 302 54 302 54 294 25.5 c 128,-1,30
 286 -3 286 -3 286 -4 c 0,31,32
 279 -25 279 -25 251 -24 c 1,33,34
 231 -17 231 -17 232 11 c 1,35,-1
 236 26 l 1,36,37
 234 29 234 29 212 63.5 c 128,-1,38
 190 98 190 98 159 161 c 128,-1,39
 128 224 128 224 95 315 c 0,40,41
 61 406 61 406 36 523 c 1,42,43
 36 545 36 545 64 551 c 1,44,45
 86 551 86 551 91 529 c 0,46,47
 109 448 109 448 143 346 c 0,48,49
 154 312 154 312 177 258 c 1,50,51
 199 203 199 203 220 163 c 128,-1,52
 241 123 241 123 256 98 c 1,53,54
 269 141 269 141 285 191 c 128,-1,55
 301 241 301 241 315 279 c 0,56,57
 328 312 328 312 341.5 355 c 128,-1,58
 355 398 355 398 366 437.5 c 128,-1,59
 377 477 377 477 385 505 c 128,-1,60
 393 533 393 533 394 536 c 1,61,-1
 401 545 l 1,62,-1
 411 550 l 1,63,-1
 421 550 l 2,64,65
 423 550 423 550 424.5 549.5 c 128,-1,66
 426 549 426 549 432 547 c 0,67,68
 433 546 433 546 434 545.5 c 128,-1,69
 435 545 435 545 440 540 c 1,70,-1
 446 529 l 1,71,72
 463 449 463 449 485.5 381 c 128,-1,73
 508 313 508 313 531 258 c 256,74,75
 554 203 554 203 575 163 c 128,-1,76
 596 123 596 123 611 98 c 1,77,78
 624 141 624 141 640 191 c 128,-1,79
 656 241 656 241 670 279 c 0,80,81
 682 312 682 312 695.5 355 c 128,-1,82
 709 398 709 398 720 436.5 c 128,-1,83
 731 475 731 475 738.5 502 c 128,-1,84
 746 529 746 529 746 530 c 0,85,86
 748 539 748 539 756.5 545 c 128,-1,87
 765 551 765 551 780 550 c 1,0,1
EndSplineSet
EndChar

StartChar: x
Encoding: 120 120 109
Width: 495
Flags: W
LayerCount: 2
Fore
SplineSet
398 113 m 0,0,1
 410 95 410 95 423 77.5 c 128,-1,2
 436 60 436 60 447 46 c 128,-1,3
 458 32 458 32 466 23 c 2,4,-1
 473 14 l 1,5,6
 480 7 480 7 480 -4 c 0,7,8
 480 -18 480 -18 470 -25 c 1,9,10
 463 -32 463 -32 452 -32 c 0,11,12
 438 -32 438 -32 431 -22 c 0,13,14
 430 -21 430 -21 422.5 -12 c 128,-1,15
 415 -3 415 -3 403 12 c 128,-1,16
 391 27 391 27 377.5 45 c 128,-1,17
 364 63 364 63 351 82 c 0,18,19
 343 93 343 93 331 110 c 128,-1,20
 319 127 319 127 305 146 c 128,-1,21
 291 165 291 165 275.5 185 c 128,-1,22
 260 205 260 205 246 223 c 1,23,24
 218 176 218 176 197.5 136 c 128,-1,25
 177 96 177 96 163.5 66.5 c 128,-1,26
 150 37 150 37 143 21 c 2,27,-1
 136 4 l 2,28,29
 129 -14 129 -14 110 -14 c 0,30,31
 103 -14 103 -14 100 -12 c 0,32,33
 82 -5 82 -5 82 14 c 0,34,35
 82 18 82 18 84 24 c 0,36,37
 85 27 85 27 93 46.5 c 128,-1,38
 101 66 101 66 116.5 98.5 c 128,-1,39
 132 131 132 131 155 175 c 128,-1,40
 178 219 178 219 209 270 c 1,41,-1
 202 279 l 2,42,43
 195 287 195 287 184.5 310 c 128,-1,44
 174 333 174 333 152 381 c 0,45,46
 143 400 143 400 134 420 c 128,-1,47
 125 440 125 440 116 458.5 c 128,-1,48
 107 477 107 477 99.5 491.5 c 128,-1,49
 92 506 92 506 87 514 c 256,50,51
 82 522 82 522 82 530 c 0,52,53
 82 545 82 545 94 553 c 0,54,55
 102 558 102 558 110 558 c 0,56,57
 125 558 125 558 133 546 c 0,58,59
 146 527 146 527 164.5 487 c 128,-1,60
 183 447 183 447 203 404 c 0,61,62
 213 381 213 381 223.5 358 c 128,-1,63
 234 335 234 335 241 322 c 1,64,65
 273 373 273 373 312 427 c 128,-1,66
 351 481 351 481 399 537 c 1,67,68
 406 547 406 547 420 547 c 0,69,70
 430 547 430 547 438 541 c 0,71,72
 448 532 448 532 448 519 c 0,73,74
 448 508 448 508 441 501 c 0,75,76
 392 442 392 442 351 385 c 128,-1,77
 310 328 310 328 277 274 c 1,78,79
 291 256 291 256 308.5 233.5 c 128,-1,80
 326 211 326 211 343 188.5 c 128,-1,81
 360 166 360 166 374.5 146 c 128,-1,82
 389 126 389 126 398 113 c 0,0,1
EndSplineSet
EndChar

StartChar: y
Encoding: 121 121 110
Width: 535
Flags: W
LayerCount: 2
Fore
SplineSet
531 569 m 0,0,1
 545 561 545 561 545 545 c 0,2,3
 545 536 545 536 541 531 c 2,4,-1
 533 517 l 2,5,6
 525 502 525 502 513 479.5 c 128,-1,7
 501 457 501 457 487 430.5 c 128,-1,8
 473 404 473 404 461 379 c 0,9,10
 451 358 451 358 448 344.5 c 128,-1,11
 445 331 445 331 443 316 c 0,12,13
 441 306 441 306 439.5 295 c 128,-1,14
 438 284 438 284 434.5 269.5 c 128,-1,15
 431 255 431 255 425 237 c 128,-1,16
 419 219 419 219 409 196 c 0,17,18
 387 146 387 146 381 113.5 c 128,-1,19
 375 81 375 81 371 49 c 1,20,-1
 369 22 l 2,21,22
 369 15 369 15 366 9 c 1,23,24
 364 -2 364 -2 362 -13.5 c 128,-1,25
 360 -25 360 -25 357 -39 c 0,26,27
 349 -73 349 -73 342.5 -94.5 c 128,-1,28
 336 -116 336 -116 329 -136 c 0,29,30
 321 -159 321 -159 312.5 -187 c 128,-1,31
 304 -215 304 -215 294 -264 c 0,32,33
 285 -309 285 -309 278 -347.5 c 128,-1,34
 271 -386 271 -386 267 -414 c 128,-1,35
 263 -442 263 -442 261 -458 c 2,36,-1
 259 -474 l 2,37,38
 257 -485 257 -485 249 -491.5 c 128,-1,39
 241 -498 241 -498 228 -498 c 1,40,41
 203 -495 203 -495 203 -467 c 0,42,43
 203 -466 203 -466 205.5 -449.5 c 128,-1,44
 208 -433 208 -433 212 -404.5 c 128,-1,45
 216 -376 216 -376 223 -337.5 c 128,-1,46
 230 -299 230 -299 239 -253 c 0,47,48
 244 -227 244 -227 249 -207 c 128,-1,49
 254 -187 254 -187 258.5 -171 c 128,-1,50
 263 -155 263 -155 267.5 -142 c 128,-1,51
 272 -129 272 -129 276 -117 c 0,52,53
 283 -98 283 -98 289 -78 c 128,-1,54
 295 -58 295 -58 302 -27 c 0,55,56
 305 -15 305 -15 306.5 -4.5 c 128,-1,57
 308 6 308 6 310 16 c 1,58,59
 300 30 300 30 282.5 55.5 c 128,-1,60
 265 81 265 81 249 109 c 0,61,62
 240 125 240 125 223 150.5 c 128,-1,63
 206 176 206 176 187.5 203 c 128,-1,64
 169 230 169 230 151.5 254.5 c 128,-1,65
 134 279 134 279 124 294 c 2,66,-1
 116 306 l 2,67,68
 110 314 110 314 100.5 337 c 128,-1,69
 91 360 91 360 72 408 c 0,70,71
 64 427 64 427 56 447 c 128,-1,72
 48 467 48 467 40.5 485.5 c 128,-1,73
 33 504 33 504 26 518.5 c 128,-1,74
 19 533 19 533 14 541 c 1,75,76
 10 551 10 551 10 555 c 0,77,78
 10 571 10 571 24 579 c 0,79,80
 29 583 29 583 38 583 c 0,81,82
 55 583 55 583 62 570 c 0,83,84
 73 551 73 551 90 511.5 c 128,-1,85
 107 472 107 472 124 428 c 0,86,87
 130 414 130 414 135.5 399.5 c 128,-1,88
 141 385 141 385 146.5 372.5 c 128,-1,89
 152 360 152 360 156 350 c 128,-1,90
 160 340 160 340 162 337 c 2,91,-1
 170 326 l 2,92,93
 180 311 180 311 197.5 286 c 128,-1,94
 215 261 215 261 234 233 c 128,-1,95
 253 205 253 205 270 179 c 128,-1,96
 287 153 287 153 297 137 c 1,97,98
 302 127 302 127 308.5 117.5 c 128,-1,99
 315 108 315 108 321 98 c 1,100,101
 326 122 326 122 333.5 150.5 c 128,-1,102
 341 179 341 179 357 217 c 0,103,104
 374 259 374 259 379.5 282.5 c 128,-1,105
 385 306 385 306 388 324 c 0,106,107
 390 341 390 341 394 359 c 128,-1,108
 398 377 398 377 410 403 c 0,109,110
 422 428 422 428 436 455 c 128,-1,111
 450 482 450 482 462.5 504.5 c 128,-1,112
 475 527 475 527 483.5 542 c 128,-1,113
 492 557 492 557 493 559 c 0,114,115
 501 573 501 573 517 573 c 0,116,117
 526 573 526 573 531 569 c 0,0,1
EndSplineSet
EndChar

StartChar: z
Encoding: 122 122 111
Width: 496
Flags: W
LayerCount: 2
Fore
SplineSet
505 31 m 0,0,1
 526 26 526 26 526 -3 c 1,2,3
 523 -12 523 -12 514.5 -18 c 128,-1,4
 506 -24 506 -24 492 -23 c 0,5,6
 491 -23 491 -23 446.5 -15.5 c 128,-1,7
 402 -8 402 -8 327 -8 c 0,8,9
 300 -8 300 -8 271.5 -9.5 c 128,-1,10
 243 -11 243 -11 216.5 -14 c 128,-1,11
 190 -17 190 -17 167 -20 c 128,-1,12
 144 -23 144 -23 128 -26 c 1,13,14
 119 -43 119 -43 102 -43 c 0,15,16
 97 -43 97 -43 91 -40 c 0,17,18
 78 -35 78 -35 75 -21 c 1,19,20
 72 -18 72 -18 70 -13.5 c 128,-1,21
 68 -9 68 -9 67 -1 c 1,22,23
 67 9 67 9 73 16.5 c 128,-1,24
 79 24 79 24 90 26 c 1,25,26
 102 53 102 53 125.5 100.5 c 128,-1,27
 149 148 149 148 183 208.5 c 128,-1,28
 217 269 217 269 260 339 c 128,-1,29
 303 409 303 409 356 481 c 1,30,31
 334 485 334 485 301 487.5 c 128,-1,32
 268 490 268 490 226 490 c 0,33,34
 194 490 194 490 155 487.5 c 128,-1,35
 116 485 116 485 69 480 c 1,36,37
 58 480 58 480 50.5 487 c 128,-1,38
 43 494 43 494 41 508 c 1,39,40
 41 519 41 519 48 526.5 c 128,-1,41
 55 534 55 534 66 535 c 0,42,43
 112 541 112 541 152 543.5 c 128,-1,44
 192 546 192 546 226 546 c 0,45,46
 306 546 306 546 354 538 c 128,-1,47
 402 530 402 530 404 530 c 0,48,49
 425 524 425 524 425 502 c 2,50,-1
 425 490 l 2,51,52
 425 482 425 482 420 474 c 0,53,54
 372 409 372 409 330.5 345 c 128,-1,55
 289 281 289 281 255.5 223.5 c 128,-1,56
 222 166 222 166 197 117.5 c 128,-1,57
 172 69 172 69 156 36 c 1,58,59
 191 41 191 41 236.5 44.5 c 128,-1,60
 282 48 282 48 327 48 c 0,61,62
 407 48 407 48 455 40 c 128,-1,63
 503 32 503 32 505 31 c 0,0,1
EndSplineSet
EndChar

StartChar: braceleft
Encoding: 123 123 112
Width: 334
Flags: W
LayerCount: 2
Fore
SplineSet
265 35 m 2,0,1
 276 35 276 35 284 27 c 128,-1,2
 292 19 292 19 293 7 c 0,3,4
 293 -4 293 -4 285 -12.5 c 128,-1,5
 277 -21 277 -21 266 -21 c 1,6,7
 262 -22 262 -22 255 -22 c 0,8,9
 202 -22 202 -22 172 0.5 c 128,-1,10
 142 23 142 23 127 57.5 c 128,-1,11
 112 92 112 92 108 132.5 c 128,-1,12
 104 173 104 173 103 210 c 0,13,14
 102 232 102 232 100.5 254.5 c 128,-1,15
 99 277 99 277 95.5 296.5 c 128,-1,16
 92 316 92 316 86 332 c 128,-1,17
 80 348 80 348 70 358 c 1,18,-1
 64 366 l 2,19,20
 63 367 63 367 61 377 c 0,21,22
 61 378 61 378 61.5 379.5 c 128,-1,23
 62 381 62 381 63 388 c 0,24,25
 64 389 64 389 64.5 390 c 128,-1,26
 65 391 65 391 69 397 c 0,27,28
 70 398 70 398 71 398.5 c 128,-1,29
 72 399 72 399 78 403 c 1,30,31
 101 414 101 414 101 456 c 0,32,33
 101 470 101 470 99 487 c 128,-1,34
 97 504 97 504 94 524 c 0,35,36
 92 544 92 544 89.5 564.5 c 128,-1,37
 87 585 87 585 87 605 c 0,38,39
 87 632 87 632 93.5 657.5 c 128,-1,40
 100 683 100 683 117 704 c 0,41,42
 156 749 156 749 242 753 c 0,43,44
 253 753 253 753 261.5 745 c 128,-1,45
 270 737 270 737 271 725 c 0,46,47
 271 714 271 714 263 706 c 128,-1,48
 255 698 255 698 244 697 c 0,49,50
 183 694 183 694 160 668 c 0,51,52
 150 656 150 656 146.5 640 c 128,-1,53
 143 624 143 624 143 605 c 0,54,55
 143 588 143 588 145 569.5 c 128,-1,56
 147 551 147 551 150 531 c 0,57,58
 152 513 152 513 154 494 c 128,-1,59
 156 475 156 475 156 457 c 0,60,61
 156 432 156 432 150.5 410.5 c 128,-1,62
 145 389 145 389 129 372 c 1,63,64
 147 340 147 340 151.5 298 c 128,-1,65
 156 256 156 256 158 213 c 0,66,67
 160 167 160 167 164.5 133 c 128,-1,68
 169 99 169 99 180 77.5 c 128,-1,69
 191 56 191 56 210.5 45.5 c 128,-1,70
 230 35 230 35 263 35 c 2,71,-1
 265 35 l 2,0,1
EndSplineSet
EndChar

StartChar: bar
Encoding: 124 124 113
Width: 281
Flags: W
LayerCount: 2
Fore
SplineSet
145 395 m 0,0,1
 145 376 145 376 147.5 341 c 128,-1,2
 150 306 150 306 153.5 264.5 c 128,-1,3
 157 223 157 223 161.5 179.5 c 128,-1,4
 166 136 166 136 169.5 100.5 c 128,-1,5
 173 65 173 65 175.5 41.5 c 128,-1,6
 178 18 178 18 178 17 c 0,7,8
 178 6 178 6 170.5 -1.5 c 128,-1,9
 163 -9 163 -9 150 -11 c 1,10,11
 139 -11 139 -11 131.5 -4 c 128,-1,12
 124 3 124 3 122 14 c 0,13,14
 122 17 122 17 119.5 41 c 128,-1,15
 117 65 117 65 113 100.5 c 128,-1,16
 109 136 109 136 105 179 c 128,-1,17
 101 222 101 222 97.5 263.5 c 128,-1,18
 94 305 94 305 91.5 340 c 128,-1,19
 89 375 89 375 89 395 c 0,20,21
 89 426 89 426 86.5 473 c 128,-1,22
 84 520 84 520 80 569.5 c 128,-1,23
 76 619 76 619 71 664 c 128,-1,24
 66 709 66 709 61 736 c 1,25,26
 61 758 61 758 90 764 c 1,27,28
 100 764 100 764 107.5 757.5 c 128,-1,29
 115 751 115 751 117 741 c 0,30,31
 123 714 123 714 128 667 c 128,-1,32
 133 620 133 620 136.5 569 c 128,-1,33
 140 518 140 518 142.5 470.5 c 128,-1,34
 145 423 145 423 145 395 c 0,0,1
EndSplineSet
EndChar

StartChar: braceright
Encoding: 125 125 114
Width: 349
Flags: W
LayerCount: 2
Fore
SplineSet
256 243 m 0,0,1
 258 214 258 214 260 184.5 c 128,-1,2
 262 155 262 155 259 128 c 0,3,4
 256 102 256 102 248.5 80 c 128,-1,5
 241 58 241 58 224 41 c 1,6,7
 190 2 190 2 117 1 c 1,8,9
 106 3 106 3 99 10.5 c 128,-1,10
 92 18 92 18 92 32 c 1,11,12
 94 43 94 43 101.5 50 c 128,-1,13
 109 57 109 57 120 57 c 0,14,15
 163 57 163 57 183 78 c 0,16,17
 192 88 192 88 196.5 102.5 c 128,-1,18
 201 117 201 117 203 134 c 0,19,20
 205 157 205 157 204 184 c 128,-1,21
 203 211 203 211 201 239 c 0,22,23
 199 268 199 268 197.5 296 c 128,-1,24
 196 324 196 324 198 350 c 0,25,26
 201 378 201 378 210 400 c 1,27,28
 195 413 195 413 186.5 431 c 128,-1,29
 178 449 178 449 174 470 c 128,-1,30
 170 491 170 491 170 513 c 128,-1,31
 170 535 170 535 170 557 c 0,32,33
 170 577 170 577 169.5 596.5 c 128,-1,34
 169 616 169 616 166.5 634 c 128,-1,35
 164 652 164 652 158.5 667 c 128,-1,36
 153 682 153 682 142 693 c 0,37,38
 123 714 123 714 83 717 c 0,39,40
 76 718 76 718 68.5 718.5 c 128,-1,41
 61 719 61 719 51 719 c 0,42,43
 40 720 40 720 33 728 c 128,-1,44
 26 736 26 736 26 750 c 1,45,46
 27 761 27 761 34.5 767.5 c 128,-1,47
 42 774 42 774 53 775 c 0,48,49
 63 775 63 775 71.5 774.5 c 128,-1,50
 80 774 80 774 88 773 c 0,51,52
 148 767 148 767 182 733 c 0,53,54
 199 716 199 716 208 695 c 128,-1,55
 217 674 217 674 221 651 c 128,-1,56
 225 628 225 628 225.5 603.5 c 128,-1,57
 226 579 226 579 226 556 c 0,58,59
 225 505 225 505 230 474.5 c 128,-1,60
 235 444 235 444 259 435 c 1,61,-1
 260 434 l 1,62,-1
 268 430 l 2,63,64
 268 429 268 429 269 427.5 c 128,-1,65
 270 426 270 426 274 421 c 0,66,67
 275 420 275 420 275 418.5 c 128,-1,68
 275 417 275 417 277 411 c 0,69,70
 277 410 277 410 277 408.5 c 128,-1,71
 277 407 277 407 275 400 c 1,72,-1
 270 391 l 1,73,74
 257 375 257 375 254 344 c 0,75,76
 252 322 252 322 253 296 c 128,-1,77
 254 270 254 270 256 243 c 0,0,1
EndSplineSet
EndChar
